<svg width="302" height="303" viewBox="0 0 302 303" fill="none" xmlns="http://www.w3.org/2000/svg">
<path d="M259.733 46.5034C261.831 49.4081 262.288 51.1642 262.358 54.7534C260.908 59.1033 260.209 61.186 256.358 63.7534C251.765 64.4931 248.334 64.363 244.358 61.8784C241.055 58.3691 240.961 55.689 241.007 51.0151C241.358 48.7534 241.358 48.7534 243.608 45.7534C249.213 41.677 254.02 42.2936 259.733 46.5034Z" fill="currentColor"/>
<path d="M261.28 254.098C258.774 256.739 258.774 256.739 256.745 259.41C235.307 285.541 196.195 298.902 163.811 302.23C124.189 305.636 84.6558 293.062 54.0103 267.801C50.4193 264.641 47.0822 261.266 43.7642 257.824C42.9611 257.033 42.158 256.241 41.3306 255.426C13.5959 227.311 0.133974 188.78 0.271526 149.737C0.709609 108.664 17.4764 71.4648 46.5232 42.6439C66.0902 23.7676 90.5615 11.4815 116.764 4.82432C117.468 4.64353 118.171 4.46274 118.896 4.27647C139.295 -0.683859 164.457 -0.383491 184.764 4.82432C185.551 5.023 186.338 5.22168 187.149 5.42637C196.592 7.88281 205.73 10.988 214.702 14.8243C215.441 15.132 216.18 15.4397 216.942 15.7567C221.887 17.9769 224.728 20.2964 227.764 24.8243C228.638 27.9541 228.486 30.6623 227.764 33.8243C225.459 37.0786 223.764 38.429 220.077 39.8868C214.049 39.7731 208.95 36.8155 203.534 34.3595C176.345 22.2856 145.501 19.8286 116.764 27.8243C116.093 28.0062 115.422 28.1882 114.73 28.3756C82.5365 37.3592 54.8717 59.6612 38.5142 88.6368C22.0055 118.841 17.6515 154.753 27.2056 187.918C33.88 209.906 45.0278 227.251 60.7642 243.824C61.3236 244.46 61.8831 245.095 62.4595 245.75C83.2878 268.596 117.482 279.402 147.467 280.824C179.791 281.25 211.342 269.925 235.764 248.824C236.634 247.923 236.634 247.923 237.522 247.004C238.764 245.824 238.764 245.824 240.764 245.824C241.032 245.224 241.3 244.623 241.577 244.004C242.783 241.789 243.895 240.612 245.764 238.949C251.29 233.585 255.457 227.17 259.764 220.824C260.322 220.024 260.88 219.223 261.456 218.398C279.482 190.745 282.899 155.499 276.764 123.824C274.556 113.697 270.975 104.332 266.355 95.0619C263.943 90.0405 263.233 86.4062 263.764 80.8243C265.558 78.0143 266.783 76.3149 269.764 74.8243C276.753 74.1254 276.753 74.1254 280.811 76.9298C295.641 90.1782 299.815 122.235 301.577 140.824C303.618 182.838 290.29 223.347 261.28 254.098Z" fill="currentColor"/>
<path d="M83.2348 144.033C83.8364 144.026 84.4381 144.019 85.058 144.012C87.0763 143.995 89.0935 144.012 91.1118 144.03C92.5578 144.025 94.0038 144.018 95.4498 144.009C99.3789 143.991 103.308 144.003 107.237 144.023C111.345 144.039 115.454 144.03 119.563 144.025C126.463 144.021 133.363 144.036 140.263 144.064C148.244 144.095 156.226 144.095 164.207 144.078C171.88 144.063 179.553 144.069 187.226 144.086C190.493 144.093 193.761 144.092 197.029 144.084C200.876 144.077 204.722 144.089 208.569 144.116C209.983 144.122 211.396 144.122 212.809 144.115C214.736 144.107 216.661 144.122 218.588 144.144C219.15 144.136 219.711 144.128 220.29 144.12C222.93 144.175 224.293 144.418 226.405 146.521C227.694 148.748 228.009 149.762 227.976 152.499C227.988 153.47 227.988 153.47 228 154.461C227.389 157.406 226.402 158.48 224.525 160.348C222.443 160.736 220.67 160.883 218.588 160.853C217.986 160.86 217.384 160.867 216.765 160.874C214.746 160.892 212.729 160.882 210.711 160.872C209.265 160.879 207.819 160.887 206.373 160.897C202.444 160.92 198.515 160.917 194.586 160.908C191.308 160.903 188.03 160.91 184.752 160.917C177.021 160.934 169.291 160.93 161.56 160.914C153.578 160.897 145.597 160.913 137.615 160.945C130.767 160.971 123.919 160.978 117.07 160.97C112.978 160.965 108.886 160.967 104.794 160.987C100.947 161.005 97.1003 160.999 93.2533 160.975C91.84 160.97 90.4267 160.974 89.0134 160.986C87.0866 161.002 85.1614 160.987 83.2348 160.965C82.392 160.982 82.392 160.982 81.5322 161C78.6684 160.932 77.5159 160.617 75.4164 158.041C73.955 154.84 73.7543 153.207 74.2299 149.555C76.5814 144.406 78.8478 143.942 83.2348 144.033Z" fill="currentColor"/>
<path d="M142.533 220.265C142.526 219.664 142.519 219.062 142.512 218.442C142.495 216.424 142.512 214.406 142.53 212.388C142.525 210.942 142.518 209.496 142.509 208.05C142.491 204.121 142.503 200.192 142.523 196.263C142.539 192.155 142.53 188.046 142.525 183.937C142.521 177.037 142.536 170.137 142.564 163.237C142.595 155.256 142.595 147.274 142.578 139.293C142.563 131.62 142.569 123.947 142.586 116.274C142.593 113.007 142.592 109.739 142.584 106.471C142.577 102.624 142.589 98.7776 142.616 94.9307C142.622 93.5174 142.622 92.1041 142.615 90.6908C142.607 88.7642 142.622 86.8387 142.644 84.9122C142.636 84.3504 142.628 83.7885 142.62 83.2097C142.675 80.5698 142.918 79.2068 145.021 77.0954C147.248 75.8065 148.262 75.4905 150.999 75.524C151.97 75.5121 151.97 75.5121 152.961 75.5C155.906 76.1113 156.98 77.0984 158.848 78.9746C159.236 81.0574 159.383 82.8304 159.353 84.9122C159.36 85.5139 159.367 86.1155 159.374 86.7354C159.392 88.7536 159.382 90.7711 159.372 92.7892C159.379 94.2352 159.387 95.6812 159.397 97.1272C159.42 101.056 159.417 104.985 159.408 108.914C159.403 112.192 159.41 115.47 159.417 118.748C159.434 126.479 159.43 134.209 159.414 141.94C159.397 149.922 159.413 157.903 159.445 165.885C159.471 172.733 159.478 179.581 159.47 186.43C159.465 190.522 159.467 194.614 159.487 198.706C159.505 202.553 159.499 206.4 159.475 210.247C159.47 211.66 159.474 213.073 159.486 214.487C159.502 216.413 159.487 218.339 159.465 220.265C159.482 221.108 159.482 221.108 159.5 221.968C159.432 224.832 159.117 225.984 156.541 228.084C153.34 229.545 151.707 229.746 148.055 229.27C142.906 226.919 142.442 224.652 142.533 220.265Z" fill="currentColor"/>
</svg>
