<svg width="453" height="360" viewBox="0 0 453 360" fill="none" xmlns="http://www.w3.org/2000/svg">
<path d="M291 75C291.707 75.1235 292.415 75.2471 293.144 75.3745C307.213 77.8879 323.096 82.2163 334 92C334 92.66 334 93.32 334 94C334.557 94.2268 335.114 94.4537 335.687 94.6875C338.657 96.3729 340.743 98.4868 343 101C343.934 102.002 343.934 102.002 344.887 103.023C355.639 115.352 359.635 131.122 359.301 147.269C357.706 167.048 347.505 182.215 335 197C334.206 197.947 333.412 198.895 332.594 199.871C328.715 204.375 328.715 204.375 327 206C326.34 206 325.68 206 325 206C325 206.66 325 207.32 325 208C323.742 209.305 323.742 209.305 321.875 210.875C321.148 211.492 320.421 212.11 319.672 212.746C318.79 213.49 317.908 214.234 317 215C315.9 215.948 314.801 216.897 313.703 217.848C236.05 285 236.05 285 202 285C203.432 280.703 206.662 279.465 210.375 277.25C211.858 276.344 213.341 275.438 214.824 274.531C215.548 274.093 216.271 273.655 217.017 273.203C234.286 262.725 251.038 251.374 267 239C267.604 238.535 268.208 238.07 268.83 237.591C277.427 230.965 285.774 224.079 294 217C294.715 216.386 295.431 215.773 296.168 215.141C302.23 209.891 308.126 204.458 314 199C314.976 198.107 314.976 198.107 315.973 197.195C329.848 184.009 342.733 165.074 343.417 145.542C343.547 131.139 339.293 120.335 329.375 109.812C309.905 91.2728 281.935 88.4838 256.289 88.7929C227.828 89.5135 198.687 96.1195 173.359 109.262C171.265 110.345 169.152 111.396 167.016 112.394C154.732 118.155 143.561 125.991 133.82 135.418C132 137 132 137 130 137C130 137.66 130 138.32 130 139C129.34 139 128.68 139 128 139C127.736 139.586 127.471 140.173 127.199 140.777C125.957 143.08 124.604 144.665 122.812 146.562C108.651 162.461 101.821 182.451 102.617 203.566C103.221 212.492 106.03 219.673 111.828 226.477C113 228 113 228 113 230C113.523 230.242 114.047 230.485 114.586 230.734C117.08 232.042 119.404 233.543 121.767 235.071C148.751 252.193 185.706 255.699 216.913 254.978C218.04 254.955 219.167 254.933 220.328 254.91C221.827 254.866 221.827 254.866 223.356 254.821C226.091 255.006 227.675 255.595 230 257C230.312 259.25 230.312 259.25 230 262C222.966 269.247 212.152 270.999 202.437 271.25C169.835 270.432 125.506 264.525 102 240C101.213 239.209 101.213 239.209 100.41 238.402C88.846 225.833 86.1359 209.302 86.6601 192.801C88.2329 164.934 104.953 141.105 124.625 122.5C135.708 112.819 148.146 104.858 161.128 97.9907C162.897 97.0544 164.654 96.0962 166.41 95.1367C176.225 89.9593 186.471 86.428 197 83C198.073 82.6401 198.073 82.6401 199.167 82.2729C211.833 78.047 224.799 75.863 238 74C239.11 73.8398 239.11 73.8398 240.242 73.6765C256.741 71.5519 274.651 71.9883 291 75Z" fill="#F62D13"/>
</svg>
