<svg width="512" height="512" viewBox="0 0 512 512" fill="none" xmlns="http://www.w3.org/2000/svg">
<g clip-path="url(#clip0_111_43)">
<path d="M103.688 10.7501C105.477 12.1432 107.248 13.5599 109 15.0001C109.831 15.6678 110.663 16.3355 111.52 17.0235C120.532 24.6589 127.573 34.1498 134 44.0001C134.509 43.7682 135.017 43.5363 135.541 43.2974C137.879 42.2349 140.221 41.18 142.562 40.1251C143.362 39.7603 144.162 39.3955 144.986 39.0196C158.465 32.9679 171.381 32.8496 185.902 32.8548C187.596 32.8518 189.291 32.8484 190.986 32.8446C195.564 32.8358 200.143 32.8334 204.721 32.8328C207.588 32.8321 210.455 32.83 213.322 32.8273C223.342 32.8181 233.361 32.814 243.381 32.8148C252.692 32.8154 262.004 32.8048 271.315 32.789C279.334 32.7759 287.353 32.7706 295.372 32.7712C300.15 32.7715 304.929 32.7687 309.707 32.758C314.204 32.7483 318.701 32.7483 323.199 32.7556C324.84 32.7566 326.481 32.7543 328.122 32.7482C346.619 32.684 361.29 36.1136 378 44.0001C378.874 42.7104 378.874 42.7104 379.766 41.3946C391.685 24.0889 405.93 7.78795 427 2.00006C444.627 0.00560179 460.067 4.9376 474.062 15.7501C493.427 31.9582 508.955 55.3593 512 81.0001C513.418 107.377 507.827 127.493 491 148C490.465 148.676 489.93 149.351 489.379 150.047C484.966 155.453 479.805 160.13 474 164C475.844 170.427 477.917 176.76 480.084 183.085C492.006 217.931 500.922 253.333 505 290C505.131 291.158 505.263 292.315 505.398 293.508C507.094 312.156 506.895 331.489 504 350C503.882 350.767 503.763 351.534 503.642 352.324C498.524 383.792 481.435 409.832 457 430C456.154 430.734 455.309 431.467 454.438 432.223C413.535 467.29 362.3 485.321 311.068 499.33C307.853 500.21 304.64 501.099 301.429 501.992C298.293 502.863 295.154 503.724 292.016 504.586C290.884 504.901 289.753 505.215 288.587 505.539C277.954 508.43 267.536 510.358 256.5 510.375C255.672 510.4 254.845 510.424 253.992 510.449C236.904 510.525 219.776 504.771 203.5 500.125C201.689 499.615 199.878 499.106 198.066 498.598C163.872 488.968 163.872 488.968 148.5 483.188C147.358 482.76 146.217 482.333 145.041 481.892C110.813 468.912 78.4527 451.653 51.6641 426.473C49.4935 424.458 47.2868 422.565 45 420.688C20.5866 399.37 9.04736 369.286 6.38672 337.52C2.69119 282.095 16.1897 228.467 34.1481 176.516C35.571 172.374 36.8293 168.218 38 164C37.4805 163.553 36.961 163.105 36.4258 162.645C32.4745 159.219 28.6115 155.788 25 152C24.3323 151.316 23.6645 150.631 22.9766 149.926C8.28304 134.355 -0.652217 115.33 -0.4375 93.8126C-0.429201 92.7247 -0.420903 91.6368 -0.412353 90.5159C0.16238 62.8285 13.5611 38.5827 33.1719 19.4532C53.3639 1.9386 80.4932 -5.44706 103.688 10.7501ZM136.68 172.625C129.993 182.08 128.799 191.777 130 203C132.051 213.154 138.054 221.515 146.5 227.438C156.165 233.276 166.375 235.444 177.523 232.789C189.128 229.092 197.03 222.528 203 212C205.119 207.377 206.196 202.017 205 197C201.118 191.125 195.804 188 189.875 184.375C188.91 183.774 187.946 183.173 186.952 182.554C184.957 181.311 182.96 180.072 180.961 178.837C178.118 177.073 175.291 175.289 172.469 173.492C171.609 172.945 170.749 172.398 169.864 171.835C168.24 170.801 166.616 169.766 164.992 168.732C164.26 168.269 163.528 167.805 162.773 167.328C161.821 166.723 161.821 166.723 160.849 166.107C150.69 160.027 143.735 164.096 136.68 172.625ZM350.812 166.188C350.229 166.536 349.646 166.884 349.045 167.242C340.993 172.111 333.138 177.311 325.288 182.496C323.266 183.825 321.235 185.136 319.195 186.438C317.614 187.458 317.614 187.458 316 188.5C314.67 189.351 314.67 189.351 313.312 190.219C310.158 192.648 307.549 195.142 306.398 199.035C306.293 208.121 311.098 216.327 317 223C326.465 230.888 336.143 234.823 348.574 233.785C359.012 232.065 368.584 226.958 374.914 218.418C381.527 208.472 383.37 198.828 382 187C379.758 177.65 374.122 169.237 366.16 163.727C360.258 161.742 355.962 163.085 350.812 166.188ZM198 265C196.115 266.95 194.354 268.936 192.633 271.031C191.51 272.386 190.333 273.697 189.117 274.969C169.229 295.871 162.244 324.194 162.754 352.336C163.339 369.794 168.552 386.902 179 401C179.718 401.975 180.436 402.949 181.176 403.953C190.048 415.28 201.049 423.76 214 430C215.174 430.585 216.349 431.171 217.559 431.773C236.415 441.008 255.736 445.542 276.27 439.336C282.408 437.138 288.352 434.595 294.25 431.82C295.761 431.112 297.284 430.43 298.809 429.754C305.916 426.468 311.898 421.865 318 417C318.722 416.446 319.444 415.891 320.188 415.32C334.183 403.977 342.7 387.202 347 370C347.226 369.118 347.451 368.237 347.684 367.328C353.497 339.582 346.748 310.964 332.242 287.109C328.637 281.778 324.487 277.025 320.117 272.309C318.348 270.38 316.7 268.414 315.062 266.375C311.256 261.922 306.683 258.484 302 255C300.656 253.973 300.656 253.973 299.285 252.926C265.902 228.884 226.442 239.125 198 265Z" fill="currentColor"/>
<path d="M220.714 275.58C221.979 275.567 221.979 275.567 223.269 275.555C226.04 275.531 228.811 275.53 231.582 275.531C233.521 275.524 235.46 275.517 237.399 275.508C241.458 275.495 245.517 275.493 249.576 275.499C254.758 275.505 259.939 275.474 265.12 275.434C269.124 275.408 273.128 275.405 277.132 275.409C279.041 275.407 280.95 275.398 282.859 275.38C303.749 275.206 303.749 275.206 311.912 282.772C317.333 288.457 318.201 294.213 318.559 301.828C316.463 313.725 307.455 321.167 299.188 329.188C297.928 330.431 296.669 331.675 295.412 332.92C290.54 337.726 285.662 342.506 280.488 346.988C279.891 347.511 279.294 348.033 278.679 348.571C277.547 349.535 276.386 350.466 275.201 351.365C272.567 353.552 271.189 355.008 270.536 358.437C270.41 361.275 270.475 364.038 270.625 366.875C270.652 367.85 270.679 368.824 270.707 369.828C270.777 372.221 270.876 374.609 271 377C271.705 377.388 272.41 377.775 273.136 378.174C276.386 379.964 279.63 381.763 282.875 383.563C283.984 384.172 285.092 384.781 286.234 385.408C305.776 396.271 305.776 396.271 308 402C308.579 406.201 308.467 409.893 306.812 413.813C303.576 417.719 301.231 419.672 296.25 421C286.244 421.742 276.098 413.048 267.991 408.038C266.291 406.991 264.575 405.968 262.859 404.945C261.854 404.332 260.848 403.719 259.812 403.087C257.066 401.711 257.066 401.711 254.386 402.68C253.599 403.116 252.811 403.551 252 404C251.325 404.347 250.65 404.693 249.955 405.05C249.297 405.42 248.639 405.79 247.961 406.172C246.851 406.794 246.851 406.794 245.718 407.428C244.945 407.864 244.172 408.301 243.375 408.75C242.575 409.196 241.776 409.642 240.952 410.101C237.494 412.03 234.047 413.973 230.621 415.957C221.61 421.108 221.61 421.108 216 421C211.362 419.506 208.089 417.801 205 414C204.105 411.315 203.779 409.472 203.688 406.688C203.65 405.949 203.613 405.21 203.574 404.449C204.375 399.841 207.018 396.717 210.73 394.005C211.753 393.434 212.777 392.862 213.832 392.274C214.961 391.634 216.089 390.995 217.252 390.336C218.439 389.682 219.625 389.028 220.812 388.375C221.988 387.715 223.163 387.053 224.338 386.391C226.572 385.135 228.809 383.884 231.049 382.64C234.383 380.787 237.694 378.901 241 377C242.812 363.995 242.812 363.995 238.609 352.18C236.2 349.618 233.549 347.428 230.739 345.32C223.572 339.881 217.179 333.454 210.79 327.14C209.761 326.128 208.728 325.122 207.689 324.121C200.859 317.539 195.29 311.68 193.434 302.067C193.445 294.436 195.331 288.203 200.422 282.371C206.539 276.862 212.828 275.551 220.714 275.58Z" fill="currentColor"/>
</g>
<defs>
<clipPath id="clip0_111_43">
<rect width="512" height="512" fill="white"/>
</clipPath>
</defs>
</svg>
