<svg width="512" height="512" viewBox="0 0 512 512" fill="none" xmlns="http://www.w3.org/2000/svg">
<g clip-path="url(#clip0_10_17)">
<path d="M145.187 6.68749C159.61 16.0292 168.908 28.4547 172.75 45.2851C173.651 50.3336 174 54.8311 174 60C193.47 60 212.94 60 233 60C233 56.37 233 52.74 233 49C234.737 34.344 242.098 21.7888 253 12C267.472 1.07682 282.281 -1.6375 300 -1.39475e-05C314.978 2.59092 327.96 11.2442 336.812 23.5117C343.953 34.8829 347.432 46.5954 347 60C347.895 60.1701 348.789 60.3403 349.711 60.5156C369.355 64.4529 384.957 73.3564 396.301 90.207C404.835 104.235 407.473 117.994 407.341 134.245C407.34 135.725 407.34 137.205 407.342 138.685C407.343 142.659 407.325 146.633 407.304 150.607C407.285 154.777 407.284 158.946 407.28 163.115C407.271 170.992 407.246 178.868 407.216 186.744C407.182 195.718 407.166 204.693 407.151 213.668C407.12 232.112 407.067 250.556 407 269C407.904 269.092 407.904 269.092 408.827 269.186C410.025 269.312 410.025 269.312 411.248 269.441C412.431 269.564 412.431 269.564 413.637 269.689C417.22 270.161 420.609 271.082 424.062 272.125C424.787 272.342 425.512 272.56 426.258 272.784C442.778 277.92 456.771 285.825 470 297C470.824 297.677 471.647 298.354 472.496 299.051C477.36 303.202 481.628 307.65 485.625 312.625C486.282 313.414 486.282 313.414 486.953 314.219C490.024 318.199 490.559 321.05 490 326C488.5 328.438 488.5 328.438 486 330C481.233 331.131 481.233 331.131 478 330C474.552 327.026 471.807 323.572 469 320C453.39 300.406 428.786 288.701 404.258 285.359C402 285 402 285 400 284C400.062 285.655 400.062 285.655 400.125 287.344C400.125 292.545 399.09 297.433 398 302.5C397.809 303.418 397.618 304.336 397.422 305.281C396.955 307.522 396.481 309.762 396 312C396.626 312.338 397.253 312.675 397.898 313.023C398.716 313.469 399.533 313.915 400.375 314.375C401.187 314.816 401.999 315.257 402.836 315.711C405 317 405 317 407 319C407.67 325.927 407.67 325.927 405.437 329.5C401.628 331.844 398.279 331.523 393.992 330.539C392.315 330.071 390.655 329.541 389 329C388.66 330.237 388.66 330.237 388.312 331.5C386.938 335.166 385.158 337.98 382.926 341.168C382.62 341.773 382.315 342.377 382 343C382.782 346.277 382.782 346.277 386 348.312C388.43 350.262 388.972 350.921 390.062 354C389.986 357.683 389.403 359.21 387 362C383.715 363.643 381.955 364.25 378.375 363.312C376.07 362.039 374.04 360.662 372 359C368.159 360.509 366.512 362.803 364 366C362.366 367.374 360.707 368.719 359 370C360.027 372.765 360.991 374.987 362.75 377.375C364 380 364 380 363.5 383.625C362 387 362 387 359.75 389C356.161 390.305 354.604 390.324 351 389C348.744 386.847 346.847 384.508 345 382C341.209 383.427 337.729 385.162 334.187 387.125C333.212 387.664 332.236 388.203 331.23 388.758C330.494 389.168 329.758 389.578 329 390C329.33 390.846 329.66 391.691 330 392.562C331.094 396.322 331.432 399.107 331 403C329.5 405.438 329.5 405.438 327 407C324.194 407.61 321.8 407.663 319 407C315.447 403.821 314.418 400.452 313 396C312.163 396.205 311.327 396.41 310.465 396.621C301.568 398.68 293.114 399.63 284 400C284.634 403.01 285.302 406.005 286 409C286.385 410.653 286.385 410.653 286.777 412.34C293.964 441.242 309.765 465.56 335.523 481.184C349.635 489.339 364.993 493.514 381 496C381.164 494.351 381.164 494.351 381.332 492.668C382.224 484.199 383.363 476.14 386 468C385.385 467.83 384.77 467.66 384.137 467.484C377.595 465.523 377.595 465.523 374.937 463.188C373.635 460.149 373.465 458.276 374 455C375.937 452.062 375.937 452.062 379 450C383.806 449.658 387.799 450.704 392 453C392.34 451.793 392.34 451.793 392.687 450.562C394.096 446.739 395.951 443.514 398.074 440.051C399.335 437.875 399.335 437.875 398 435C396.484 433.917 396.484 433.917 394.937 432.812C392.993 431.266 392.125 430.456 391.465 428.039C391.32 424.661 391.773 422.363 393.562 419.5C396.979 417.398 399.046 417.455 403 418C406.437 420 406.437 420 409 422C412.681 420.464 414.988 418.218 417.75 415.375C418.549 414.558 419.348 413.74 420.172 412.898C420.775 412.272 421.378 411.645 422 411C420.875 408.028 419.777 405.666 418 403C417.581 399.163 417.454 396.888 419.5 393.562C422.331 391.793 424.613 391.263 427.961 391.395C431.819 392.54 433.83 395.778 436 399C440.796 397.647 444.782 395.533 449.047 393.023C451 392 451 392 453 392C452.505 390.969 452.01 389.938 451.5 388.875C450.045 385.405 449.34 382.795 450 379C452.456 375.677 453.926 374.224 458 373.375C462.094 374.228 463.472 375.7 466 379C466.718 381.318 467.391 383.651 468 386C469.524 385.584 469.524 385.584 471.078 385.16C479.415 382.946 487.349 381.409 496 381C495.849 380.35 495.697 379.701 495.541 379.031C494.85 376.044 494.175 373.053 493.5 370.062C493.261 369.041 493.023 368.019 492.777 366.967C491.408 360.846 490.452 355.274 491 349C492.906 346.598 493.874 346.038 496.875 345.125C500.741 344.97 502.079 345.474 505 348C515.713 370.231 515.304 401.765 508 425C507.786 425.689 507.571 426.378 507.351 427.088C497.079 458.995 474.802 484.519 445.234 500.012C428.162 508.572 410.103 512.401 391.062 512.375C390.383 512.374 389.703 512.374 389.003 512.373C361.3 512.272 335.992 503.892 314.195 486.688C313.415 486.078 313.415 486.078 312.619 485.456C311 484 311 484 309.524 482.021C306.038 477.879 302.737 475.863 297.375 475.265C291.284 474.886 285.192 474.979 279.093 475.048C276.742 475.045 274.391 475.039 272.039 475.029C266.984 475.016 261.93 475.029 256.875 475.061C249.55 475.107 242.226 475.109 234.901 475.097C222.993 475.079 211.086 475.095 199.179 475.134C187.654 475.172 176.129 475.201 164.603 475.214C163.894 475.215 163.185 475.216 162.455 475.217C154.699 475.225 146.943 475.23 139.186 475.229C138.503 475.229 137.819 475.229 137.115 475.228C134.38 475.228 131.645 475.228 128.911 475.227C120.29 475.224 111.669 475.239 103.048 475.274C98.0902 475.291 93.1325 475.297 88.1747 475.299C85.8879 475.303 83.6011 475.312 81.3144 475.327C50.9129 475.519 50.9129 475.519 37.625 468.25C36.6264 467.726 36.6264 467.726 35.6076 467.192C30.2827 464.324 25.4978 461.057 21 457C20.1028 456.24 20.1028 456.24 19.1875 455.465C8.75068 445.983 0.819612 430.349 -0.203197 416.187C-0.296438 412.9 -0.329609 409.617 -0.335979 406.328C-0.345964 404.528 -0.345964 404.528 -0.356151 402.692C-0.366238 400.167 -0.370969 397.642 -0.370647 395.118C-0.375043 391.249 -0.411469 387.381 -0.44926 383.512C-0.455124 381.055 -0.459096 378.598 -0.460979 376.141C-0.47535 374.983 -0.489721 373.826 -0.504528 372.634C-0.498374 371.559 -0.492221 370.484 -0.485881 369.376C-0.488731 368.432 -0.491581 367.488 -0.494518 366.515C0.153223 363.22 1.37394 362.034 3.99996 360C7.77964 359.46 9.96803 359.309 13.185 361.463C15.876 365.224 15.5657 368.566 15.539 373.086C15.5508 373.979 15.5626 374.873 15.5748 375.793C15.61 378.654 15.6192 381.514 15.625 384.375C15.7562 406.862 15.933 426.411 31.8046 444C42.7975 454.568 56.9321 458.342 71.7823 458.241C72.7138 458.242 73.6452 458.244 74.6049 458.246C77.6971 458.249 80.7891 458.238 83.8813 458.227C86.1094 458.226 88.3374 458.227 90.5655 458.228C96.5936 458.229 102.622 458.217 108.65 458.203C114.957 458.19 121.265 458.189 127.572 458.187C138.152 458.181 148.732 458.169 159.312 458.151C170.205 458.132 181.098 458.118 191.992 458.11C193 458.109 193 458.109 194.029 458.108C197.403 458.106 200.777 458.103 204.15 458.101C232.1 458.08 260.05 458.045 288 458C287.445 457.107 286.889 456.213 286.317 455.293C285.585 454.109 284.852 452.926 284.12 451.743C283.754 451.155 283.389 450.568 283.012 449.962C267.866 425.455 263.732 391.86 269.973 363.992C270.305 362.659 270.648 361.328 271 360C271.188 359.29 271.376 358.58 271.57 357.849C275.748 342.765 282.664 328.565 292 316C291.278 315.917 290.556 315.835 289.812 315.75C285.773 314.673 283.286 312.879 280.904 309.4C277.7 303.582 277.429 298.52 277.504 291.965C277.502 290.927 277.501 289.89 277.499 288.821C277.501 286.638 277.513 284.456 277.533 282.273C277.562 278.944 277.554 275.616 277.541 272.287C277.547 270.159 277.556 268.031 277.566 265.902C277.563 264.914 277.56 263.925 277.557 262.906C277.655 255.71 278.592 250.778 283.437 245.187C287.377 241.825 290.042 240.753 295.224 240.709C296.266 240.697 297.307 240.684 298.38 240.671C299.5 240.669 300.62 240.666 301.773 240.664C302.93 240.657 304.086 240.651 305.278 240.644C307.724 240.634 310.17 240.629 312.616 240.629C316.354 240.625 320.091 240.589 323.828 240.551C326.206 240.545 328.583 240.541 330.961 240.539C332.077 240.525 333.192 240.51 334.342 240.495C340.553 240.532 344.295 240.808 349 245C352.752 249.157 354.133 252.099 354.098 257.668C354.094 258.561 354.091 259.453 354.088 260.373C354.079 261.302 354.071 262.231 354.062 263.188C354.058 264.128 354.053 265.068 354.049 266.037C354.037 268.358 354.021 270.679 354 273C355.611 272.584 355.611 272.584 357.254 272.16C358.69 271.794 360.126 271.428 361.562 271.062C362.267 270.88 362.971 270.698 363.697 270.51C373.131 268.119 380.902 268 391 268C391 246.88 391 225.76 391 204C266.92 204 142.84 204 15 204C15 247.89 15 291.78 15 337C9.99996 341 9.99996 341 6.37496 340.938C3.01965 340.005 2.06183 339.634 -4.14252e-05 337C-0.299406 334.049 -0.41317 331.309 -0.394451 328.357C-0.400542 327.463 -0.406638 326.569 -0.412914 325.649C-0.429619 322.641 -0.424752 319.634 -0.419963 316.626C-0.4273 314.474 -0.435885 312.323 -0.445629 310.171C-0.467912 304.313 -0.470773 298.455 -0.468883 292.596C-0.468763 287.702 -0.477314 282.807 -0.485652 277.912C-0.504916 266.352 -0.507768 254.792 -0.501018 243.231C-0.494396 231.329 -0.517163 219.428 -0.554332 207.526C-0.585111 197.297 -0.596379 187.068 -0.592494 176.84C-0.590433 170.736 -0.595811 164.632 -0.620387 158.528C-0.642782 152.775 -0.640675 147.023 -0.620464 141.27C-0.617075 139.169 -0.622044 137.068 -0.63644 134.967C-0.766966 114.49 3.04731 96.6665 17.6718 81.3398C18.4401 80.5677 19.2084 79.7955 20 79C20.6651 78.3 21.3303 77.6001 22.0156 76.8789C31.4282 67.6638 46.5885 60 60 60C59.9536 59.224 59.9071 58.448 59.8593 57.6484C59.3367 42.0058 64.1948 29.6056 74.25 17.8125C92.5056 -1.59935 121.815 -6.26104 145.187 6.68749ZM83.3476 31.9726C78.6754 39.0013 75.8372 46.3301 75.9375 54.75C75.9581 56.4825 75.9787 58.215 76 60C80.62 60 85.24 60 90 60C90.3403 57.03 90.3403 57.03 90.6875 54C92.0713 45.149 95.3525 40.0115 102.059 34.2265C108.725 30.0145 116.405 30.2054 124 31C131.513 33.1595 136.11 37.3264 140 44C143.309 50.4604 143.145 57.7868 143.211 64.8906C143.239 66.5859 143.268 68.2812 143.297 69.9765C143.338 72.6253 143.375 75.2739 143.401 77.9228C143.429 80.4958 143.475 83.068 143.523 85.6406C143.527 86.4344 143.53 87.2281 143.533 88.0459C143.605 92.2495 143.605 92.2495 145.311 95.999C148.205 97.7141 150.741 97.3491 154 97C156.616 95.1688 156.97 94.0903 158 91C158.109 88.3971 158.164 85.8219 158.168 83.2187C158.171 82.45 158.175 81.6813 158.178 80.8893C158.183 79.2585 158.185 77.6278 158.185 75.9971C158.187 73.5369 158.206 71.0772 158.225 68.6172C158.287 51.7451 156.367 38.8949 144.324 26.1953C141.12 23.1688 137.966 20.9095 134 19C133.372 18.6829 132.744 18.3658 132.098 18.039C114.463 10.6603 94.9384 17.7344 83.3476 31.9726ZM258.031 30.25C251.164 39.3285 248.335 48.6938 249 60C253.62 60 258.24 60 263 60C263.247 58.185 263.495 56.37 263.75 54.5C265.158 46.2487 267.43 40.4516 274.172 35.2539C281.386 30.306 288.375 29.9926 297 31C303.935 33.0888 309.164 36.8695 313 43C317.854 53.0416 316.442 65.3055 316.436 76.1577C316.439 78.8425 316.467 81.5263 316.496 84.2109C316.488 85.0339 316.48 85.8568 316.471 86.7047C316.519 90.3399 316.663 92.5401 318.844 95.5141C320.99 97.2082 320.99 97.2082 324 97.5625C327.108 97.2554 327.108 97.2554 329.156 95.0022C331.54 91.121 331.559 87.8196 331.496 83.4023C331.498 82.1572 331.498 82.1572 331.5 80.8868C331.499 79.131 331.487 77.3751 331.467 75.6194C331.438 72.9702 331.446 70.3231 331.459 67.6738C331.44 51.8759 329.378 38.8276 318.375 26.75C308.893 17.7254 297.992 15.4133 285.406 15.6601C274.586 16.2202 265.045 22.2337 258.031 30.25ZM107 51C106.67 53.97 106.34 56.94 106 60C113.26 60 120.52 60 128 60C126.959 50.7691 126.959 50.7691 123.875 47.375C117.014 44.0937 111.852 45.2007 107 51ZM281 50C278.469 53.6157 279 55.0855 279 60C286.26 60 293.52 60 301 60C300.302 52.2155 300.302 52.2155 296 47C290.322 44.1611 285.15 45.6062 281 50ZM26.9921 95.1601C6.58547 119.498 15 161.636 15 188C139.08 188 263.16 188 391 188C395.71 134.052 395.71 134.052 374.922 89.5859C367.508 83.0241 357.18 76.4012 347 77C346.963 78.1344 346.925 79.2687 346.887 80.4375C346.117 99.5601 346.117 99.5601 338.645 107.523C333.146 112.46 327.274 112.544 320.156 112.34C314.628 111.745 310.989 110.168 307.219 106.059C299.476 96.1426 301.734 91.421 301 76C259.09 76 217.18 76 174 76C173.67 81.61 173.34 87.22 173 93C171.131 101.066 168.023 106.455 160.937 110.937C154.322 113.29 145.905 113.28 139.5 110.375C134.187 107.203 130.991 102.854 129 97C128.681 94.5046 128.681 94.5046 128.586 91.918C128.547 90.9866 128.509 90.0553 128.469 89.0957C128.438 88.136 128.407 87.1763 128.375 86.1875C128.336 85.2084 128.298 84.2294 128.258 83.2207C128.164 80.814 128.078 78.4073 128 76C119.324 75.9301 110.648 75.877 101.972 75.8446C97.9418 75.829 93.9122 75.8079 89.8825 75.7737C85.9857 75.7408 82.089 75.7231 78.192 75.7154C76.7134 75.7099 75.2348 75.6991 73.7563 75.6828C54.2126 75.4757 40.3979 80.7373 26.9921 95.1601ZM294 258C293.709 259.898 293.709 259.898 293.773 262.083C293.773 262.923 293.773 263.764 293.773 264.63C293.784 265.539 293.794 266.447 293.805 267.383C293.807 268.312 293.81 269.242 293.813 270.199C293.824 273.175 293.85 276.15 293.875 279.125C293.885 281.139 293.894 283.154 293.902 285.168C293.924 290.112 293.959 295.056 294 300C298.079 302.04 302.595 301.801 307 301C309.497 299.359 311.386 297.488 313.484 295.363C316.463 292.565 319.62 290.431 323.062 288.25C323.628 287.886 324.194 287.522 324.777 287.147C329.088 284.43 333.393 282.303 338 280C338 272.41 338 264.82 338 257C334.634 255.317 330.828 255.837 327.125 255.832C326.245 255.829 325.364 255.825 324.457 255.822C322.595 255.817 320.732 255.815 318.869 255.815C316.012 255.813 313.154 255.794 310.297 255.775C308.49 255.772 306.682 255.77 304.875 255.77C304.017 255.762 303.158 255.755 302.274 255.748C297.658 255.549 297.658 255.549 294 258ZM312.655 316.927C296.313 334.057 283.523 359.919 284 384C295.138 383.361 295.138 383.361 306 381C307.333 378 307.333 378 306 375C305.629 371.464 305.368 368.189 307.062 365C310.132 363.416 312.617 363.638 316 364C319.487 366.117 320.556 370.356 322 374C326.827 372.587 330.716 370.57 335 368C334.627 367.42 334.255 366.84 333.871 366.242C330.016 359.877 330.016 359.877 329.937 355.625C331.209 352.483 331.893 351.39 335 350C338.481 349.937 340.901 350.005 343.562 352.414C344.786 353.881 345.902 355.436 347 357C351.292 355.349 353.879 352.262 357 349C355.944 346.449 355.305 345.194 352.937 343.688C351 342 351 342 349.937 338.625C350 335 350 335 352 332C355 330 355 330 358.437 329.938C362.389 331.116 364.738 332.534 368 335C369.005 333.211 370.004 331.419 371 329.625C371.557 328.627 372.114 327.63 372.687 326.602C374.15 324.188 374.15 324.188 374 322C373.362 321.734 372.724 321.469 372.066 321.195C371.24 320.842 370.414 320.489 369.562 320.125C368.739 319.777 367.915 319.429 367.066 319.07C365 318 365 318 364 316C363.554 309.865 363.554 309.865 365 307.062C369.459 304.694 375.269 305.817 380 307C381.585 303.369 382.491 299.97 383.125 296.062C383.293 295.063 383.46 294.064 383.633 293.035C384.001 289.991 384.064 287.063 384 284C357.123 283.223 330.952 298.412 312.655 316.927ZM485.562 398.438C484.397 398.64 484.397 398.64 483.209 398.846C482.461 398.978 481.712 399.11 480.941 399.246C480.258 399.367 479.574 399.487 478.869 399.611C476.786 400.007 476.786 400.007 474 401C474.351 402.011 474.701 403.021 475.062 404.062C476.176 407.947 475.931 411.042 475 415C473 417 473 417 469.062 417.312C466.611 417.233 465.317 417.186 463.187 415.938C461.436 413.079 460.235 410.118 459 407C455.04 408.98 451.08 410.96 447 413C448.725 417.811 448.725 417.811 451 421C451.462 424.616 451.454 426.336 449.375 429.375C446.25 431.513 444.718 431.683 441 431C438.375 428.625 438.375 428.625 436 426C434.68 425.34 433.36 424.68 432 424C429.36 426.64 426.72 429.28 424 432C425.711 436.028 425.711 436.028 428.625 438.375C431 441 431 441 431.562 444.062C430.865 447.707 430.056 448.909 427 451C421.692 451.923 419.27 449.942 415 447C411.803 447.69 411.803 447.69 410.613 450.504C410.184 451.513 409.755 452.523 409.312 453.562C408.875 454.574 408.438 455.586 407.988 456.629C407.499 457.803 407.499 457.803 407 459C407.638 459.266 408.276 459.531 408.934 459.805C409.76 460.158 410.586 460.511 411.437 460.875C412.261 461.223 413.085 461.571 413.934 461.93C416 463 416 463 417 465C417.279 467.934 417.481 470.154 417 473C415.187 475.125 415.187 475.125 412 476C408.256 475.627 404.653 474.889 401 474C398.998 481.329 397.487 488.409 397 496C424.744 495.064 449.826 482.184 468.973 462.332C484.026 445.017 497.044 420.498 496 397C492.477 397 489.023 397.823 485.562 398.438Z" fill="black"/>
<path d="M69.9171 345.71C70.892 345.697 71.8669 345.684 72.8714 345.671C74.4433 345.668 74.4433 345.668 76.047 345.664C77.6747 345.654 77.6747 345.654 79.3353 345.644C81.6318 345.634 83.9282 345.629 86.2247 345.629C89.7232 345.625 93.2205 345.589 96.7188 345.551C98.9532 345.545 101.188 345.541 103.422 345.539C104.462 345.525 105.502 345.51 106.573 345.496C112.813 345.534 117.995 346.007 123 350C128.64 355.816 128.725 362.168 128.629 369.91C128.631 371.037 128.634 372.163 128.636 373.323C128.635 375.694 128.622 378.065 128.597 380.436C128.563 384.055 128.576 387.672 128.596 391.291C128.589 393.602 128.579 395.912 128.566 398.223C128.574 399.837 128.574 399.837 128.582 401.484C128.482 407.86 127.828 411.83 124 417C119.427 420.547 115.925 422.111 110.181 422.177C109.203 422.19 108.224 422.203 107.216 422.216C106.16 422.223 105.104 422.231 104.016 422.238C102.927 422.246 101.838 422.255 100.716 422.263C98.4092 422.277 96.1026 422.287 93.796 422.295C90.2777 422.312 86.7603 422.356 83.2423 422.4C81.0001 422.411 78.7579 422.419 76.5157 422.426C75.4676 422.443 74.4194 422.461 73.3395 422.479C66.9837 422.46 63.1779 421.763 58.0001 418C51.9881 411.663 51.6915 405.865 51.6993 397.512C51.695 396.495 51.6907 395.477 51.6863 394.429C51.6806 392.28 51.6801 390.131 51.6844 387.982C51.6876 384.71 51.6641 381.438 51.6387 378.166C51.6365 376.073 51.6358 373.98 51.6368 371.887C51.6276 370.916 51.6184 369.945 51.6089 368.944C51.6508 362.732 51.9806 356.33 56.3812 351.477C60.6812 347.742 64.2405 345.76 69.9171 345.71ZM68.0001 363C67.8989 366.091 67.8604 369.159 67.8673 372.25C67.8663 373.179 67.8654 374.107 67.8644 375.064C67.8637 377.031 67.8655 378.998 67.8697 380.965C67.8751 383.987 67.8698 387.009 67.8634 390.031C67.864 391.938 67.8653 393.844 67.8673 395.75C67.8652 396.66 67.8632 397.571 67.8611 398.509C67.4612 402.577 67.4612 402.577 69.0001 406C70.351 406.093 71.7067 406.118 73.0609 406.114C73.9338 406.113 74.8067 406.113 75.706 406.113C76.6293 406.108 77.5527 406.103 78.504 406.098C79.3483 406.097 80.1926 406.096 81.0625 406.095C84.2292 406.089 87.3959 406.075 90.5626 406.063C97.637 406.042 104.711 406.021 112 406C112 391.48 112 376.96 112 362C104.926 361.979 97.8513 361.959 90.5626 361.938C88.3268 361.928 86.091 361.919 83.7874 361.91C82.0263 361.907 80.2651 361.905 78.504 361.902C77.119 361.895 77.119 361.895 75.706 361.887C74.8331 361.887 73.9602 361.887 73.0609 361.887C71.9184 361.883 71.9184 361.883 70.7528 361.88C68.972 361.809 68.972 361.809 68.0001 363Z" fill="black"/>
<path d="M182.917 345.71C183.892 345.697 184.867 345.684 185.871 345.671C187.443 345.668 187.443 345.668 189.047 345.664C190.675 345.654 190.675 345.654 192.335 345.644C194.632 345.634 196.928 345.629 199.225 345.629C202.723 345.625 206.221 345.589 209.719 345.551C211.953 345.545 214.188 345.541 216.422 345.539C217.462 345.525 218.502 345.51 219.573 345.496C225.813 345.534 230.996 346.007 236 350C241.621 355.805 241.737 362.149 241.664 369.875C241.669 370.999 241.674 372.123 241.679 373.281C241.682 375.648 241.673 378.014 241.652 380.381C241.625 383.989 241.652 387.595 241.684 391.203C241.68 393.511 241.674 395.818 241.664 398.125C241.679 399.732 241.679 399.732 241.695 401.371C241.591 408.049 240.771 413.075 236 418C230.16 422.641 223.704 422.588 216.527 422.531C215.446 422.535 214.364 422.539 213.249 422.543C210.972 422.546 208.695 422.538 206.419 422.522C202.945 422.5 199.472 422.521 195.998 422.547C193.779 422.544 191.559 422.539 189.34 422.531C188.307 422.539 187.275 422.548 186.211 422.556C179.924 422.475 176.132 421.704 171 418C164.938 411.611 164.683 405.716 164.664 397.293C164.654 395.734 164.654 395.734 164.644 394.143C164.634 391.947 164.629 389.751 164.629 387.555C164.625 384.21 164.589 380.866 164.551 377.522C164.545 375.383 164.541 373.244 164.539 371.106C164.525 370.113 164.51 369.12 164.496 368.097C164.536 361.894 165.422 357.163 169 352C173.275 347.939 177 345.762 182.917 345.71ZM181 363C180.899 366.091 180.86 369.159 180.867 372.25C180.866 373.179 180.865 374.107 180.864 375.064C180.864 377.031 180.866 378.998 180.87 380.965C180.875 383.987 180.87 387.009 180.863 390.031C180.864 391.938 180.865 393.844 180.867 395.75C180.865 396.66 180.863 397.571 180.861 398.509C180.461 402.577 180.461 402.577 182 406C183.351 406.093 184.707 406.118 186.061 406.114C186.934 406.113 187.807 406.113 188.706 406.113C189.629 406.108 190.553 406.103 191.504 406.098C192.348 406.097 193.193 406.096 194.062 406.095C197.229 406.089 200.396 406.075 203.563 406.063C210.637 406.042 217.711 406.021 225 406C225 391.48 225 376.96 225 362C217.926 361.979 210.851 361.959 203.563 361.938C201.327 361.928 199.091 361.919 196.787 361.91C195.026 361.907 193.265 361.905 191.504 361.902C190.119 361.895 190.119 361.895 188.706 361.887C187.833 361.887 186.96 361.887 186.061 361.887C184.918 361.883 184.918 361.883 183.753 361.88C181.972 361.809 181.972 361.809 181 363Z" fill="black"/>
<path d="M68.9969 240.823C70.0385 240.81 71.0801 240.797 72.1532 240.784C73.2834 240.777 74.4136 240.769 75.578 240.762C76.7373 240.754 77.8966 240.746 79.0911 240.737C81.5491 240.723 84.0071 240.713 86.4652 240.705C90.2206 240.688 93.9751 240.644 97.7303 240.6C100.117 240.59 102.504 240.581 104.89 240.574C106.574 240.548 106.574 240.548 108.291 240.521C114.521 240.539 118.287 240.781 123 245C126.674 249.171 128.118 251.484 128.177 256.997C128.196 258.56 128.196 258.56 128.216 260.153C128.223 261.284 128.231 262.414 128.238 263.578C128.246 264.738 128.254 265.897 128.263 267.091C128.276 269.549 128.287 272.007 128.295 274.465C128.312 278.221 128.356 281.975 128.4 285.731C128.41 288.117 128.419 290.504 128.426 292.891C128.443 294.013 128.461 295.135 128.479 296.291C128.461 302.526 128.206 306.274 124 311C117.589 317.073 110.995 317.309 102.598 317.301C101.602 317.305 100.606 317.309 99.5795 317.314C97.4792 317.32 95.3788 317.32 93.2784 317.316C90.0765 317.313 86.8755 317.336 83.6737 317.361C81.6275 317.364 79.5812 317.364 77.535 317.363C76.1081 317.377 76.1081 317.377 74.6525 317.391C67.6222 317.343 62.8239 316.311 57.2498 311.75C51.9278 305.245 51.5506 299.401 51.6014 291.281C51.5971 289.756 51.5971 289.756 51.5927 288.2C51.5907 286.059 51.5962 283.917 51.6087 281.776C51.6248 278.51 51.6089 275.246 51.5897 271.981C51.5917 269.893 51.5955 267.806 51.6014 265.719C51.5923 264.264 51.5923 264.264 51.583 262.779C51.6497 256.31 52.2715 251.05 56.7538 246.039C57.3506 245.572 57.9474 245.106 58.5623 244.625C59.1618 244.143 59.7612 243.661 60.3788 243.164C63.3806 241.009 65.3406 240.862 68.9969 240.823ZM67.9998 258C67.7084 261.099 67.6041 263.994 67.6366 267.094C67.6361 267.996 67.6356 268.899 67.6351 269.829C67.6374 271.738 67.6471 273.648 67.6637 275.558C67.6873 278.488 67.6842 281.418 67.6776 284.348C67.6832 286.201 67.6903 288.053 67.6991 289.906C67.6982 290.787 67.6972 291.667 67.6963 292.574C67.5263 297.27 67.5263 297.27 69.9998 301C73.0734 301.188 76.0553 301.256 79.1288 301.231C80.486 301.23 80.486 301.23 81.8707 301.229C83.7848 301.226 85.6988 301.218 87.6129 301.206C90.5538 301.188 93.4944 301.185 96.4354 301.186C98.2915 301.181 100.148 301.175 102.004 301.168C102.889 301.167 103.775 301.166 104.687 301.165C108.661 301.531 108.661 301.531 112 300C112.093 298.649 112.117 297.293 112.113 295.939C112.113 295.078 112.113 294.218 112.113 293.331C112.105 291.928 112.105 291.928 112.098 290.496C112.095 289.067 112.095 289.067 112.093 287.608C112.088 284.551 112.075 281.494 112.062 278.438C112.057 276.371 112.053 274.303 112.049 272.236C112.038 267.158 112.02 262.079 112 257C108.695 255.348 105.012 255.837 101.379 255.832C100.095 255.827 100.095 255.827 98.7857 255.822C96.9742 255.817 95.1627 255.815 93.3512 255.815C90.577 255.813 87.8032 255.794 85.0291 255.775C83.2707 255.773 81.5122 255.771 79.7538 255.77C78.9224 255.762 78.0911 255.755 77.2346 255.748C73.3083 255.763 71.3406 255.773 67.9998 258Z" fill="black"/>
<path d="M233.688 240.25C236.558 240.535 237.736 240.8 240.062 242.562C241.602 246.564 241.816 250.135 240.065 254.137C238.701 256.562 237.25 258.907 235.75 261.25C234.935 262.564 234.935 262.564 234.103 263.905C232.417 266.614 230.711 269.308 229 272C228.019 273.562 227.038 275.124 226.059 276.688C224.128 279.762 222.183 282.826 220.23 285.887C217.794 289.718 215.415 293.581 213.051 297.457C212.378 298.553 211.706 299.649 211.013 300.778C209.692 302.933 208.379 305.092 207.075 307.257C206.473 308.236 205.87 309.214 205.25 310.223C204.719 311.097 204.188 311.971 203.641 312.871C201.805 315.254 200.888 316.174 198 317C192.001 316.924 188.93 314.824 184.883 310.68C184.34 310.143 183.798 309.606 183.238 309.053C182.1 307.919 180.969 306.777 179.846 305.628C178.13 303.88 176.384 302.166 174.633 300.453C173.527 299.343 172.422 298.231 171.32 297.117C170.801 296.61 170.281 296.102 169.745 295.579C166.198 291.891 165.168 289.087 165 284C165.938 281.125 165.938 281.125 168 279C171.326 277.872 172.685 277.416 176 278C179.127 279.884 181.491 282.369 184 285C185.622 286.648 187.247 288.294 188.875 289.938C189.615 290.71 190.355 291.482 191.117 292.277C192.821 294.225 192.821 294.225 195 294C196.618 291.819 196.618 291.819 198.273 288.98C198.928 287.904 199.582 286.827 200.256 285.718C200.602 285.142 200.948 284.566 201.304 283.972C202.378 282.183 203.46 280.4 204.544 278.618C205.642 276.815 206.739 275.011 207.834 273.207C211.053 267.901 214.319 262.627 217.625 257.375C218.314 256.269 218.314 256.269 219.017 255.141C220.319 253.076 221.647 251.033 223 249C223.496 248.251 223.991 247.502 224.502 246.73C225.265 245.638 225.265 245.638 226.043 244.523C226.497 243.865 226.951 243.207 227.419 242.529C229.465 240.551 230.888 240.421 233.688 240.25Z" fill="black"/>
<path d="M190 145C191.494 145.945 192.951 146.951 194.375 148C198.272 150.779 201.005 151.91 205.808 151.609C209.199 150.666 211.427 148.584 214.09 146.355C216 145 216 145 219.687 144.312C223.987 145.205 225.532 146.376 228 150C228.152 154.261 227.573 156.27 224.937 159.625C215.472 167.278 208.25 168.958 196 168C189.649 166.375 184.509 162.697 180 158C178.454 154.908 178.706 152.406 179 149C181.909 144.461 184.852 144.156 190 145Z" fill="black"/>
<path d="M266 132.375C270.129 133.235 271.418 134.681 274 138C274.721 141.022 274.7 143.906 274.625 147C274.654 148.191 274.654 148.191 274.684 149.406C274.648 153.727 274.381 155.511 271.648 159.023C269 161 269 161 266 161.625C261.871 160.765 260.582 159.319 258 156C257.279 152.978 257.3 150.094 257.375 147C257.356 146.206 257.336 145.412 257.316 144.594C257.352 140.273 257.619 138.489 260.352 134.977C263 133 263 133 266 132.375Z" fill="black"/>
<path d="M145 134C147.585 135.895 147.963 136.888 149 140C149.146 142.268 149.221 144.54 149.25 146.812C149.276 148.015 149.302 149.218 149.328 150.457C148.97 154.325 148.027 156.708 146 160C142.908 161.546 140.406 161.293 137 161C134.809 159.605 134.809 159.605 133 157C132.381 153.658 132.396 150.391 132.438 147C132.414 146.098 132.39 145.195 132.365 144.266C132.38 137.706 132.38 137.706 135.309 134.371C138.98 132.501 141.081 132.911 145 134Z" fill="black"/>
</g>
<defs>
<clipPath id="clip0_10_17">
<rect width="512" height="512" fill="white"/>
</clipPath>
</defs>
</svg>
