<svg width="current" height="current" viewBox="0 0 227 179" fill="none" xmlns="http://www.w3.org/2000/svg">
<path d="M13.5004 17.753C13.8295 17.7506 14.1587 17.7482 14.4979 17.7458C15.5627 17.7423 16.6268 17.753 17.6916 17.7664C18.0557 17.7686 18.4199 17.7709 18.795 17.7733C24.8442 17.8178 30.7137 18.2941 36.6532 19.6961C37.0107 19.7788 37.3682 19.8614 37.7364 19.9466C40.194 20.5302 42.6177 21.2268 45.0395 21.9833C45.42 22.1003 45.8005 22.2173 46.1926 22.3379C52.815 24.4064 59.0249 27.2769 65.2653 30.5601C65.2653 30.9375 65.2653 31.3149 65.2653 31.7037C65.7009 31.8555 66.1365 32.0074 66.5853 32.1638C77.1827 36.5806 87.3339 48.7802 94.5364 58.609C95.5059 59.9228 96.5103 61.1958 97.5155 62.473C99.0592 64.453 100.54 66.4723 101.986 68.5483C103.914 71.3087 105.939 73.9391 108.012 76.5533C109.018 77.8267 110.009 79.1119 110.989 80.4129C111.261 80.774 111.533 81.1352 111.814 81.5073C112.368 82.2505 112.918 82.9983 113.463 83.7498C115.158 86.059 116.911 88.1021 118.913 90.0529C119.706 90.8513 120.475 91.6837 121.225 92.5366C134.471 107.453 156.661 119.225 175.366 119.259C175.987 119.235 176.607 119.212 177.247 119.187C176.942 118.798 176.636 118.409 176.322 118.008C173.97 114.239 173.89 109.985 174.287 105.464C175.327 100.527 178.151 97.7644 181.779 95.2079C185.167 94.1137 188.578 94.089 191.954 95.2436C195.705 97.8011 198.728 101.048 201.758 104.642C202.12 105.067 202.481 105.491 202.854 105.928C203.551 106.746 204.247 107.566 204.942 108.387C205.687 109.265 206.44 110.133 207.194 110.999C208.873 112.968 210.44 115.047 212.025 117.117C213.191 118.533 214.405 119.69 215.725 120.903C216.318 121.635 216.895 122.385 217.452 123.154C218.444 124.514 219.38 125.684 220.535 126.871C222.886 129.974 223.506 133.981 223.34 138.043C222.519 144.637 218.312 149.279 214.403 153.727C213.841 154.378 213.28 155.029 212.719 155.681C211.55 157.035 210.376 158.384 209.199 159.728C207.696 161.444 206.205 163.171 204.717 164.904C203.562 166.246 202.403 167.583 201.241 168.918C200.689 169.553 200.139 170.189 199.59 170.828C192.646 178.881 192.646 178.881 187.613 179C187.285 178.992 186.958 178.983 186.62 178.975C186.275 178.969 185.93 178.963 185.575 178.957C182.677 178.819 180.804 178.114 178.727 175.794C178.45 175.491 178.174 175.187 177.889 174.874C175.096 171.456 174.214 168.166 174.102 163.501C174.214 159.018 174.797 156.198 177.555 152.994C177.857 152.677 178.158 152.36 178.469 152.034C179.276 151.24 179.276 151.24 179.713 150.064C179.129 150.032 179.129 150.032 178.532 149.999C171.954 149.555 165.366 148.551 159.01 146.488C157.671 146.106 156.357 145.835 154.998 145.574C151.972 144.949 149.132 143.898 146.23 142.738C145.708 142.532 145.186 142.326 144.649 142.113C143.18 141.53 141.714 140.939 140.249 140.343C139.914 140.208 139.579 140.073 139.233 139.934C137.406 139.189 135.618 138.365 133.836 137.484C133.507 137.322 133.178 137.16 132.839 136.993C121.814 131.472 111.783 123.677 102.996 114.213C101.938 113.078 100.862 111.981 99.7662 110.896C96.0031 107.086 92.6608 102.963 89.5435 98.4421C88.477 96.9247 87.3694 95.4738 86.231 94.0286C84.7227 92.1112 83.2855 90.155 81.8837 88.132C79.709 85.0154 77.3844 82.0917 75.0255 79.1643C73.9338 77.8076 72.8741 76.4256 71.8325 75.0166C65.7527 66.9629 58.7448 60.9579 50.4659 56.2906C50.0068 56.0156 49.5477 55.7407 49.0747 55.4575C45.27 53.2788 41.2735 52.1581 37.1465 51.1445C36.8171 51.0634 36.4877 50.9823 36.1484 50.8988C29.4148 49.2893 22.5551 48.5427 15.6933 48.1493C10.7568 47.8607 7.72418 47.1686 4.02917 43.1774C1.12119 39.4472 0.214451 35.6079 0.40642 30.6249C0.993405 26.1802 3.10647 23.3985 5.98893 20.5583C8.48974 18.535 10.4434 17.7628 13.5004 17.753Z" fill="currentColor"/>
<path d="M70.6177 98.3798C71.8163 99.0334 72.3916 99.7644 73.2307 100.951C73.5321 101.369 73.8336 101.786 74.1441 102.217C74.5924 102.846 74.5924 102.846 75.0498 103.488C75.5719 104.181 76.096 104.872 76.6222 105.561C77.7313 107.026 78.8278 108.503 79.9155 109.99C82.4721 113.48 85.0148 116.904 87.8759 120.07C78.9479 132.677 65.5672 141.696 52.2821 146.601C51.4696 146.907 50.6651 147.24 49.862 147.578C43.3054 150.319 36.3975 151.62 29.486 152.436C28.4231 152.57 27.3616 152.731 26.3094 152.951C23.7016 153.418 21.0918 153.428 18.4568 153.465C17.7928 153.477 17.1289 153.497 16.4652 153.524C11.9016 153.706 8.56502 153.3 4.9996 149.803C1.73033 145.731 0.24191 141.631 0.392154 136.037C0.818089 131.787 2.82643 129.195 5.34839 126.223C8.69622 123.242 11.942 123.207 16.0525 123.014C35.1496 122.076 54.2596 117.006 67.866 100.272C68.3076 99.6945 68.3076 99.6945 68.7582 99.1057C69.6234 98.3418 69.6234 98.3418 70.6177 98.3798Z" fill="currentColor"/>
<path d="M196.465 1.86917C199.813 4.27128 202.474 7.45673 205.227 10.6756C205.792 11.3281 206.356 11.9802 206.921 12.632C208.096 13.9908 209.268 15.3536 210.437 16.7195C211.931 18.464 213.433 20.198 214.939 21.9291C216.103 23.2705 217.263 24.6174 218.421 25.9659C218.973 26.6075 219.527 27.2473 220.082 27.8854C220.858 28.7785 221.626 29.6786 222.394 30.5808C222.831 31.0898 223.269 31.5988 223.72 32.1232C226.125 35.5354 227.083 39.5083 226.994 43.8793C226.334 50.5221 221.998 55.2253 218.09 59.6729C217.528 60.3237 216.967 60.975 216.406 61.6269C215.237 62.9816 214.063 64.3302 212.886 65.6745C211.383 67.3898 209.892 69.1175 208.404 70.8497C207.249 72.1923 206.089 73.5291 204.928 74.8642C204.376 75.4991 203.826 76.1356 203.277 76.7736C199.474 81.1842 195.914 85.0703 190.245 85.3855C186.975 85.3232 184.275 83.7612 181.88 81.2244C178.524 76.9576 177.733 73.5244 177.825 67.7807C178.002 65.338 178.4 63.828 179.454 61.7278C179.617 61.3504 179.779 60.973 179.947 60.5842C180.273 60.5842 180.598 60.5842 180.934 60.5842C180.934 60.2068 180.934 59.8295 180.934 59.4406C162.054 62.8488 144.472 68.6674 129.136 82.3121C127.216 81.4219 126.146 80.0168 124.789 78.2382C124.571 77.9543 124.353 77.6704 124.129 77.378C123.493 76.5478 122.861 75.7134 122.23 74.8789C121.785 74.2996 121.785 74.2996 121.332 73.7085C119.258 70.9909 117.244 68.2135 115.234 65.4324C114.34 64.201 113.466 62.9964 112.448 61.8998C111.87 61.156 111.87 61.156 111.87 59.4406C112.529 58.6724 112.529 58.6724 113.466 57.8883C113.99 57.4464 113.99 57.4464 114.525 56.9955C114.911 56.682 115.296 56.3686 115.693 56.0456C116.092 55.7182 116.491 55.3908 116.902 55.0534C131.115 43.543 147.261 35.3369 164.439 32.0306C164.914 31.9368 165.389 31.843 165.879 31.7463C171.709 30.6086 177.554 29.582 183.4 28.5641C182.99 28.0442 182.99 28.0442 182.572 27.5138C182.036 26.8264 182.036 26.8264 181.489 26.1251C181.134 25.6723 180.779 25.2196 180.413 24.7531C177.586 20.819 177.594 16.3609 177.974 11.4105C178.647 7.15019 180.883 4.65318 183.749 2.07647C187.493 -0.618227 192.689 -0.642334 196.465 1.86917Z" fill="currentColor"/>
</svg>
