<svg width="460" height="314" viewBox="0 0 460 314" fill="none" xmlns="http://www.w3.org/2000/svg">
<path d="M26.5928 31.0137C27.2601 31.0096 27.9274 31.0054 28.6149 31.0012C30.7734 30.995 32.9305 31.0139 35.0889 31.0372C35.827 31.0411 36.5652 31.0451 37.3257 31.0492C49.5881 31.127 61.4862 31.9602 73.5264 34.4122C74.251 34.5567 74.9756 34.7012 75.7222 34.8501C80.704 35.8709 85.617 37.0891 90.5264 38.4122C91.2977 38.6168 92.0691 38.8214 92.8638 39.0323C106.288 42.65 118.876 47.6702 131.526 53.4122C131.526 54.0722 131.526 54.7322 131.526 55.4122C132.409 55.6777 133.292 55.9433 134.202 56.2168C155.684 63.9413 176.262 85.2773 190.862 102.467C192.828 104.764 194.864 106.991 196.901 109.225C200.031 112.687 203.031 116.219 205.964 119.85C209.871 124.677 213.977 129.278 218.179 133.85C220.219 136.077 222.228 138.324 224.214 140.6C224.766 141.231 225.317 141.863 225.886 142.514C227.009 143.814 228.123 145.121 229.23 146.436C232.665 150.474 236.219 154.047 240.276 157.459C241.885 158.855 243.443 160.311 244.964 161.803C271.815 187.891 316.797 208.478 354.714 208.537C355.972 208.496 357.23 208.455 358.526 208.412C357.908 207.732 357.289 207.051 356.651 206.35C351.883 199.758 351.722 192.319 352.526 184.412C354.635 175.778 360.358 170.946 367.714 166.475C374.58 164.561 381.496 164.518 388.339 166.537C395.943 171.01 402.071 176.689 408.214 182.975C408.947 183.717 409.68 184.458 410.435 185.223C411.848 186.654 413.26 188.088 414.668 189.524C416.178 191.058 417.704 192.577 419.233 194.092C422.636 197.535 425.814 201.172 429.026 204.791C431.389 207.268 433.849 209.291 436.526 211.412C437.728 212.693 438.897 214.005 440.026 215.35C442.038 217.728 443.935 219.774 446.276 221.85C451.042 227.277 452.3 234.286 451.962 241.389C450.299 252.921 441.77 261.039 433.847 268.818C432.708 269.957 431.569 271.096 430.432 272.236C428.063 274.605 425.684 276.964 423.296 279.314C420.251 282.314 417.228 285.336 414.212 288.366C411.871 290.714 409.52 293.052 407.165 295.386C406.047 296.497 404.932 297.61 403.819 298.726C389.742 312.81 389.742 312.81 379.54 313.019C378.875 313.005 378.211 312.99 377.526 312.975C376.827 312.964 376.128 312.954 375.408 312.944C369.533 312.702 365.738 311.47 361.526 307.412C360.966 306.881 360.405 306.35 359.827 305.803C354.165 299.826 352.378 294.072 352.151 285.912C352.378 278.073 353.56 273.14 359.151 267.537C359.762 266.983 360.373 266.429 361.003 265.857C362.64 264.469 362.64 264.469 363.526 262.412C362.341 262.356 362.341 262.356 361.132 262.299C347.797 261.522 334.442 259.767 321.558 256.158C318.844 255.49 316.18 255.016 313.425 254.561C307.29 253.468 301.533 251.628 295.651 249.6C294.593 249.239 293.536 248.879 292.446 248.508C289.468 247.487 286.496 246.453 283.526 245.412C282.847 245.176 282.168 244.94 281.468 244.696C277.763 243.394 274.139 241.952 270.526 240.412C269.86 240.129 269.193 239.845 268.506 239.553C246.158 229.897 225.824 216.265 208.011 199.713C205.866 197.727 203.686 195.81 201.464 193.912C193.835 187.249 187.06 180.038 180.741 172.131C178.579 169.477 176.334 166.94 174.026 164.412C170.969 161.059 168.056 157.638 165.214 154.1C160.806 148.649 156.093 143.536 151.312 138.416C149.099 136.043 146.95 133.626 144.839 131.162C132.514 117.077 118.309 106.575 101.526 98.4122C100.596 97.9313 99.665 97.4505 98.7061 96.9551C90.9936 93.1449 82.8923 91.1849 74.5264 89.4122C73.8587 89.2704 73.1909 89.1286 72.503 88.9825C58.8533 86.1676 44.9479 84.862 31.0381 84.1739C21.0312 83.6691 14.8838 82.4587 7.39359 75.4786C1.49875 68.9548 -0.339308 62.2402 0.0498357 53.5254C1.23972 45.7522 5.52315 40.8872 11.3662 35.92C16.4357 32.3814 20.396 31.0309 26.5928 31.0137Z" fill="#010101"/>
<path d="M142.376 172.022C144.806 173.165 145.972 174.444 147.673 176.518C148.284 177.249 148.895 177.98 149.525 178.733C150.434 179.833 150.434 179.833 151.361 180.956C152.419 182.168 153.482 183.376 154.548 184.581C156.797 187.144 159.019 189.726 161.224 192.327C166.407 198.431 171.561 204.42 177.361 209.956C159.263 232.004 132.138 247.777 105.208 256.356C103.561 256.891 101.93 257.475 100.302 258.065C87.0111 262.858 73.008 265.134 58.9975 266.561C56.8429 266.795 54.6911 267.076 52.5583 267.461C47.272 268.279 41.9816 268.297 36.6401 268.361C35.2941 268.382 33.9483 268.416 32.6029 268.463C23.3519 268.782 16.5883 268.072 9.36076 261.956C2.73356 254.835 -0.283647 247.664 0.0209156 237.881C0.884337 230.448 4.95549 225.914 10.0678 220.717C16.8542 215.503 23.4338 215.443 31.7662 215.104C70.4783 213.465 109.217 204.598 136.798 175.331C137.694 174.321 137.694 174.321 138.607 173.292C140.361 171.956 140.361 171.956 142.376 172.022Z" fill="#020202"/>
<path d="M397.483 3.23484C404.271 7.43588 409.664 13.0069 415.246 18.6365C416.39 19.7775 417.534 20.918 418.679 22.058C421.061 24.4344 423.436 26.8178 425.806 29.2065C428.835 32.2575 431.88 35.2901 434.932 38.3177C437.292 40.6637 439.643 43.0192 441.991 45.3776C443.111 46.4996 444.233 47.6187 445.358 48.7347C446.93 50.2965 448.489 51.8707 450.045 53.4487C450.932 54.3388 451.819 55.229 452.732 56.1461C457.608 62.1138 459.551 69.0619 459.37 76.7064C458.032 88.3239 449.242 96.5493 441.32 104.328C440.181 105.466 439.043 106.605 437.906 107.745C435.537 110.114 433.157 112.473 430.77 114.824C427.725 117.824 424.702 120.846 421.686 123.875C419.345 126.223 416.993 128.561 414.639 130.896C413.521 132.006 412.405 133.119 411.293 134.235C403.583 141.949 396.366 148.745 384.875 149.297C378.247 149.188 372.774 146.456 367.918 142.019C361.115 134.557 359.512 128.553 359.699 118.508C360.058 114.236 360.865 111.595 363 107.922C363.33 107.262 363.66 106.602 364 105.922C364.66 105.922 365.32 105.922 366 105.922C366 105.262 366 104.602 366 103.922C327.728 109.882 292.087 120.058 261 143.922C257.107 142.365 254.939 139.907 252.188 136.797C251.746 136.3 251.304 135.804 250.849 135.292C249.561 133.84 248.28 132.381 247 130.922C246.099 129.908 246.099 129.908 245.18 128.875C240.975 124.122 236.894 119.264 232.819 114.401C231.007 112.247 229.235 110.14 227.172 108.222C226 106.922 226 106.922 226 103.922C227.335 102.578 227.335 102.578 229.234 101.207C230.298 100.434 230.298 100.434 231.382 99.6452C232.164 99.0971 232.945 98.5489 233.75 97.9841C234.558 97.4114 235.367 96.8388 236.2 96.2488C265.012 76.1182 297.74 61.7665 332.562 55.9841C333.526 55.8201 334.49 55.656 335.483 55.487C347.3 53.4972 359.149 51.7018 371 49.9216C370.169 49.0123 370.169 49.0123 369.32 48.0847C368.234 46.8825 368.234 46.8825 367.125 45.656C366.406 44.8642 365.686 44.0724 364.945 43.2566C359.213 36.3762 359.23 28.5794 360 19.9216C361.365 12.4708 365.898 8.10378 371.707 3.59739C379.297 -1.11538 389.829 -1.15754 397.483 3.23484Z" fill="#010101"/>
</svg>
