<svg width="512" height="512" viewBox="0 0 512 512" fill="none" xmlns="http://www.w3.org/2000/svg">
<g clip-path="url(#clip0_111_46)">
<path d="M389.043 -0.290527C390.003 -0.297245 390.964 -0.303962 391.954 -0.310883C395.103 -0.329753 398.253 -0.333781 401.402 -0.335938C403.608 -0.342372 405.813 -0.3491 408.018 -0.35611C412.63 -0.368054 417.242 -0.371793 421.854 -0.370605C427.746 -0.370402 433.638 -0.397734 439.53 -0.43215C444.081 -0.454448 448.632 -0.458442 453.183 -0.457386C455.355 -0.459736 457.527 -0.468528 459.698 -0.484051C462.742 -0.503776 465.784 -0.497847 468.828 -0.48584C469.713 -0.497079 470.598 -0.508318 471.51 -0.519897C481.081 -0.424557 490.191 3.16278 497 10C504.399 19.5302 507.038 28.025 506 40C504.429 49.4093 499.525 57.4883 492.062 63.4375C481.865 70.3198 469.071 71.4927 457 71C459.76 73.8432 462.515 76.4187 465.625 78.875C470.106 82.751 471.718 86.2466 472.312 92.0547C472.564 98.8738 472.244 104.469 468 110C463.761 114.239 460.752 115.535 455 118C445.43 118 435.86 118 426 118C426 151.33 426 184.66 426 219C432.435 216.525 432.435 216.525 439 214C449.436 211.391 458.999 212.899 468.254 218.32C475.218 223.157 480.471 229.88 483 238C484.752 249.259 484.078 257.964 477.785 267.59C468.808 279.71 454.446 284.166 440.281 287.754C429.394 289.926 429.394 289.926 420.511 295.816C418.436 300.086 417.994 304.299 418 309C419.574 309.847 421.149 310.694 422.724 311.539C424.087 312.269 425.448 313.002 426.809 313.737C430.959 315.963 435.149 317.988 439.438 319.938C448.446 324.423 453.786 331.582 457 341C459.814 350.146 458.059 360.019 453.781 368.383C449.419 375.533 442.685 381.995 434.535 384.555C422.525 386.664 412.919 385.141 401.956 379.92C399.148 378.599 396.297 377.382 393.446 376.157C390.289 374.79 387.145 373.395 384 372C377.349 376.448 372.026 381.405 370.227 389.461C369.148 398.826 369.348 408.204 369.583 417.612C369.639 420.723 369.614 423.832 369.587 426.943C369.57 429.958 369.598 432.971 369.64 435.985C369.656 437.416 369.66 438.848 369.651 440.28C369.475 448.402 369.475 448.402 372.996 455.383C375.254 457.145 377.521 458.575 380 460C386.541 466.095 392.485 472.083 393.285 481.277C393.519 490.786 392.627 498.22 385.915 505.291C379.131 511.344 371.727 512.75 362.91 512.629C361.885 512.631 360.86 512.634 359.804 512.636C357.65 512.635 355.496 512.622 353.342 512.597C350.074 512.563 346.809 512.576 343.541 512.596C341.435 512.589 339.329 512.579 337.223 512.566C336.261 512.571 335.299 512.576 334.308 512.581C322.666 512.383 313.329 508.251 305.094 500.117C295.792 490.066 293.747 479.427 293.586 466.059C293.567 465.05 293.547 464.042 293.527 463.003C293.468 459.815 293.421 456.626 293.375 453.438C293.337 451.262 293.298 449.087 293.258 446.912C293.162 441.608 293.077 436.304 293 431C291.264 431.416 291.264 431.416 289.492 431.84C287.953 432.206 286.414 432.572 284.875 432.938C284.114 433.12 283.354 433.302 282.57 433.49C275.6 435.143 269.169 436.124 262 436C261.156 446.504 261.156 446.504 265.27 455.629C267.182 456.924 269.141 458.154 271.137 459.316C277.641 463.141 282.639 469.841 285 477C286.833 485.405 285.987 492.713 281.742 500.227C277.753 506.047 272.685 509.772 266 512C264.478 512.106 262.953 512.159 261.428 512.177C260.502 512.19 259.577 512.203 258.624 512.216C257.124 512.227 257.124 512.227 255.594 512.238C254.559 512.246 253.524 512.254 252.457 512.263C250.262 512.277 248.066 512.287 245.87 512.295C242.541 512.312 239.212 512.356 235.883 512.4C233.745 512.411 231.607 512.419 229.469 512.426C228.485 512.443 227.501 512.461 226.488 512.479C214.03 512.44 205.26 507.714 196.285 499.414C186.314 489.012 185.839 475.391 185.902 461.844C185.904 460.129 185.904 460.129 185.907 458.38C185.912 454.754 185.925 451.127 185.938 447.5C185.943 445.031 185.947 442.563 185.951 440.094C185.962 434.062 185.979 428.031 186 422C185.019 422.402 184.039 422.804 183.029 423.218C173.145 427.241 163.381 430.502 153 433C152.007 433.25 152.007 433.25 150.995 433.505C130.475 438.484 104.383 438.491 84 433C83.0448 432.749 82.0896 432.497 81.1055 432.238C77.343 431.118 74.452 430.115 72 427C71.2453 420.208 71.2453 420.208 73.5625 416.5C78.7809 413.289 83.9235 415.14 89.5625 416.438C90.6363 416.704 91.7101 416.971 92.8164 417.246C100.83 419.144 108.612 419.243 116.813 419.25C117.51 419.251 118.208 419.251 118.926 419.252C129.597 419.236 139.616 418.649 150 416C151.11 415.727 151.11 415.727 152.242 415.448C161.855 413.059 170.989 410.152 180 406C180 402.076 178.546 400.013 176.688 396.562C172.006 387.539 169.815 379.176 170 369C169.357 369.227 168.714 369.453 168.051 369.687C128.504 383.519 89.3041 385.592 50.4961 367.715C47.5654 366.277 44.7917 364.747 42 363.062C37.6953 360.594 34.9351 360.191 30 361C26.759 362.886 24.6674 364.294 23.2695 367.867C22.435 372.114 22.9406 375.411 25.3984 379.098C33.3648 388.56 43.8332 395.396 53.9434 402.333C58.8891 405.778 58.8891 405.778 60 408C60.5404 412.053 60.342 413.537 57.875 416.875C54.4022 419.442 53.2312 419.5 49 419C46.5649 417.754 44.4811 416.536 42.25 415C41.6366 414.59 41.0231 414.18 40.3911 413.757C35.0214 410.12 29.9188 406.229 25 402C24.5073 401.585 24.0145 401.17 23.5068 400.742C15.2641 393.76 6.81925 386.122 5.79689 374.738C5.62939 366.07 7.46375 358.685 13.0274 351.863C20.0746 345.207 27.866 343.379 37.3076 343.559C43.4674 344.295 48.426 346.849 53.875 349.688C56.1517 350.801 58.4317 351.908 60.7149 353.008C62.3408 353.795 62.3408 353.795 63.9995 354.599C94.4471 368.819 128.124 365.584 159 355C160.675 354.354 162.347 353.699 164 353C161.12 347.7 157.859 342.966 154.188 338.188C153.12 336.779 152.054 335.371 150.988 333.961C150.476 333.284 149.964 332.607 149.436 331.909C147.549 329.4 145.698 326.868 143.875 324.312C143.357 323.587 142.839 322.861 142.305 322.113C138.58 316.08 137.321 309.413 138.398 302.41C140.171 295.642 143.129 289.868 148.838 285.638C157.442 280.836 166.88 280.39 176.5 279.375C179.124 279.092 181.747 278.804 184.368 278.498C185.989 278.31 187.612 278.135 189.236 277.974C191.681 277.725 191.681 277.725 195 277C197.453 273.321 197.065 272.447 196.375 268.188C196.179 266.953 195.983 265.718 195.781 264.445C195.205 261.101 194.59 257.765 193.969 254.43C193.789 253.461 193.609 252.493 193.424 251.495C193.064 249.572 192.697 247.65 192.322 245.729C190.396 235.577 190.46 227.151 196.188 218.25C199.904 213.408 205.053 210.252 211 209C221.031 207.886 229.48 210.673 238.75 214C240.14 214.483 241.531 214.965 242.922 215.445C246.288 216.611 249.646 217.799 253 219C251.123 211.279 249.259 203.626 246.813 196.062C243.897 186.717 242.795 178.734 247.121 169.645C250.695 163.6 255.378 159.453 262 157C271.06 154.722 279.789 157.339 288.625 159.438C290.121 159.781 291.617 160.123 293.113 160.463C296.746 161.292 300.374 162.141 304 163C304.188 162.37 304.375 161.74 304.568 161.092C305.778 157.043 306.992 152.997 308.281 148.973C314.482 129.325 315.438 110.241 315.511 89.7466C315.64 64.8261 318.245 43.5377 335 24C335.92 22.9114 335.92 22.9114 336.859 21.8008C350.142 7.35442 369.671 -0.310322 389.043 -0.290527ZM346.84 34.793C335.708 48.1463 331.937 63.2741 331.789 80.3789C331.764 82.1947 331.737 84.0104 331.71 85.8262C331.697 86.7639 331.683 87.7016 331.67 88.6677C331.047 128.927 325.429 167.895 299 200C298.548 200.558 298.095 201.116 297.629 201.69C286.026 215.942 272.659 227.023 258 238C225.901 262.135 199.188 290 189 330C188.68 331.253 188.361 332.506 188.031 333.797C185.984 342.874 185.668 351.967 185.563 361.25C185.529 362.99 185.529 362.99 185.495 364.765C185.527 377.091 188.798 387.951 196 398C196.846 398.721 197.692 399.442 198.564 400.185C202.885 405.395 201.683 412.953 201.637 419.363C201.645 420.88 201.655 422.397 201.668 423.914C201.697 427.9 201.697 431.887 201.69 435.873C201.683 442.242 201.715 448.611 201.753 454.979C201.762 457.191 201.756 459.402 201.749 461.614C201.755 472.666 202.119 481.664 210 490C218.321 498.016 229.736 497.328 240.615 497.261C242.694 497.25 244.774 497.261 246.854 497.273C248.198 497.272 249.542 497.27 250.887 497.266C252.085 497.263 253.284 497.261 254.518 497.259C259.537 496.886 263.662 496.268 267.375 492.75C269.27 489.543 270 487.741 270 484C267.407 475.116 260.21 470.192 252.563 465.75C251.718 465.291 250.874 464.832 250.004 464.359C248 463 248 463 247 460C246.879 457.383 246.812 454.794 246.797 452.176C246.791 451.397 246.785 450.618 246.78 449.815C246.77 448.158 246.764 446.501 246.76 444.844C246.75 442.367 246.719 439.89 246.688 437.412C246.505 410.462 254.952 388.631 273.82 369.156C289.251 353.66 313.688 334.091 336.404 333.618C350.351 333.66 359.362 337.343 370.941 344.935C378.048 349.543 385.419 353.554 392.938 357.438C394.606 358.305 394.606 358.305 396.309 359.191C410.614 367.445 410.614 367.445 426.379 369.582C431.957 367.616 435.918 365.528 439.75 360.875C442.186 355.271 442.63 350.021 440.812 344.188C437.866 339.005 435.261 335.731 429.812 333.188C428.219 332.428 428.219 332.428 426.594 331.652C424.748 330.804 422.903 329.956 421.055 329.114C369.436 305.584 369.436 305.584 361.324 286.289C359.76 281.859 359.621 277.848 359.75 273.188C359.771 271.934 359.771 271.934 359.792 270.655C359.827 268.803 359.871 266.951 359.922 265.1C360.008 261.665 360.05 258.232 360.094 254.797C360.144 252.344 360.196 249.891 360.25 247.438C360.271 245.662 360.271 245.662 360.292 243.85C360.325 242.743 360.357 241.637 360.391 240.496C360.412 239.508 360.433 238.52 360.454 237.502C361 235 361 235 362.891 233.161C365.503 231.723 366.836 231.841 369.75 232.312C370.549 232.432 371.348 232.552 372.172 232.676C372.775 232.783 373.378 232.89 374 233C374.809 235.826 375.108 238.28 375.05 241.214C375.031 242.446 375.031 242.446 375.011 243.703C374.993 244.582 374.975 245.461 374.957 246.367C374.935 248.241 374.913 250.115 374.893 251.988C374.855 254.933 374.812 257.878 374.753 260.823C374.699 263.671 374.67 266.519 374.645 269.367C374.621 270.242 374.597 271.118 374.572 272.019C374.545 278.443 376.09 281.971 380.625 286.692C385.062 290.347 389.67 293.665 394.438 296.875C395.169 297.373 395.901 297.87 396.654 298.383C398.434 299.592 400.216 300.797 402 302C404.275 298.587 405.08 295.366 406 291.438C406.165 290.791 406.33 290.145 406.5 289.479C410.902 270.923 410.273 251.823 410.203 232.895C410.19 228.879 410.189 224.864 410.187 220.848C410.181 213.273 410.164 205.698 410.144 198.123C410.122 189.487 410.111 180.851 410.101 172.214C410.08 154.476 410.045 136.738 410 119C408.562 119.299 407.124 119.605 405.688 119.912C404.887 120.081 404.087 120.25 403.262 120.425C394.527 122.646 387.029 129.781 382 137C378.254 143.884 375.899 149.957 375.826 157.807C375.806 159.559 375.806 159.559 375.786 161.346C375.775 162.603 375.765 163.861 375.754 165.156C375.729 167.134 375.705 169.111 375.68 171.089C375.619 175.963 375.568 180.837 375.523 185.71C375.498 188.447 375.467 191.184 375.43 193.921C375.397 196.499 375.371 199.076 375.353 201.654C375.328 203.406 375.328 203.406 375.303 205.193C375.293 206.221 375.282 207.248 375.272 208.306C374.995 211.051 374.497 212.699 373 215C369.95 216.525 367.358 216.236 364 216C362.302 214.849 362.302 214.849 361 213C360.619 210.366 360.619 210.366 360.612 207.158C360.602 205.956 360.593 204.754 360.583 203.515C360.592 201.56 360.592 201.56 360.602 199.566C360.6 198.209 360.597 196.852 360.593 195.495C360.588 192.645 360.595 189.794 360.609 186.944C360.626 183.323 360.616 179.702 360.598 176.082C360.587 173.273 360.591 170.465 360.599 167.657C360.602 165.683 360.592 163.709 360.583 161.735C360.713 144.858 365.733 130.544 377.562 118.215C389.484 107.382 403.827 102.899 419.633 102.824C421.509 102.801 423.385 102.777 425.262 102.752C428.202 102.717 431.143 102.687 434.083 102.674C436.934 102.659 439.783 102.618 442.633 102.574C443.952 102.577 443.952 102.577 445.297 102.58C450.265 102.496 450.265 102.496 454.552 100.151C456.549 97.1841 456.619 95.5039 456 92C454.17 89.7305 454.17 89.7305 451.5 87.875C450.513 87.1183 449.525 86.3616 448.508 85.582C447.34 84.72 446.17 83.8594 445 83C442.849 81.398 440.7 79.7928 438.553 78.186C437.113 77.113 435.669 76.0461 434.221 74.9858C433.557 74.4968 432.894 74.0078 432.211 73.5039C431.616 73.0689 431.021 72.634 430.408 72.1858C428.18 70.3095 428.003 69.027 427.688 66.125C428 63 428 63 429.468 60.8909C433.086 58.1892 436.408 58.0451 440.824 57.6211C441.685 57.5229 442.546 57.4247 443.433 57.3235C446.183 57.0117 448.935 56.7229 451.688 56.4375C454.422 56.1459 457.156 55.8491 459.889 55.5408C461.586 55.3501 463.285 55.169 464.984 54.9996C473.207 54.0913 480.587 52.686 486 46C489.362 40.9564 490.581 37.0968 490 31C487.85 24.5603 485.07 20.2501 479.16 16.8398C473.991 14.83 468.58 14.8513 463.105 14.8547C462.337 14.8514 461.569 14.848 460.777 14.8446C458.247 14.8351 455.717 14.8331 453.188 14.832C451.414 14.8288 449.64 14.8254 447.866 14.8219C444.147 14.816 440.428 14.8141 436.709 14.8147C431.98 14.8148 427.251 14.8012 422.522 14.7839C418.855 14.7727 415.188 14.7708 411.521 14.7713C409.78 14.7701 408.039 14.7658 406.298 14.758C383.939 14.6672 362.99 17.5196 346.84 34.793ZM263 175C260.328 179.008 260.49 182.365 261 187C261.936 190.938 263.188 194.736 264.5 198.562C264.834 199.571 265.168 200.58 265.512 201.619C266.329 204.084 267.159 206.543 268 209C279.371 200.777 287.103 190.441 295 179C292.625 176.625 291.305 176.429 288.062 175.711C286.597 175.382 286.597 175.382 285.102 175.047C284.078 174.825 283.055 174.603 282 174.375C280.976 174.146 279.953 173.916 278.898 173.68C270.692 171.837 270.692 171.837 263 175ZM210 227C207.119 231.645 206.738 234.406 207.688 239.75C207.895 240.964 208.103 242.179 208.316 243.43C208.542 244.608 208.768 245.786 209 247C209.195 248.034 209.389 249.068 209.59 250.133C210.038 252.427 210.505 254.715 211 257C214.517 254.057 217.909 251.143 221.063 247.812C226.487 242.263 232.856 237.712 239 233C237.291 229.581 233.313 229.077 229.875 227.875C229.127 227.598 228.38 227.321 227.609 227.035C221.993 225.049 215.141 222.96 210 227ZM435 232.5C430.545 234.232 430.545 234.232 426 236C425.67 248.87 425.34 261.74 425 275C432.925 273.51 432.925 273.51 440.359 271.195C441.248 270.859 442.136 270.522 443.051 270.176C443.942 269.829 444.832 269.482 445.75 269.125C446.656 268.786 447.562 268.447 448.496 268.098C456.758 264.926 463.326 261.602 467.312 253.25C468.522 247.532 467.984 242.863 465.25 237.688C461.769 233.529 458.282 230.474 453 229C446.227 228.492 441.254 230.013 435 232.5ZM173.25 295.812C172.071 295.918 172.071 295.918 170.867 296.025C165.704 296.561 161.6 297.547 157 300C154.671 303.157 154.671 303.157 154 307C155.996 312.943 159.35 317.698 163 322.75C163.801 323.881 163.801 323.881 164.617 325.035C166.916 328.255 169.132 331.261 172 334C172.181 333.352 172.361 332.703 172.547 332.035C176.088 319.402 179.735 307.033 185 295C181.054 295 177.171 295.412 173.25 295.812ZM316 357C315.072 357.512 314.144 358.024 313.188 358.551C290.918 371.22 270.824 390.276 263.629 415.383C262.922 417.875 262.922 417.875 263 420C296.86 419.146 331.204 400.437 355.281 377.543C357.209 375.739 359.125 374.042 361.16 372.371C364.322 369.731 366.606 367.337 369 364C367.803 360.409 367.045 360.152 363.852 358.336C363.011 357.854 362.171 357.372 361.305 356.875C360.42 356.38 359.536 355.885 358.625 355.375C357.748 354.872 356.872 354.37 355.969 353.852C340.984 345.328 329.976 348.848 316 357ZM348.438 403.438C343.879 406.777 339.239 409.733 334.312 412.5C333.435 412.996 333.435 412.996 332.539 413.502C325.157 417.581 317.553 421.252 310 425C309.898 431.919 309.828 438.838 309.78 445.758C309.76 448.108 309.733 450.458 309.698 452.808C309.649 456.201 309.627 459.594 309.609 462.988C309.589 464.025 309.568 465.062 309.547 466.13C309.544 474.361 310.963 482.17 316.184 488.754C317.299 489.649 317.299 489.649 318.438 490.562C319.179 491.183 319.92 491.803 320.684 492.441C328.935 497.993 338.887 497.186 348.443 497.185C350.561 497.187 352.678 497.206 354.795 497.225C356.156 497.228 357.518 497.23 358.879 497.23C360.102 497.235 361.324 497.239 362.584 497.243C367.255 496.911 370.744 496.087 374.312 493C377.014 489.798 377.412 487.363 377.336 483.152C376.477 477.648 372.412 474.141 368.188 470.875C364.753 468.433 361.199 466.211 357.566 464.078C356 463 356 463 355 461C354.88 459.06 354.823 457.117 354.795 455.173C354.765 453.342 354.765 453.342 354.734 451.473C354.717 450.136 354.7 448.798 354.684 447.461C354.663 446.096 354.642 444.731 354.621 443.367C354.565 439.773 354.516 436.179 354.468 432.585C354.418 428.919 354.362 425.252 354.307 421.586C354.199 414.391 354.098 407.195 354 400C351.969 400 349.948 402.283 348.438 403.438Z" fill="currentColor"/>
<path d="M414 29C417.199 33.0802 417.406 36.4 417.375 41.5C417.383 42.7891 417.39 44.0782 417.398 45.4063C416.981 49.1692 416.293 51.0295 414 54C411 56 411 56 407.5 55.8125C403.981 54.9957 403.083 54.7622 401 52C400.612 49.887 400.612 49.887 400.602 47.4727C400.598 46.5981 400.594 45.7234 400.59 44.8223C400.607 43.4562 400.607 43.4562 400.625 42.0625C400.613 41.1557 400.602 40.2488 400.59 39.3145C400.594 38.4386 400.598 37.5627 400.602 36.6602C400.605 35.8623 400.608 35.0645 400.612 34.2425C401.093 31.4642 402.128 30.0779 404 28C407.637 26.2442 410.471 27.3482 414 29Z" fill="currentColor"/>
</g>
<defs>
<clipPath id="clip0_111_46">
<rect width="512" height="512" fill="white"/>
</clipPath>
</defs>
</svg>
