<svg width="512" height="512" viewBox="0 0 512 512" fill="none" xmlns="http://www.w3.org/2000/svg">
<g clip-path="url(#clip0_111_49)">
<path d="M244.178 10.8528C245.694 10.8473 245.694 10.8473 247.24 10.8417C250.618 10.8307 253.996 10.8268 257.373 10.823C259.798 10.8167 262.223 10.8101 264.648 10.8031C271.914 10.7839 279.18 10.7733 286.446 10.7643C289.87 10.76 293.295 10.7546 296.719 10.7494C308.106 10.7324 319.492 10.7179 330.878 10.7106C333.828 10.7087 336.778 10.7068 339.728 10.7048C340.461 10.7043 341.195 10.7039 341.95 10.7034C353.841 10.695 365.731 10.6697 377.622 10.6372C389.838 10.6042 402.053 10.5862 414.269 10.583C421.125 10.5808 427.98 10.5721 434.836 10.5465C441.28 10.5225 447.724 10.519 454.168 10.5293C456.535 10.5298 458.901 10.5234 461.267 10.5097C464.495 10.4921 467.721 10.4991 470.948 10.5122C472.357 10.4958 472.357 10.4958 473.793 10.479C479.491 10.5353 482.639 11.2454 487 15C491.425 22.5244 488.34 33.3933 486.438 41.375C482.473 55.2016 475.59 68.1489 465 78C464.423 78.5943 463.845 79.1885 463.25 79.8008C455.199 87.6531 444.693 92.7074 434 96C443.933 123.604 465.626 147.469 488.438 165.312C497.442 172.461 497.442 172.461 498.434 176.973C498.647 180.428 498.226 182.65 496.352 185.555C485.471 196.869 462.761 198.367 448 200C457.272 211.831 457.272 211.831 467.707 222.617C469 224 469 224 469 226C469.571 226.247 470.142 226.495 470.73 226.75C473.355 228.196 475.159 229.917 477.312 232C486.073 240.024 496.194 246.396 506.828 251.648C509.297 253.185 510.539 254.491 512 257C512.434 259.184 512.434 259.184 512.438 261.437C512.457 262.179 512.476 262.92 512.496 263.684C511.636 267.699 509.454 270.016 506.084 272.297C503.749 273.688 501.385 275.008 499 276.312C497.272 277.286 495.545 278.263 493.82 279.242C492.987 279.715 492.153 280.188 491.294 280.675C486.354 283.529 481.676 286.738 477 290C476.369 290.434 475.738 290.868 475.088 291.315C465.293 298.054 455.848 305.109 446.653 312.646C445.158 313.871 443.654 315.084 442.148 316.297C430.639 325.599 419.497 335.359 408.671 345.447C407.479 346.554 406.284 347.659 405.087 348.76C394.962 358.076 385.348 367.727 376.015 377.832C373.945 380.059 371.855 382.264 369.758 384.465C363.314 391.232 357.028 397.995 351.211 405.316C347.584 409.719 343.662 413.844 339.773 418.016C335.514 422.585 331.436 427.301 327.402 432.07C320.883 439.759 314.159 447.202 307.242 454.535C304.577 457.366 301.996 460.259 299.438 463.187C281.327 483.381 258.735 499.257 230.926 500.902C229.478 500.951 229.478 500.951 228 501C227.365 501.031 226.73 501.062 226.076 501.094C223.946 501.193 221.818 501.257 219.688 501.312C218.371 501.35 217.055 501.387 215.699 501.426C211.319 500.922 209.283 499.924 206 497C194.639 474.14 199.87 437.906 201 413C200.461 413.212 199.922 413.424 199.367 413.643C196.895 414.607 194.417 415.554 191.938 416.5C191.09 416.834 190.242 417.168 189.369 417.512C184.426 419.382 180.37 420.584 175 420C169.462 416.923 169.462 416.923 168 414C164.033 375.563 180.937 330.672 194.944 295.663C196.347 292.126 197.68 288.568 199 285C198.504 285.361 198.007 285.722 197.496 286.094C192.915 289.223 189.718 291.059 184 290C181.038 288.186 178.579 286.158 177 283C176.263 276.366 178.075 272.053 180.754 266.02C182.524 261.731 183.413 257.585 184 253C184.142 252.205 184.284 251.409 184.43 250.59C184.703 248.109 184.727 246.391 184 244C181.43 241.159 178.424 239.649 175 238C174.126 237.559 173.252 237.118 172.352 236.664C157.381 230.042 140.084 229.247 124.015 227.196C97.5105 223.81 71.0116 219.993 46.1914 209.566C43.3989 208.845 41.7411 209.131 39 210C30.1255 215.496 26.4787 224.411 23.7734 234.09C22.8488 236.374 21.9467 237.491 20 239C15.4008 240.463 11.9257 240.438 7.5625 238.375C0.316967 231.66 0.27912 217.653 -0.181641 208.321C-0.299411 204.296 -0.354954 200.276 -0.375 196.25C-0.388696 194.973 -0.402393 193.695 -0.416504 192.379C-0.286645 165.056 9.9343 141.668 28.625 122C54.0977 97.1884 91.3653 86.2209 126 83C127.632 82.8356 127.632 82.8356 129.297 82.668C137.203 81.9587 145.066 81.8929 153 82C153.062 81.0925 153.124 80.185 153.188 79.25C155.966 60.3366 171.106 41.3635 186 30C203.379 17.4353 222.616 10.8486 244.178 10.8528ZM191 55C190.304 55.6626 189.608 56.3251 188.891 57.0078C176.163 69.9823 171.746 87.3733 171 105C182.654 105.605 190.848 104.89 199.812 97.0625C202.672 94.3465 205.444 91.5521 208.203 88.7344C219.739 76.9646 229.908 69.1474 246.954 68.8547C248.838 68.8415 250.722 68.8342 252.605 68.832C253.607 68.8287 254.609 68.8254 255.641 68.8219C257.748 68.8169 259.855 68.8145 261.962 68.8147C265.187 68.8125 268.413 68.7943 271.639 68.7754C273.69 68.7725 275.742 68.7705 277.793 68.7695C278.757 68.7623 279.72 68.7552 280.713 68.7477C281.611 68.7508 282.509 68.7539 283.434 68.7571C284.615 68.7549 284.615 68.7549 285.82 68.7528C288.325 69.0368 289.877 69.6473 292 71C294.015 74.0221 294.337 74.9173 294.438 78.375C294.497 79.5003 294.497 79.5003 294.559 80.6484C293.653 84.4628 292.191 85.7301 289 88C285.231 88.7441 281.521 88.7904 277.688 88.8125C276.661 88.8376 275.634 88.8628 274.576 88.8887C272.05 88.9474 269.526 88.9838 267 89C267.157 89.8405 267.315 90.6809 267.477 91.5469C269.045 101.892 269.19 111.225 263 120C257.663 126.294 251.204 130.432 242.922 131.336C234.09 131.445 227.682 129.913 220.188 125.25C217.197 122.174 215.118 118.713 213 115C208.921 116.531 205.162 118.465 201.312 120.5C191.09 125.698 182.375 126.321 171 126C172.674 140.54 178.067 150.4 189.277 159.937C202.51 169.802 218.47 174.8 234.441 178.094C237.503 179.178 238.948 180.509 241 183C242.486 187.776 242.094 191.462 240 196C235.159 197.822 230.678 198.286 225.535 198.414C224.518 198.443 224.518 198.443 223.48 198.473C221.341 198.532 219.202 198.579 217.062 198.625C215.601 198.663 214.139 198.702 212.678 198.742C209.119 198.838 205.559 198.922 202 199C202.086 199.563 202.171 200.126 202.26 200.706C204.957 218.582 206.164 235.927 206 254C213.799 249.836 213.799 249.836 221.312 245.187C224.551 243.149 227.081 242 231 242C234.975 243.529 236.619 244.428 239 248C239.775 253.425 239.041 256.373 236.324 261.121C235.779 262.09 235.233 263.058 234.671 264.056C234.12 265.028 233.568 265.999 233 267C212.077 305.152 194.435 349.12 191 393C192.544 392.57 194.085 392.13 195.625 391.687C196.484 391.444 197.342 391.2 198.227 390.949C199.142 390.636 200.057 390.323 201 390C202.027 389.661 203.055 389.322 204.113 388.973C208.356 386.073 209.093 382.531 210.562 377.75C212.6 371.334 214.613 366.186 219 361C223.193 358.949 225.911 358.637 230.375 360.125C233.105 362.075 233.816 362.96 235 366C235.489 372.335 232.98 377.523 230.332 383.109C221.593 402.073 221.727 424.096 221.688 444.625C221.684 445.367 221.68 446.109 221.677 446.873C221.648 457.712 222.527 468.264 224 479C241.225 480.163 256.174 473.018 269 462C277.971 454.052 286.666 445.885 294.457 436.762C296 435 296 435 297.762 433.77C299.521 431.255 298.998 429.238 298.507 426.319C297.57 422.032 296.352 417.836 295.125 413.625C285.513 379.477 283.827 340.774 296 307C297.907 303.845 298.445 303.185 302 302C310.477 301.692 310.477 301.692 313 303C317.055 310.531 314.015 319.269 311.801 326.958C309.018 337.529 308.632 348.194 308.688 359.062C308.69 360.145 308.69 360.145 308.692 361.249C308.756 378.484 311.073 394.492 316 411C319.544 408.33 322.279 405.622 325 402.125C329.222 396.851 333.717 391.912 338.337 386.987C341.149 383.99 343.936 380.984 346.625 377.875C353.689 369.712 361.04 361.886 368.727 354.309C370.793 352.21 372.72 350.058 374.625 347.812C377.419 344.552 380.427 341.817 383.699 339.047C386.587 336.478 389.287 333.751 392 331C395.927 327.024 399.898 323.193 404.184 319.598C406.564 317.504 408.774 315.257 411 313C409.55 312.273 409.55 312.273 408.07 311.531C400.004 307.41 392.771 303.102 386 297C385.367 296.437 384.734 295.873 384.082 295.293C376.858 288.483 367.895 277.777 366.562 267.687C367.303 263.14 367.303 263.14 369 261C372.767 258.784 375.121 257.937 379.5 258.25C384.513 260.757 386.841 264.477 390 269C398.261 280.14 406.512 287.879 419 294C419.993 294.536 420.985 295.072 422.008 295.625C425.407 297.033 427.335 297.492 431 297C435.385 294.624 438.976 291.153 442.652 287.828C447.036 283.865 451.722 280.537 456.625 277.25C457.419 276.714 458.213 276.178 459.031 275.626C465.954 270.981 472.951 266.45 480 262C479.279 261.424 478.559 260.848 477.816 260.254C476.887 259.51 475.958 258.766 475 258C473.776 257.024 473.776 257.024 472.527 256.027C465.413 250.287 458.654 244.26 452 238C451.241 237.306 450.481 236.613 449.699 235.898C437.935 224.758 418.392 203.22 416.625 186.437C417.026 182.761 417.712 180.881 420 178C423.634 176.789 426.925 176.913 430.703 176.973C432.257 176.985 433.81 176.998 435.363 177.01C437.803 177.034 440.243 177.062 442.683 177.096C445.044 177.126 447.405 177.144 449.766 177.16C450.486 177.174 451.206 177.187 451.948 177.201C456.72 177.224 460.521 176.485 465 175C461.926 171.234 458.909 167.819 455.188 164.687C436.041 148.302 423.171 125.687 413 103C412.339 101.664 411.673 100.33 411 99C409.064 99.0157 409.064 99.0157 407.088 99.0317C402.272 99.0681 397.456 99.0909 392.641 99.1099C390.561 99.1199 388.482 99.1335 386.402 99.1509C383.404 99.1753 380.405 99.1865 377.406 99.1953C376.485 99.2056 375.564 99.216 374.615 99.2266C369.062 99.2275 364.331 98.5721 359 97C357.594 92.5383 356.347 88.5801 358.062 84.0625C360.348 80.4492 360.954 80.0994 365 79C368.56 78.7058 372.109 78.699 375.68 78.6914C377.828 78.6662 379.977 78.6408 382.125 78.6152C385.486 78.5867 388.847 78.5627 392.208 78.5437C415.606 78.6477 415.606 78.6477 437.5 71.1875C438.172 70.8328 438.843 70.478 439.535 70.1125C452.958 62.8411 460.508 51.5357 465 37C465.345 35.3358 465.681 33.6694 466 32C437.575 31.9543 409.149 31.9189 380.724 31.8979C377.362 31.8954 374 31.8928 370.639 31.8901C369.969 31.8896 369.3 31.8891 368.611 31.8885C357.798 31.8799 346.986 31.8641 336.174 31.8457C325.066 31.8269 313.958 31.816 302.85 31.8118C296.616 31.8092 290.383 31.8031 284.149 31.7885C278.274 31.7749 272.399 31.7708 266.524 31.7738C264.375 31.7732 262.227 31.7693 260.078 31.7616C233.465 31.6708 210.5 35.2957 191 55ZM233 96C230.655 99.5182 230.42 100.858 231 105C232.937 108.02 232.937 108.02 236 110C239.998 110.631 242.007 110.679 245.375 108.375C247.385 105.437 247.927 103.56 248 100C246.631 96.4556 245.548 95.2921 242.188 93.5C238.102 92.8591 236.411 93.752 233 96ZM94 111C93.2857 111.199 92.5714 111.399 91.8354 111.604C73.6444 116.815 56.162 125.145 43 139C42.4805 139.452 41.961 139.905 41.4258 140.371C28.7195 151.821 22.521 170.445 21 187C20.8821 189.695 20.8942 192.302 21 195C23.4112 193.845 25.6976 192.589 28.0039 191.23C40.5954 183.901 53.6914 180.296 68.165 178.893C69.447 178.768 69.447 178.768 70.7549 178.64C81.2148 177.7 91.677 177.645 102.172 177.586C104.318 177.567 106.464 177.548 108.61 177.527C114.187 177.477 119.763 177.437 125.339 177.399C131.058 177.359 136.777 177.308 142.496 177.258C153.664 177.162 164.832 177.077 176 177C173.529 174.527 171.056 172.056 168.57 169.598C154.486 154.996 150.633 138.573 150.312 118.75C150.279 117.311 150.245 115.872 150.209 114.434C150.125 110.956 150.058 107.478 150 104C131.051 103.407 112.249 105.84 94 111ZM89 199C89 199.33 89 199.66 89 200C100.613 202.103 112.238 203.936 123.945 205.426C125.4 205.612 125.4 205.612 126.884 205.803C131.768 206.428 136.653 207.039 141.542 207.629C155.778 209.404 169.418 212.337 183 217C182.883 215.499 182.756 213.999 182.625 212.5C182.521 211.247 182.521 211.247 182.414 209.969C181.897 206.261 180.908 202.632 180 199C149.97 199 119.94 199 89 199Z" fill="black"/>
<path d="M112 119C115.152 120.811 116.566 122.251 118.375 125.375C119.164 128.691 118.955 130.726 118 134C114.847 138.576 114.847 138.576 112 140C104.949 140.578 104.949 140.578 101.125 138.25C97.6643 134.586 96.9804 133.236 97.0625 128.062C97.5773 124.968 98.1832 123.725 100 121C104.066 118.289 107.244 118.068 112 119Z" fill="black"/>
</g>
<defs>
<clipPath id="clip0_111_49">
<rect width="512" height="512" fill="white"/>
</clipPath>
</defs>
</svg>
