<svg width="512" height="512" viewBox="0 0 512 512" fill="none" xmlns="http://www.w3.org/2000/svg">
<g clip-path="url(#clip0_10_77)">
<path d="M321.375 -0.375033C322.625 -0.374217 322.625 -0.374217 323.899 -0.373385C337.92 -0.33146 351.326 0.706389 365 3.99997C366.333 4.31345 366.333 4.31345 367.692 4.63327C403.011 13.1905 433.394 31.5177 459 57C459.535 57.5306 460.069 58.0612 460.62 58.6079C494.682 92.8516 512.493 141.54 512.375 189.375C512.374 190.625 512.374 190.625 512.373 191.899C512.331 205.92 511.294 219.326 508 233C507.686 234.333 507.686 234.333 507.367 235.692C498.717 271.393 479.913 302.262 454 328C453.492 328.505 452.984 329.01 452.461 329.53C424.466 356.987 386.508 373.651 348 379C346.748 379.174 345.495 379.349 344.205 379.528C340.13 380.03 336.072 380.193 331.969 380.238C331.224 380.248 330.479 380.258 329.711 380.268C312.461 380.449 295.857 380.109 279 376C278.008 375.759 277.015 375.517 275.993 375.269C252.82 369.432 231.593 359.684 212 346C205.676 348.511 200.837 354.554 196.053 359.247C194.767 360.499 193.471 361.74 192.165 362.971C190.275 364.751 188.421 366.562 186.57 368.383C185.688 369.197 185.688 369.197 184.787 370.028C183.187 371.646 181.993 372.951 181 375C181.135 378.018 181.941 380.106 183 383C184.184 392.441 181.501 400.304 175.841 407.743C172.509 411.828 168.787 415.516 165.064 419.242C164.185 420.13 163.306 421.017 162.4 421.931C160.007 424.344 157.61 426.752 155.209 429.158C153.704 430.667 152.201 432.177 150.697 433.687C145.437 438.972 140.171 444.251 134.9 449.526C130.012 454.417 125.137 459.322 120.269 464.232C116.067 468.469 111.855 472.696 107.636 476.916C105.126 479.427 102.62 481.941 100.123 484.466C97.3337 487.287 94.5239 490.088 91.7123 492.887C90.9046 493.709 90.0969 494.532 89.2648 495.379C77.9347 506.568 65.9177 512.216 50.1249 512.437C35.6936 512.342 23.9907 507.62 13.2499 497.812C2.11653 485.876 -0.80278 472.591 -0.343808 456.855C0.492736 441.352 9.62174 429.762 20.2648 419.202C21.1666 418.291 22.0684 417.381 22.9975 416.443C25.443 413.975 27.9007 411.52 30.3617 409.068C32.4256 407.009 34.4833 404.944 36.541 402.879C41.3983 398.005 46.2657 393.141 51.1398 388.284C56.1483 383.292 61.1401 378.284 66.1239 373.268C70.425 368.94 74.7359 364.622 79.0546 360.312C81.6246 357.747 84.191 355.179 86.7482 352.601C89.6003 349.727 92.4725 346.874 95.3469 344.022C96.1789 343.178 97.0109 342.335 97.8681 341.465C105.422 334.032 113.454 328.912 124.312 328.812C125.01 328.798 125.707 328.784 126.426 328.77C129 329 129 329 132.716 330.399C135.283 331.043 136.454 331.282 138.831 330.052C140.738 328.422 142.426 326.698 144.125 324.852C144.757 324.205 145.39 323.559 146.041 322.892C148.052 320.826 150.026 318.727 152 316.625C153.358 315.216 154.719 313.81 156.082 312.406C159.415 308.963 162.715 305.49 166 302C164.478 298.051 162.656 294.697 160.375 291.125C141.465 260.786 131.534 227.012 131.625 191.187C131.625 190.38 131.626 189.572 131.627 188.74C131.785 137.367 152.1 90.5477 188 54C188.525 53.4637 189.051 52.9275 189.592 52.375C216.036 25.763 252.258 8.54421 289 1.99997C289.995 1.82192 290.991 1.64386 292.016 1.46042C301.825 -0.124147 311.466 -0.399473 321.375 -0.375033ZM286 24C284.804 24.29 284.804 24.29 283.583 24.5859C238.106 35.7612 200.338 63.4578 176.003 103.454C153.135 141.897 146.515 187.713 157.215 231.066C166.21 265.473 185.571 298.928 214 321C214.5 321.391 215 321.781 215.516 322.184C251.781 350.288 296.32 364.069 342.15 358.75C386.925 353.029 427.889 330.173 455.771 294.604C471.676 273.84 481.779 251.308 488 226C488.179 225.308 488.359 224.616 488.543 223.902C493.882 202.571 493.483 175.247 488 154C487.807 153.202 487.613 152.405 487.414 151.583C476.167 105.813 448.288 68.0102 408.016 43.5507C392.302 34.2679 375.666 28.4007 358 24C356.957 23.7288 356.957 23.7288 355.893 23.4521C334.565 18.1173 307.243 18.5179 286 24ZM177.408 320.478C176.268 321.619 175.131 322.761 173.996 323.906C173.398 324.506 172.8 325.105 172.184 325.722C170.266 327.646 168.352 329.573 166.437 331.5C165.141 332.801 163.845 334.102 162.549 335.402C159.363 338.599 156.181 341.799 153 345C153.955 346.121 154.911 347.242 155.868 348.362C156.4 348.986 156.932 349.61 157.481 350.252C159.202 352.232 161.002 354.102 162.875 355.937C163.917 356.958 164.958 357.979 166 359C172.366 353.755 178.136 347.979 183.937 342.125C184.917 341.14 185.897 340.156 186.877 339.172C189.254 336.783 191.628 334.393 194 332C190.828 328.252 187.67 324.529 184.187 321.062C183.603 320.476 183.02 319.889 182.418 319.285C179.924 317.025 180.096 317.908 177.408 320.478ZM117 353C113.903 355.657 111.034 358.525 108.152 361.412C106.849 362.7 106.849 362.7 105.519 364.015C103.145 366.365 100.778 368.722 98.4155 371.083C96.9347 372.561 95.4517 374.038 93.9679 375.514C88.7793 380.675 83.5984 385.843 78.4247 391.019C73.6226 395.823 68.804 400.61 63.9773 405.389C59.8185 409.509 55.6716 413.64 51.5334 417.78C49.0687 420.245 46.5996 422.706 44.1186 425.155C41.3445 427.894 38.5953 430.658 35.8476 433.424C34.6317 434.614 34.6317 434.614 33.3913 435.829C26.9648 442.362 22.1 449.737 20.2031 458.812C20.341 468.191 22.4934 475.678 28.6406 482.937C30.3423 484.528 32.0251 485.768 33.9999 487C34.6445 487.41 35.289 487.82 35.9531 488.242C42.4858 491.75 49.7743 492.34 56.9999 491C65.7413 487.494 72.13 482.742 78.684 476.076C79.5701 475.199 80.4563 474.322 81.3692 473.418C83.7664 471.039 86.1495 468.646 88.5264 466.247C91.0291 463.725 93.547 461.218 96.0627 458.709C100.277 454.501 104.48 450.28 108.675 446.052C113.516 441.173 118.377 436.314 123.249 431.465C127.954 426.781 132.644 422.083 137.329 417.379C139.315 415.385 141.307 413.395 143.302 411.41C146.086 408.638 148.849 405.847 151.61 403.053C152.435 402.237 153.26 401.42 154.109 400.579C158.357 396.243 161.188 393.115 162 387C160.257 381.626 156.519 378.052 152.609 374.141C151.986 373.51 151.364 372.88 150.722 372.23C149.408 370.905 148.09 369.584 146.768 368.267C144.756 366.256 142.766 364.225 140.777 362.191C139.493 360.902 138.208 359.615 136.922 358.328C136.333 357.723 135.744 357.118 135.138 356.494C129.297 350.749 124.44 348.426 117 353Z" fill="currentColor"/>
<path d="M424.273 79.4844C426.914 81.9903 426.914 81.9903 429.586 84.0196C455.716 105.457 469.078 144.569 472.406 176.953C475.812 216.575 463.238 256.108 437.976 286.754C434.816 290.345 431.442 293.682 428 297C427.208 297.803 426.417 298.606 425.601 299.434C397.487 327.168 358.956 340.63 319.912 340.493C278.839 340.055 241.64 323.288 212.819 294.241C193.943 274.674 181.657 250.203 175 224C174.819 223.296 174.638 222.593 174.452 221.868C169.492 201.469 169.792 176.307 175 156C175.199 155.213 175.397 154.426 175.602 153.615C178.058 144.172 181.163 135.035 185 126.063C185.308 125.323 185.615 124.584 185.932 123.822C188.152 118.877 190.472 116.036 195 113C198.13 112.126 200.838 112.278 204 113C207.254 115.305 208.605 117 210.062 120.688C209.949 126.716 206.991 131.814 204.535 137.231C192.461 164.42 190.004 195.263 198 224C198.182 224.671 198.364 225.343 198.551 226.034C207.535 258.228 229.837 285.893 258.812 302.25C289.017 318.759 324.928 323.113 358.094 313.559C380.082 306.884 397.426 295.736 414 280C414.635 279.441 415.271 278.881 415.926 278.305C438.771 257.476 449.578 223.282 451 193.297C451.426 160.973 440.101 129.422 419 105C418.099 104.13 418.099 104.13 417.18 103.242C416 102 416 102 416 100C415.399 99.7319 414.798 99.4638 414.18 99.1876C411.965 97.981 410.787 96.8691 409.125 95.0001C403.76 89.474 397.346 85.3067 391 81.0001C390.199 80.4419 389.399 79.8837 388.574 79.3087C360.92 61.282 325.674 57.8656 294 64.0001C283.872 66.2079 274.507 69.7889 265.237 74.409C260.216 76.8215 256.582 77.5308 251 77.0001C248.19 75.2064 246.49 73.9812 245 71.0001C244.301 64.0114 244.301 64.0114 247.105 59.9532C260.354 45.1235 292.41 40.9496 311 39.1876C353.013 37.1466 393.522 50.4742 424.273 79.4844Z" fill="currentColor"/>
<path d="M231.375 83.75C233.473 86.6547 233.929 88.4108 234 92C232.55 96.3499 231.851 98.4326 228 101C223.407 101.74 219.975 101.61 216 99.125C212.697 95.6157 212.603 92.9356 212.648 88.2617C213 86 213 86 215.25 83C220.855 78.9236 225.661 79.5401 231.375 83.75Z" fill="currentColor"/>
</g>
<defs>
<clipPath id="clip0_10_77">
<rect width="512" height="512" fill="white"/>
</clipPath>
</defs>
</svg>
