<svg width="512" height="512" viewBox="0 0 512 512" fill="none" xmlns="http://www.w3.org/2000/svg">
<path d="M253.297 13.6954C260.267 19.0348 265.782 26.4536 268 35.0001C268.318 37.9428 268.381 40.8542 268.375 43.8126C268.373 44.6122 268.372 45.4117 268.37 46.2355C268.182 55.2896 264.972 60.6043 260 68.0001C260.865 67.8557 261.73 67.7114 262.621 67.5626C306.11 61.1528 348.437 73.2072 383.816 99.0475C385.556 100.35 387.281 101.67 389 103C389.631 103.489 390.262 103.977 390.913 104.48C401.114 112.445 410.717 120.985 420 130C420.607 130.589 421.213 131.178 421.838 131.785C425.222 135.116 428.327 138.498 431.25 142.25C442.769 156.487 455.12 165.467 471.492 173.461C478.576 177.129 478.576 177.129 480.742 181.582C481.537 192.116 472.949 202.065 466.715 209.856C452.532 226.206 434.34 235.685 414.425 243.375C391.443 252.456 379.825 274.79 368.651 295.501C368.214 296.306 367.778 297.112 367.328 297.942C366.939 298.669 366.55 299.397 366.149 300.147C364.488 302.826 362.976 303.984 360 305C356.576 304.93 354.718 304.579 352.039 302.418C349.455 299.354 348.011 296.017 346.438 292.375C340.036 278.219 331.759 265.082 322 253C321.556 252.444 321.112 251.887 320.654 251.314C312.105 240.677 302.681 231.222 291 224C288.922 223.783 288.922 223.783 287.492 225.293C284.106 229.26 282.623 232.18 282.754 237.438C282.781 238.59 282.807 239.742 282.834 240.929C282.886 242.286 282.942 243.643 283 245C283.031 245.764 283.062 246.527 283.094 247.313C283.369 253.816 283.712 260.314 284.059 266.813C284.169 268.915 284.278 271.018 284.388 273.12C284.617 277.508 284.848 281.895 285.081 286.282C285.378 291.873 285.671 297.464 285.962 303.055C286.188 307.391 286.416 311.727 286.644 316.063C286.753 318.124 286.861 320.184 286.968 322.244C287.523 332.841 288.1 343.426 289 354C290.065 354.473 291.13 354.946 292.227 355.434C329.948 372.491 359.984 402.206 374.833 441.186C380.614 457.027 384.134 472.839 384.312 489.75C384.342 490.682 384.371 491.614 384.4 492.574C384.409 493.473 384.417 494.371 384.426 495.297C384.448 496.509 384.448 496.509 384.47 497.745C383.816 500.884 382.449 501.978 380 504C377.61 504.502 377.61 504.502 374.896 504.503C373.341 504.519 373.341 504.519 371.755 504.535C370.618 504.526 369.48 504.517 368.309 504.508C366.495 504.517 366.495 504.517 364.644 504.527C361.286 504.54 357.928 504.535 354.57 504.523C350.949 504.514 347.328 504.528 343.707 504.539C336.612 504.557 329.518 504.553 322.424 504.541C316.659 504.532 310.895 504.531 305.13 504.535C303.901 504.536 303.901 504.536 302.646 504.537C300.981 504.539 299.315 504.54 297.65 504.541C282.027 504.553 266.404 504.539 250.781 504.518C237.369 504.5 223.958 504.503 210.547 504.522C194.98 504.543 179.414 504.551 163.847 504.539C162.188 504.538 160.529 504.537 158.87 504.535C158.053 504.535 157.237 504.534 156.396 504.534C150.637 504.53 144.878 504.536 139.119 504.545C132.102 504.556 125.086 504.553 118.07 504.532C114.488 504.522 110.907 504.518 107.326 504.531C103.448 504.545 99.5698 504.528 95.6914 504.508C93.9854 504.521 93.9854 504.521 92.2449 504.535C91.2083 504.525 90.1718 504.514 89.1038 504.503C88.2083 504.503 87.3128 504.502 86.3902 504.502C83.2251 503.838 82.0146 502.472 80 500C79.4824 497.86 79.4824 497.86 79.4688 495.535C79.4605 494.664 79.4523 493.792 79.4438 492.894C79.4716 491.492 79.4716 491.492 79.5 490.063C79.5121 489.088 79.5242 488.114 79.5366 487.11C80.6065 446.895 100.404 410.307 128.918 382.84C136.444 375.796 144.652 370.016 153.5 364.75C154.477 364.168 154.477 364.168 155.473 363.574C159.801 361.076 164.241 358.93 168.783 356.849C169.949 356.314 171.115 355.779 172.316 355.227C173.201 354.822 174.087 354.417 175 354C175.245 349.714 175.49 345.427 175.734 341.141C175.773 340.465 175.811 339.79 175.851 339.093C176.336 330.582 176.817 322.07 177.29 313.558C177.358 312.333 177.358 312.333 177.428 311.082C177.616 307.711 177.803 304.339 177.99 300.967C178.542 291.035 179.108 281.104 179.706 271.174C180.217 262.68 180.711 254.184 181.188 245.688C181.23 244.921 181.273 244.154 181.318 243.364C183.509 203.937 183.832 164.481 184 125C183.057 124.693 182.113 124.385 181.141 124.068C178.404 123.138 176.1 122.108 173.586 120.707C172.757 120.25 171.929 119.792 171.075 119.321C170.184 118.823 169.293 118.325 168.375 117.813C166.399 116.722 164.422 115.632 162.445 114.543C161.399 113.966 160.353 113.389 159.274 112.795C153.622 109.697 147.935 106.663 142.25 103.625C139.87 102.352 137.49 101.078 135.109 99.8048C134.519 99.489 133.929 99.1733 133.321 98.8479C123.883 93.7984 114.455 88.731 105.039 83.6403C102.029 82.0159 99.0147 80.4005 96 78.7853C94.1664 77.7949 92.3331 76.804 90.5 75.8126C89.6628 75.3669 88.8255 74.9212 87.9629 74.462C86.8211 73.8409 86.8211 73.8409 85.6562 73.2071C84.9943 72.8511 84.3324 72.4951 83.6504 72.1283C82 71.0001 82 71.0001 80 68.0001C79.304 60.3518 81.1601 54.3375 83.75 47.1876C84.098 46.1647 84.4461 45.1419 84.8047 44.088C88.0995 34.7709 88.0995 34.7709 92 32.0001C98.1365 31.2818 102.488 32.5712 108.062 35.0157C108.831 35.3391 109.6 35.6624 110.392 35.9955C112.06 36.699 113.724 37.409 115.387 38.1248C118.044 39.2691 120.709 40.3956 123.375 41.5179C128.223 43.5613 133.065 45.6197 137.904 47.6818C146.497 51.341 155.097 54.9813 163.707 58.6008C166.823 59.9156 169.933 61.244 173.043 62.5734C174.984 63.392 176.926 64.2101 178.867 65.0275C179.73 65.4007 180.593 65.7739 181.483 66.1585C189.717 69.5938 198.063 71.3973 207 71.0001C206.42 70.3814 206.42 70.3814 205.828 69.7501C196.795 59.7327 195.241 50.2234 195.816 37.047C196.219 32.5609 197.776 28.8648 200 25.0001C200.362 24.3582 200.724 23.7162 201.098 23.0548C206.612 14.4195 215.784 9.65359 225.574 7.41027C235.409 5.74742 245.092 8.05851 253.297 13.6954ZM215 33.5626C212.094 38.8193 211.928 44.1705 213 50.0001C215.209 55.2343 218.672 59.9089 223.887 62.4064C230.106 64.1538 236.72 64.1948 242.438 61.0001C247.379 57.2967 250.416 53.2742 251.512 47.1329C251.887 40.5736 250.822 36.0481 246.754 30.8478C242.259 26.1126 238.623 24.7677 232.062 24.4376C224.411 24.7341 219.574 27.4597 215 33.5626ZM101 52.0001C99.4021 55.3509 99.4021 55.3509 99.137 58.9869C100.385 61.8979 102.083 62.5149 104.871 63.961C106.425 64.7809 106.425 64.7809 108.01 65.6173C109.706 66.4874 109.706 66.4874 111.438 67.3751C113.221 68.3118 115.005 69.2485 116.788 70.1865C118.639 71.158 120.493 72.1239 122.347 73.089C127.929 76.001 133.462 79.0049 139 82.0001C141.159 83.1633 143.317 84.3261 145.477 85.4884C146.548 86.0654 147.62 86.6424 148.724 87.2369C152.052 89.028 155.381 90.817 158.711 92.6056C164.119 95.511 169.523 98.4223 174.924 101.339C176.97 102.444 179.017 103.547 181.064 104.649C183.9 106.177 186.732 107.712 189.562 109.25C190.408 109.704 191.253 110.158 192.125 110.626C192.889 111.043 193.654 111.461 194.441 111.891C195.109 112.252 195.776 112.613 196.463 112.985C198 114 198 114 199 116C199.125 118.877 199.189 121.73 199.209 124.608C199.218 125.51 199.228 126.412 199.238 127.341C199.268 130.384 199.289 133.426 199.309 136.469C199.316 137.533 199.324 138.596 199.332 139.692C199.388 147.961 199.417 156.231 199.438 164.5C199.441 165.719 199.445 166.938 199.449 168.195C199.596 220.786 197.211 273.06 193.915 325.548C193.853 326.538 193.792 327.529 193.728 328.549C193.615 330.368 193.499 332.186 193.381 334.004C193.068 339.014 192.949 343.98 193 349C196.96 348.01 200.92 347.02 205 346C206.614 338.397 207.77 330.81 208.756 323.102C209.006 321.181 209.256 319.26 209.506 317.339C209.771 315.295 210.035 313.25 210.299 311.205C210.85 306.931 211.406 302.657 211.964 298.383C213.549 286.237 215.125 274.09 216.696 261.943C217.566 255.218 218.44 248.493 219.32 241.769C219.875 237.523 220.424 233.276 220.969 229.028C221.389 225.768 221.817 222.51 222.244 219.251C222.393 218.078 222.541 216.906 222.695 215.698C222.837 214.62 222.98 213.542 223.128 212.431C223.248 211.498 223.369 210.564 223.494 209.602C224.029 206.853 224.785 204.523 226 202C229.115 200.442 232.604 200.435 236 201C239.008 203.33 239.512 205.322 240.043 209.018C240.195 210.04 240.347 211.062 240.504 212.115C240.732 213.779 240.732 213.779 240.965 215.477C241.133 216.637 241.301 217.796 241.474 218.991C241.999 222.659 242.503 226.329 243 230C243.152 231.123 243.305 232.247 243.462 233.404C244.374 240.189 245.249 246.978 246.109 253.77C246.581 257.482 247.058 261.194 247.537 264.906C248.895 275.435 250.25 285.964 251.585 296.496C252.408 302.992 253.244 309.486 254.088 315.979C254.406 318.441 254.719 320.903 255.027 323.365C255.455 326.781 255.899 330.194 256.346 333.607C256.469 334.622 256.592 335.636 256.719 336.681C256.844 337.607 256.968 338.533 257.097 339.486C257.199 340.291 257.302 341.095 257.408 341.923C258.115 344.404 258.99 345.412 261 347C263.494 347.788 263.494 347.788 266.188 348.188C267.089 348.346 267.99 348.505 268.918 348.668C269.949 348.832 269.949 348.832 271 349C270.575 334.726 269.878 320.485 268.974 306.234C266.105 260.824 264.49 215.541 264.5 170.034C264.5 166.247 264.494 162.461 264.488 158.674C264.48 152.712 264.491 146.75 264.518 140.788C264.527 138.581 264.531 136.374 264.531 134.167C264.532 131.149 264.553 128.132 264.58 125.114C264.577 124.227 264.574 123.339 264.571 122.425C264.655 116.456 264.655 116.456 266.294 114.291C268.678 112.487 270.911 112.343 273.844 112.464C276.481 113.12 277.685 114.123 279.68 115.957C280.372 116.591 281.064 117.226 281.777 117.879C285.717 121.639 289.596 125.452 293.438 129.313C294.252 130.123 295.066 130.933 295.904 131.768C297.063 132.929 297.063 132.929 298.246 134.113C298.944 134.812 299.642 135.512 300.361 136.232C303.017 139.097 303.525 141.563 303.469 145.472C302.524 150.569 299.64 154.917 297.044 159.342C295.987 161.147 294.955 162.965 293.927 164.787C291.146 169.696 288.337 174.573 285.223 179.281C279.375 188.333 279.089 195.552 280 206C283.764 202.545 286.495 198.619 289.375 194.438C293.839 188.028 298.404 181.707 303.062 175.438C305.382 172.297 307.693 169.15 310 166C310.552 165.247 311.105 164.494 311.674 163.717C313.236 161.572 314.777 159.414 316.312 157.25C316.775 156.619 317.237 155.988 317.713 155.338C320.555 151.277 321.972 148.1 322 143C320.165 135.807 316.123 130.753 311.562 125C310.115 123.144 308.668 121.287 307.223 119.43C306.507 118.516 305.792 117.601 305.055 116.659C302.643 113.538 300.315 110.36 297.994 107.171C288.969 94.7021 288.969 94.7021 275.353 88.4699C271.546 87.9365 267.816 87.8555 263.982 87.8583C263.201 87.8548 262.419 87.8513 261.614 87.8477C259.925 87.8404 258.236 87.8351 256.546 87.8315C253.862 87.8242 251.179 87.8085 248.495 87.7901C240.867 87.7379 233.238 87.6897 225.61 87.6742C220.934 87.664 216.259 87.6346 211.584 87.5929C209.813 87.5806 208.042 87.5754 206.271 87.5777C196.09 87.5874 187.509 87.0584 178 83.0001C177.114 82.6516 176.229 82.3031 175.316 81.944C172.609 80.8709 169.925 79.7529 167.242 78.6212C166.263 78.2121 165.283 77.803 164.274 77.3815C161.14 76.0709 158.007 74.7542 154.875 73.4376C152.718 72.5352 150.561 71.6332 148.404 70.7316C139.315 66.9297 130.234 63.1122 121.176 59.2384C119.962 58.7203 118.749 58.2021 117.499 57.6683C115.354 56.7497 113.212 55.8261 111.072 54.8964C110.155 54.5026 109.238 54.1089 108.293 53.7032C107.525 53.3697 106.757 53.0361 105.966 52.6925C103.876 51.834 103.876 51.834 101 52.0001ZM302 84.0001C306.287 90.6395 310.919 96.9362 315.75 103.188C325.718 116.208 325.718 116.208 329.812 121.813C330.561 122.83 331.31 123.847 332.082 124.895C337.091 133.005 339.109 142.164 337.375 151.625C335.019 160.053 329.709 167.048 324.5 173.938C323.262 175.597 322.025 177.257 320.789 178.918C320.163 179.756 319.537 180.595 318.892 181.459C315.858 185.535 312.861 189.638 309.875 193.75C309.077 194.839 309.077 194.839 308.264 195.949C305.205 200.167 302.501 204.429 300 209C301.125 209.818 301.125 209.818 302.273 210.652C309.205 215.76 315.729 221.083 322 227C323.089 227.992 323.089 227.992 324.199 229.004C338.344 242.387 348.864 259.947 358 277C360.785 273.704 363.062 270.334 365.246 266.633C376.563 247.566 389.819 234.481 410.565 226.376C423.458 221.334 435.73 215.452 446 206C446.801 205.268 447.601 204.536 448.426 203.781C453.187 199.23 456.767 194.736 460 189C457.745 186.368 455.114 184.832 452.114 183.147C437.92 175.157 426.99 164.481 416.443 152.185C405.456 139.484 393.555 127.918 380 118C378.872 117.154 377.745 116.308 376.617 115.461C355.201 99.5734 329.191 85.3158 302 84.0001ZM280 141C280 145.29 280 149.58 280 154C282.408 150.79 283.682 148.65 285 145C283.35 143.68 281.7 142.36 280 141ZM231 277C229.952 284.849 228.909 292.699 227.871 300.549C227.389 304.195 226.905 307.84 226.418 311.485C225.948 315.006 225.481 318.527 225.017 322.048C224.754 324.039 224.487 326.029 224.22 328.02C224.06 329.241 223.899 330.462 223.734 331.719C223.592 332.79 223.45 333.86 223.304 334.963C223.004 337.962 223 340.986 223 344C228.94 344 234.88 344 241 344C240.272 330.11 238.298 316.401 236.438 302.625C236.104 300.136 235.772 297.646 235.439 295.156C234.631 289.104 233.817 283.052 233 277C232.34 277 231.68 277 231 277ZM201 376C199.966 377.017 199.966 377.017 198.91 378.055C190.506 386.875 184.791 397.759 179.875 408.813C179.567 409.5 179.26 410.188 178.943 410.897C178.229 412.571 177.605 414.284 177 416C177.33 416.66 177.66 417.32 178 418C180.396 418.396 182.698 418.661 185.113 418.852C186.2 418.947 186.2 418.947 187.31 419.045C188.854 419.179 190.398 419.308 191.943 419.433C194.266 419.621 196.587 419.825 198.908 420.031C200.414 420.16 201.92 420.288 203.426 420.414C204.104 420.474 204.783 420.533 205.482 420.594C211.708 421.087 217.687 421 224 421C224 401.53 224 382.06 224 362C214.759 362 207.12 369.89 201 376ZM240 362C240 381.47 240 400.94 240 421C250.324 421.009 250.324 421.009 260.574 420.414C261.31 420.352 262.045 420.29 262.802 420.227C264.327 420.097 265.852 419.964 267.377 419.828C269.721 419.622 272.066 419.432 274.412 419.242C275.904 419.113 277.395 418.983 278.887 418.852C279.588 418.796 280.289 418.741 281.011 418.684C282.682 418.528 284.344 418.273 286 418C286.495 417.01 286.495 417.01 287 416C285.964 413.177 284.86 410.486 283.625 407.75C283.261 406.943 282.898 406.135 282.523 405.303C277.073 393.517 270.221 383.221 261 374C260.014 373.014 260.014 373.014 259.008 372.008C253.917 367.244 247.221 362 240 362ZM177.137 371.646C176.101 372.187 176.101 372.187 175.043 372.738C174.267 373.141 173.491 373.544 172.692 373.959C171.865 374.405 171.039 374.852 170.188 375.313C169.335 375.77 168.483 376.227 167.605 376.698C157.036 382.481 147.689 389.249 138.75 397.313C137.926 398.05 137.926 398.05 137.084 398.802C134 401.683 132.421 404.068 131 408C134.707 408.984 138.416 409.961 142.125 410.938C143.172 411.215 144.218 411.493 145.297 411.779C146.824 412.181 146.824 412.181 148.383 412.59C149.315 412.836 150.247 413.082 151.208 413.336C154.124 414.03 157.038 414.54 160 415C160.329 414.042 160.657 413.085 160.996 412.098C166.081 397.702 172.697 384.175 182 372C179.186 370.724 179.186 370.724 177.137 371.646ZM282 371C283.86 374.332 285.753 377.611 287.801 380.832C294.464 391.325 299.919 402.237 304 414C314.019 413.507 323.385 410.675 333 408C331.569 403.143 328.641 400.265 325 396.938C324.388 396.375 323.775 395.813 323.145 395.234C313.574 386.697 295.489 371 282 371ZM119 422C104.142 437.385 97 467.432 97 488C113.5 488 130 488 147 488C147.412 483.339 147.825 478.678 148.25 473.875C149.403 461.418 151.095 449.231 153.68 436.982C154.106 434.677 154.106 434.677 154 431C153.114 430.769 152.229 430.539 151.316 430.301C143.347 428.203 135.429 425.991 127.549 423.576C124.592 422.684 122.108 422 119 422ZM336.484 423.461C335.398 423.768 334.311 424.075 333.191 424.391C332.056 424.716 330.92 425.04 329.75 425.375C328.63 425.692 327.51 426.009 326.355 426.336C323.236 427.22 320.118 428.109 317 429C315.833 429.333 315.833 429.333 314.643 429.673C313.095 430.115 311.547 430.557 310 431C310.795 438.913 312.067 446.702 313.451 454.531C315.321 465.71 316.006 476.57 317 488C333.5 488 350 488 367 488C367 465.313 358.834 443.18 347 424C346.34 423.34 345.68 422.68 345 422C341.834 422 339.525 422.597 336.484 423.461ZM172 434C169.479 440.923 168.019 447.669 166.875 454.938C166.706 455.958 166.537 456.978 166.363 458.029C164.723 468.151 164 477.674 164 488C183.8 488 203.6 488 224 488C224 471.5 224 455 224 438C215.834 437.372 207.667 436.744 199.501 436.116C198.315 436.024 198.315 436.024 197.105 435.931C195.964 435.844 195.964 435.844 194.801 435.754C193.11 435.624 191.42 435.494 189.729 435.364C188.93 435.302 188.131 435.241 187.308 435.178C182.205 434.785 177.103 434.393 172 434ZM278.938 434.875C265.989 436.316 252.996 437.113 240 438C240 454.5 240 471 240 488C259.8 488 279.6 488 300 488C300.082 479.562 300.082 479.562 299.484 471.309C299.369 470.352 299.255 469.396 299.136 468.411C298.945 466.939 298.945 466.939 298.75 465.438C298.553 463.89 298.553 463.89 298.352 462.31C297.301 447.274 297.301 447.274 292 434C287.611 433.75 283.289 434.37 278.938 434.875Z" fill="currentColor"/>
</svg>
