<svg width="512" height="512" viewBox="0 0 512 512" fill="none" xmlns="http://www.w3.org/2000/svg">
<path d="M31.2933 13.3733C32.6895 13.3468 34.0864 13.3482 35.4826 13.3708C36.255 13.3635 37.0275 13.3563 37.8234 13.3488C40.4335 13.3304 43.0423 13.348 45.6524 13.3651C47.5338 13.3593 49.4151 13.3514 51.2965 13.3415C56.4832 13.3205 61.6694 13.331 66.8561 13.3464C72.4431 13.3577 78.03 13.3403 83.617 13.3265C94.5686 13.3042 105.52 13.3091 116.471 13.3236C125.369 13.3348 134.266 13.3364 143.163 13.3309C145.06 13.3298 145.06 13.3298 146.994 13.3286C149.562 13.327 152.13 13.3254 154.698 13.3238C178.115 13.3099 201.531 13.3243 224.948 13.3505C246.337 13.3742 267.726 13.3721 289.115 13.3482C313.13 13.3214 337.145 13.3109 361.161 13.3262C363.72 13.3278 366.279 13.3294 368.837 13.3309C370.097 13.3317 371.356 13.3325 372.653 13.3333C381.544 13.3376 390.435 13.3303 399.325 13.3185C410.154 13.3045 420.983 13.3083 431.812 13.3349C437.341 13.3481 442.87 13.3532 448.4 13.3367C453.455 13.3219 458.51 13.3299 463.566 13.3566C465.401 13.3622 467.236 13.3593 469.071 13.3472C471.554 13.3321 474.035 13.3475 476.518 13.3708C477.602 13.3533 477.602 13.3533 478.708 13.3353C480.707 13.3733 480.707 13.3733 484 14C486.907 17.2927 487.376 20.0929 487.378 24.3958C487.386 25.4721 487.393 26.5484 487.402 27.6573C487.395 28.8338 487.388 30.0104 487.381 31.2226C487.386 32.477 487.391 33.7313 487.395 35.0238C487.408 38.5032 487.402 41.9823 487.392 45.4618C487.386 49.2151 487.396 52.9683 487.404 56.7216C487.418 64.0733 487.415 71.425 487.406 78.7767C487.399 84.751 487.398 90.7253 487.402 96.6996C487.402 97.5495 487.403 98.3994 487.403 99.2751C487.404 101.002 487.405 102.728 487.406 104.455C487.415 120.649 487.405 136.843 487.389 153.037C487.375 166.935 487.378 180.834 487.391 194.733C487.407 210.869 487.414 227.004 487.405 243.14C487.404 244.86 487.403 246.58 487.402 248.3C487.401 249.147 487.401 249.993 487.4 250.865C487.398 256.833 487.402 262.801 487.409 268.769C487.418 276.041 487.415 283.312 487.399 290.584C487.391 294.295 487.388 298.006 487.398 301.717C487.409 305.737 487.396 309.757 487.381 313.777C487.388 314.954 487.395 316.131 487.402 317.343C487.394 318.419 487.386 319.495 487.378 320.604C487.377 321.996 487.377 321.996 487.376 323.416C486.811 327.297 485.108 329.988 482.233 332.615C481.58 333.08 480.927 333.544 480.254 334.023C479.51 334.562 478.765 335.1 477.998 335.654C477.195 336.222 476.391 336.79 475.563 337.375C473.834 338.621 472.106 339.869 470.379 341.117C469.489 341.758 468.598 342.398 467.68 343.058C463.413 346.151 459.208 349.326 455 352.5C448.55 357.353 442.072 362.164 435.563 366.938C428.819 371.886 422.143 376.917 415.5 382C404.989 390.041 394.344 397.891 383.666 405.709C374.523 412.408 365.436 419.169 356.438 426.062C349.311 431.522 342.108 436.847 334.806 442.069C328.977 446.254 323.259 450.574 317.563 454.938C307.799 462.417 297.922 469.731 288 477C284.624 479.477 281.249 481.957 277.875 484.438C277.118 484.993 276.36 485.548 275.58 486.12C274.485 486.925 274.485 486.925 273.367 487.746C272.288 488.533 272.288 488.533 271.187 489.335C269.662 490.496 268.177 491.712 266.728 492.965C260.278 498.461 260.278 498.461 255.977 498.836C250.76 498.318 247.225 494.91 243.375 491.625C241.777 490.321 240.177 489.019 238.575 487.719C237.794 487.078 237.013 486.437 236.209 485.777C233.284 483.423 230.267 481.274 227.188 479.125C221.28 474.982 215.54 470.638 209.813 466.25C199.965 458.709 190.008 451.328 180 444C169.199 436.091 158.474 428.099 147.841 419.966C138.978 413.196 129.999 406.589 121 400C110.199 392.091 99.4738 384.099 88.8411 375.966C79.9775 369.196 70.9981 362.59 62.0003 356C55.6543 351.35 49.3178 346.688 43.0003 342C42.1856 341.396 41.3709 340.793 40.5316 340.171C38.1397 338.393 35.7563 336.605 33.3753 334.812C32.2816 334.001 32.2816 334.001 31.1658 333.174C30.1674 332.417 30.1674 332.417 29.1487 331.645C28.5627 331.205 27.9767 330.765 27.3729 330.312C25.325 328.355 25.0234 326.423 24.8727 323.665C24.8714 322.736 24.8702 321.807 24.8689 320.85C24.865 319.778 24.8612 318.706 24.8572 317.601C24.8581 316.419 24.859 315.236 24.8599 314.018C24.8569 312.765 24.8539 311.513 24.8509 310.222C24.8428 306.738 24.841 303.254 24.8403 299.77C24.8384 296.016 24.8309 292.261 24.8241 288.506C24.8105 280.294 24.8045 272.081 24.8001 263.868C24.7974 258.742 24.7931 253.616 24.7886 248.49C24.7764 234.303 24.7661 220.116 24.7627 205.929C24.7625 205.021 24.7623 204.113 24.7621 203.177C24.7617 201.812 24.7617 201.812 24.7614 200.418C24.761 198.574 24.7605 196.729 24.7601 194.884C24.7598 193.969 24.7596 193.054 24.7594 192.111C24.7554 177.277 24.738 162.443 24.7147 147.609C24.691 132.387 24.6785 117.164 24.6774 101.942C24.6765 93.3917 24.6707 84.842 24.6525 76.2921C24.6372 69.013 24.632 61.734 24.6403 54.4549C24.6442 50.7398 24.6432 47.0249 24.6292 43.3099C24.6142 39.2852 24.6223 35.2608 24.6328 31.236C24.6207 29.4691 24.6207 29.4691 24.6084 27.6666C24.615 26.5891 24.6216 25.5116 24.6284 24.4014C24.6278 23.4723 24.6272 22.5433 24.6266 21.5861C25.323 16.7669 26.3099 14.3218 31.2933 13.3733ZM38.0003 26C37.7116 74.6338 37.4228 123.268 37.1253 173.375C36.9978 188.737 36.8704 204.099 36.7391 219.927C36.6923 233.685 36.6923 233.685 36.6641 247.443C36.651 253.577 36.5997 259.709 36.5222 265.842C36.433 272.917 36.3926 279.992 36.4121 287.068C36.4205 290.688 36.4073 294.304 36.3313 297.923C35.4256 311.526 35.4256 311.526 39.3653 324.094C43.0379 327.885 47.2377 329.862 52.0003 332C53.8007 333.279 55.5739 334.599 57.2933 335.984C58.5001 336.911 58.5001 336.911 59.7313 337.856C60.5419 338.481 61.3526 339.106 62.1878 339.75C72.0334 347.295 81.9928 354.672 92.0003 362C102.801 369.909 113.527 377.901 124.159 386.034C133.023 392.804 142.002 399.411 151 406C161.801 413.909 172.527 421.901 183.159 430.034C192.023 436.804 201.002 443.411 210 450C222.747 459.334 235.38 468.803 247.92 478.413C248.606 478.937 249.293 479.46 250 480C250.646 480.584 251.292 481.167 251.958 481.769C253.957 483.232 253.957 483.232 256.474 482.882C259.266 481.907 261.092 480.72 263.414 478.895C264.248 478.248 265.081 477.601 265.94 476.935C266.826 476.235 267.712 475.534 268.625 474.812C270.52 473.341 272.416 471.871 274.313 470.402C275.267 469.661 276.221 468.92 277.203 468.156C281.298 464.999 285.455 461.93 289.625 458.875C290.402 458.305 291.178 457.735 291.978 457.147C295.095 454.859 298.215 452.575 301.334 450.291C310.478 443.592 319.564 436.831 328.563 429.938C335.689 424.478 342.892 419.153 350.194 413.931C356.023 409.746 361.741 405.426 367.438 401.062C377.967 392.996 388.633 385.127 399.334 377.291C408.454 370.609 417.521 363.869 426.5 357C433.19 351.884 439.907 346.808 446.688 341.812C447.699 341.067 447.699 341.067 448.731 340.307C449.422 339.799 450.113 339.292 450.825 338.77C451.532 338.218 452.24 337.666 452.969 337.098C455.433 335.392 457.708 334.12 460.371 332.795C466.48 329.496 472.535 325.976 475.035 319.191C476.561 311.366 476.305 303.414 476.09 295.479C476.01 291.805 476.037 288.131 476.05 284.457C476.06 277.339 475.977 270.225 475.861 263.108C475.731 254.867 475.717 246.629 475.703 238.387C475.609 216.653 475.358 194.92 475.125 173.188C474.754 124.616 474.383 76.0438 474 26C330.12 26 186.24 26 38.0003 26Z" fill="currentColor"/>
<path d="M61.8956 44.3733C63.0897 44.3725 64.2838 44.3717 65.5141 44.3708C66.1819 44.3635 66.8497 44.3563 67.5377 44.3488C69.7918 44.3304 72.0443 44.3479 74.2984 44.3651C75.9241 44.3593 77.5497 44.3514 79.1753 44.3415C83.6551 44.3205 88.1344 44.3309 92.6142 44.3464C97.4405 44.3577 102.267 44.3403 107.093 44.3265C116.553 44.3042 126.012 44.3091 135.472 44.3236C143.157 44.3348 150.842 44.3364 158.528 44.3309C159.62 44.3302 160.712 44.3294 161.837 44.3286C164.056 44.327 166.274 44.3254 168.493 44.3238C189.315 44.3095 210.137 44.3259 230.96 44.3528C248.841 44.3751 266.722 44.3712 284.604 44.3482C305.349 44.3214 326.095 44.3109 346.841 44.3262C349.051 44.3278 351.262 44.3294 353.473 44.3309C355.104 44.3321 355.104 44.3321 356.769 44.3333C364.448 44.3376 372.128 44.3303 379.807 44.3185C389.161 44.3045 398.515 44.3083 407.869 44.3349C412.645 44.3481 417.421 44.3532 422.197 44.3367C426.564 44.3219 430.931 44.3299 435.298 44.3566C436.883 44.3622 438.468 44.3593 440.052 44.3472C442.198 44.3321 444.341 44.3475 446.486 44.3708C448.277 44.372 448.277 44.372 450.105 44.3733C453 45 453 45 454.884 47.248C455.987 49.9686 456.376 51.7509 456.378 54.6618C456.385 55.5744 456.393 56.4869 456.401 57.4271C456.395 58.4208 456.388 59.4145 456.381 60.4383C456.386 61.5007 456.39 62.5632 456.395 63.6579C456.407 67.2239 456.398 70.7895 456.388 74.3555C456.392 76.9097 456.398 79.4638 456.404 82.018C456.416 88.2388 456.415 94.4594 456.406 100.68C456.399 105.736 456.398 110.791 456.402 115.847C456.402 116.567 456.402 117.286 456.403 118.027C456.404 119.489 456.405 120.95 456.406 122.412C456.414 136.118 456.405 149.824 456.388 163.53C456.375 175.291 456.377 187.052 456.391 198.813C456.407 212.47 456.414 226.127 456.404 239.784C456.403 241.241 456.402 242.697 456.402 244.153C456.401 244.869 456.401 245.586 456.4 246.324C456.398 251.374 456.402 256.424 456.409 261.473C456.418 268.269 456.412 275.065 456.394 281.862C456.39 284.359 456.391 286.856 456.398 289.354C456.406 292.757 456.396 296.159 456.381 299.562C456.388 300.555 456.394 301.549 456.401 302.573C456.359 307.534 456.259 310.984 453 315C451.293 316.646 451.293 316.646 449.402 318.094C448.693 318.642 447.984 319.19 447.253 319.755C446.107 320.619 446.107 320.619 444.938 321.5C444.137 322.113 443.336 322.726 442.511 323.358C436.408 328.005 430.203 332.505 423.962 336.965C418.079 341.182 412.308 345.535 406.563 349.938C396.033 358.004 385.368 365.873 374.666 373.709C365.546 380.391 356.48 387.131 347.5 394C336.988 402.041 326.344 409.891 315.666 417.709C306.523 424.408 297.437 431.171 288.438 438.062C281.673 443.224 274.905 448.38 268.063 453.438C267.335 453.987 266.608 454.537 265.859 455.104C258.699 460.342 258.699 460.342 254 460C250.736 458.343 247.904 456.217 245 454C244.214 453.415 243.428 452.83 242.618 452.227C240.104 450.338 237.613 448.422 235.125 446.5C228.254 441.229 221.355 436.002 214.375 430.875C213.598 430.304 212.822 429.734 212.022 429.146C209.682 427.429 207.341 425.714 205 424C194.199 416.091 183.474 408.099 172.841 399.966C163.977 393.196 154.998 386.589 146 380C135.199 372.091 124.474 364.099 113.841 355.966C104.153 348.567 94.3257 341.361 84.4889 334.162C57.9804 314.752 57.9804 314.752 56.0001 310C55.7482 307.842 55.7482 307.842 55.7456 305.461C55.7369 304.095 55.7369 304.095 55.7279 302.702C55.7317 301.705 55.7355 300.709 55.7394 299.682C55.7356 298.62 55.7317 297.559 55.7278 296.465C55.7174 292.896 55.7215 289.327 55.7254 285.758C55.7211 283.204 55.7159 280.65 55.7099 278.096C55.6979 271.872 55.6954 265.648 55.6977 259.423C55.6995 254.365 55.6978 249.306 55.6935 244.248C55.6929 243.528 55.6923 242.809 55.6917 242.067C55.6905 240.605 55.6893 239.144 55.6881 237.682C55.6772 223.969 55.6794 210.256 55.6855 196.544C55.6906 183.996 55.6794 171.448 55.6604 158.9C55.641 146.019 55.6327 133.138 55.6365 120.256C55.6384 113.023 55.6359 105.79 55.6218 98.5574C55.6086 91.7571 55.6111 84.957 55.6242 78.1568C55.6265 75.6578 55.6238 73.1588 55.6156 70.6598C55.6051 67.2547 55.6131 63.8501 55.6259 60.445C55.6148 58.9535 55.6148 58.9535 55.6035 57.4318C55.6107 56.5186 55.6179 55.6054 55.6254 54.6646C55.6253 53.486 55.6253 53.486 55.6252 52.2835C56.3383 47.9397 57.4213 45.3417 61.8956 44.3733ZM69.0001 57C68.567 97.755 68.1338 138.51 67.6876 180.5C67.4964 193.354 67.3052 206.208 67.1082 219.451C67.038 231.004 67.038 231.004 66.9958 242.557C66.9762 247.692 66.8995 252.824 66.783 257.958C66.6343 264.52 66.5959 271.077 66.6256 277.642C66.6194 280.042 66.5781 282.442 66.4966 284.841C65.9051 297.422 65.9051 297.422 71.0204 308.486C75.9706 313.167 81.4732 316.819 87.2939 320.323C91.6017 322.992 95.5906 326.065 99.6251 329.125C101.191 330.279 102.758 331.43 104.328 332.578C105.1 333.143 105.871 333.709 106.666 334.291C107.436 334.855 108.207 335.419 109 336C119.801 343.909 130.527 351.901 141.159 360.034C150.023 366.804 159.002 373.411 168 380C178.801 387.909 189.527 395.901 200.159 404.034C209.023 410.804 218.003 417.409 227 424C230.377 426.477 233.751 428.957 237.125 431.438C237.883 431.993 238.64 432.548 239.421 433.12C244.685 436.99 249.86 440.965 255 445C257.863 443.653 260.343 442.122 262.879 440.234C263.998 439.405 263.998 439.405 265.14 438.559C265.94 437.962 266.739 437.365 267.563 436.75C269.285 435.471 271.008 434.193 272.731 432.914C273.609 432.261 274.487 431.608 275.392 430.935C277.835 429.123 280.285 427.32 282.738 425.523C291.056 419.43 299.311 413.265 307.5 407C318.012 398.959 328.656 391.109 339.334 383.291C348.478 376.592 357.564 369.831 366.563 362.938C373.689 357.478 380.892 352.153 388.194 346.931C394.926 342.097 401.507 337.075 408.085 332.034C416.205 325.819 424.424 319.744 432.681 313.712C433.446 313.147 434.212 312.582 435 312C435.641 311.63 436.282 311.259 436.943 310.878C441.289 308.154 441.289 308.154 443.738 303.813C444.01 301.122 444.028 298.53 443.962 295.825C443.972 294.296 443.972 294.296 443.983 292.736C443.996 289.31 443.952 285.887 443.908 282.461C443.906 279.968 443.907 277.474 443.911 274.98C443.913 268.976 443.879 262.973 443.827 256.969C443.77 250.023 443.763 243.077 443.757 236.131C443.715 217.795 443.603 199.46 443.5 181.125C443.335 140.164 443.17 99.2025 443 57C319.58 57 196.16 57 69.0001 57Z" fill="currentColor"/>
</svg>
