<svg width="512" height="512" viewBox="0 0 512 512" fill="none" xmlns="http://www.w3.org/2000/svg">
<g clip-path="url(#clip0_111_82)">
<path d="M152.992 -0.523438C155 0 155 0 156.502 2.17603C159.129 7.12794 160.55 12.4679 162.188 17.8125C162.477 18.7498 162.477 18.7498 162.772 19.7061C165.999 30.1824 168.847 40.7401 171.5 51.375C171.671 52.0595 171.843 52.7441 172.019 53.4494C174.462 63.2564 176 71.8061 176 82C229.13 82 282.26 82 337 82C337.33 77.71 337.66 73.42 338 69C338.769 64.9083 339.591 60.9147 340.562 56.875C340.952 55.2214 340.952 55.2214 341.349 53.5344C344.141 41.9563 347.5 30.5463 351.028 19.1733C351.715 16.93 352.379 14.6794 353.026 12.4243C353.366 11.2595 353.705 10.0947 354.055 8.89453C354.356 7.83726 354.658 6.77999 354.968 5.69067C355.998 3.004 356.688 1.67735 359 0C362.5 -0.4375 362.5 -0.4375 366 0C369.604 3.48197 370.796 8.58152 372.438 13.1875C387.844 54.7107 413.048 91.732 438 128C438.58 128.845 439.16 129.689 439.758 130.56C446.378 140.164 453.329 149.483 460.483 158.697C473.06 174.983 473.06 174.983 472 187C469.629 200.401 465.886 210.924 454.605 219.371C450.481 221.95 445.938 224 441 224C441.01 225.866 441.01 225.866 441.02 227.769C441.081 239.579 441.126 251.39 441.155 263.201C441.171 269.27 441.192 275.34 441.226 281.409C441.259 287.284 441.277 293.158 441.285 299.033C441.29 301.257 441.301 303.481 441.317 305.704C441.443 323.481 440.638 341.336 435.312 358.438C435.053 359.296 434.794 360.155 434.527 361.04C433.708 363.701 432.859 366.351 432 369C431.737 369.835 431.473 370.67 431.202 371.53C423.224 396.447 410.88 420.861 397 443C396.331 444.07 395.662 445.14 394.973 446.242C378.48 471.672 356.876 501.708 327.008 511.664C317.388 513.274 309.073 512.598 301 507C285.58 495.948 276.907 477.092 269.625 460.125C269.291 459.353 268.957 458.58 268.613 457.784C266.457 452.611 265.036 447.506 264 442C265.237 441.629 266.475 441.257 267.75 440.875C273.805 438.869 279.352 435.934 285 433C285.757 432.646 286.513 432.291 287.293 431.926C289.6 430.675 289.94 429.384 291 427C291.66 426.154 292.32 425.309 293 424.438C296.126 419.065 297.493 413.531 296.625 407.312C294.063 397.764 289.459 392.611 281.027 387.574C267.552 380.567 253.799 379.472 239.27 383.816C230.876 386.927 223.028 391.458 218 399C214.998 405.635 213.816 411.873 216.125 418.938C219.815 427.728 225.375 433.029 234 437C238.925 438.898 243.948 440.478 249 442C241.108 466.766 228.683 495.43 206 510C199.028 513.48 190.138 513.11 182.738 511.125C168.7 505.546 155.428 495.83 145.816 484.156C143.61 481.537 141.24 479.102 138.875 476.625C127.021 463.876 117.735 448.987 109 434C108.598 433.312 108.196 432.623 107.782 431.914C88.7451 399.132 69.7466 360.87 69.8865 322.199C69.8863 321.135 69.8862 320.071 69.886 318.975C69.8867 315.474 69.8945 311.973 69.9023 308.473C69.9042 306.039 69.9056 303.605 69.9066 301.171C69.9104 294.778 69.9203 288.384 69.9313 281.991C69.9416 275.462 69.9461 268.933 69.9512 262.404C69.9619 249.603 69.9787 236.801 70 224C69.378 223.87 68.7559 223.74 68.115 223.606C67.3012 223.431 66.4874 223.257 65.6489 223.077C64.8413 222.905 64.0336 222.734 63.2014 222.557C58.9534 221.482 56.176 218.897 53 216C52.0699 215.169 52.0699 215.169 51.1211 214.32C43.0109 206.158 40.001 193.88 39.6875 182.625C39.6501 181.751 39.6127 180.877 39.5742 179.977C40.6692 172.321 45.7098 166.47 50.4375 160.625C57.0247 152.317 63.2994 143.829 69.4429 135.189C70.9533 133.066 72.4704 130.947 73.9883 128.828C95.4514 98.7634 116.174 67.4433 132 34C132.594 32.777 133.189 31.5543 133.785 30.332C137.51 22.6059 140.754 14.7515 143.78 6.7251C146.342 -0.0571704 146.342 -0.0571705 152.992 -0.523438ZM149 301C145.907 306.229 145.318 311.999 146.656 317.887C149.557 326.46 153.365 331.834 161.547 336.02C168.325 338.729 174.76 338.51 181.609 336.141C188.393 332.904 192.929 327.755 196 321C197.029 317.572 197.244 315.788 196.188 312.375C190.222 305.898 178.201 303.955 170.062 301.25C168.845 300.839 167.627 300.428 166.373 300.004C165.21 299.616 164.046 299.228 162.848 298.828C161.796 298.477 160.744 298.125 159.66 297.763C154.543 296.296 152.798 297.494 149 301ZM350.859 298.355C349.634 298.791 349.634 298.791 348.385 299.235C347.515 299.549 346.646 299.864 345.75 300.188C335.267 303.942 335.267 303.942 330.484 305.438C329.807 305.651 329.129 305.865 328.431 306.085C326.613 306.652 324.791 307.207 322.969 307.762C319.795 309.086 318.132 310.322 316 313C314.798 319.01 317.183 322.863 320.355 327.766C322.315 330.428 324.193 332.246 327 334C327.866 334.557 328.733 335.114 329.625 335.688C336.232 338.257 342.518 338.9 349.25 336.438C357.069 332.801 361.944 328.116 365 320C366.854 313.648 366.505 307.771 363.988 301.699C362.484 299.113 360.735 298.094 358 297C355.099 297 353.54 297.391 350.859 298.355Z" fill="black"/>
<path d="M255 459C255.66 459 256.32 459 257 459C257.485 460.125 257.969 461.251 258.469 462.41C264.368 475.98 270.318 489.135 279.531 500.828C281 503 281 503 281 506C263.968 509.947 248.007 510.271 231 506C231 501.847 233.193 499.522 235.5 496.25C243.537 484.508 249.646 472.163 255 459Z" fill="black"/>
</g>
<defs>
<clipPath id="clip0_111_82">
<rect width="512" height="512" fill="white"/>
</clipPath>
</defs>
</svg>
