<svg width="512" height="512" viewBox="0 0 512 512" fill="none" xmlns="http://www.w3.org/2000/svg">
<path d="M224.375 8.56252C248.483 14.628 269.301 12.6314 293.193 7.18703C316.59 1.87802 341.49 0.325278 365 6.00002C366.035 6.24148 366.035 6.24148 367.092 6.48781C389.526 11.889 408.404 23.1315 425 39C425.673 39.6097 426.346 40.2195 427.039 40.8477C434.914 48.2365 445.866 60.6921 447.562 71.625C447 75 447 75 445 77.9375C441.931 80.0472 439.944 80.7813 436.203 80.5742C431.891 79.4505 428.473 76.7012 425 74C425.965 74.8953 425.965 74.8953 426.949 75.8086C464.483 111.843 490.824 169.076 493.438 221C493.344 224.756 493.071 225.888 491 229.188C487.69 231.187 485.743 231.724 481.938 231.508C478.698 230.659 477.03 228.538 475 226C475 229.331 475.504 232.391 476 235.688C479.901 265.107 475.245 294.017 464.5 321.5C464.24 322.188 463.98 322.876 463.712 323.585C461.655 328.553 459.382 331.075 455 334C451.395 334.606 448.074 333.762 445.062 331.625C444 330 444 330 443 327C442.935 327.628 442.871 328.255 442.804 328.902C439.079 364.001 428.976 394.945 403.875 420.5C403.313 421.076 402.752 421.651 402.173 422.244C397.526 426.838 392.387 431.402 385.812 432.563C382.129 431.826 380.512 430.799 378 428C376.788 423.326 377.142 419.687 378 415C377.588 415.678 377.175 416.356 376.75 417.055C368.84 429.802 358.893 444.232 345 451C340.481 451.829 338.888 451.585 335.062 449.063C332.26 444.901 332.324 441.871 333 437C333.622 433.989 334.299 430.993 335 428C334.126 429.545 334.126 429.545 333.234 431.121C327.079 441.868 320.379 452.055 313 462C312.309 462.938 311.618 463.877 310.906 464.844C299.454 479.568 285.559 492.738 270 503C269.054 503.657 268.108 504.315 267.133 504.992C262.086 508.321 258.181 510.017 252 509C249.204 507.887 246.803 506.365 244.312 504.688C243.27 504.006 243.27 504.006 242.207 503.311C213.844 484.372 193.537 457.369 177 428C177.144 428.545 177.289 429.091 177.437 429.652C178.761 435.028 180.026 440.475 179 446C176.578 449.596 175.056 450.725 170.875 451.813C155.639 448.618 144.08 431.338 136 419C135.301 417.683 134.615 416.358 134 415C134.16 415.996 134.16 415.996 134.324 417.012C135.308 424.26 135.308 424.26 133.75 428C131.508 430.562 129.742 431.859 126.375 432.5C114.519 430.744 103.403 416.741 96.3516 407.73C94.0781 404.56 92.0062 401.346 90 398C89.4402 397.069 89.4402 397.069 88.8691 396.12C76.1947 374.688 71.3868 351.514 69 327C68.5411 327.797 68.0822 328.593 67.6094 329.414C65.8499 332.241 65.1749 333.118 62 334C57.5996 334 55.6792 333.677 52.5273 330.535C49.411 326.561 47.7308 322.143 46 317.438C45.6582 316.521 45.3165 315.605 44.9643 314.662C41.457 304.964 38.9867 295.11 37 285C36.6307 283.132 36.6307 283.132 36.2539 281.227C33.1029 261.886 34.797 242.199 38 223C37.5669 223.949 37.1337 224.898 36.6875 225.875C35 229 35 229 32 231C27.25 231.536 25.1061 231.668 21 229.188C16.5992 222.174 19.1518 212.184 20.5625 204.375C20.7381 203.394 20.9138 202.412 21.0947 201.401C25.7909 176.44 34.0053 152.38 46 130C46.5603 128.932 46.5603 128.932 47.1318 127.842C57.6203 107.878 70.6485 89.6082 87 74C85 75.3334 83 76.6667 81 78C77.3106 80.4596 74.2817 80.7997 70 80C67 77.9375 67 77.9375 65 75C63.9702 65.0221 71.341 56.9021 77.25 49.4375C95.943 27.4533 118.77 12.7412 147 6.00002C147.719 5.82358 148.438 5.64714 149.179 5.46535C173.806 -0.317484 200.12 2.41494 224.375 8.56252ZM150 24C149.341 24.161 148.683 24.322 148.004 24.4878C132.136 28.5128 117.399 36.2975 105 47C105 47.33 105 47.66 105 48C106.002 48.0374 107.003 48.0748 108.035 48.1133C121.514 48.7343 121.514 48.7343 127 52C128.55 55.1005 128.29 57.579 128 61C125.468 65.4033 121.445 68.0569 117.465 71.0821C102.98 82.353 89.5472 95.9891 79 111C78.5962 111.57 78.1924 112.14 77.7764 112.728C68.0151 126.597 59.9997 141.108 53.4375 156.75C53.0076 157.774 52.5777 158.798 52.1348 159.853C50.2189 164.548 48.4939 168.905 48 174C48.8869 173.175 49.7737 172.35 50.6875 171.5C54.1065 168.589 57.7257 166.049 61.5 163.625C62.5622 162.937 63.6244 162.248 64.7187 161.539C68.4833 159.773 70.8885 159.549 75 160C77.9375 162.125 77.9375 162.125 80 165C80.7338 170.333 78.8536 173.513 76 177.813C55.447 210.551 47.8053 250.061 56 288C57.1062 292.409 58.4624 296.723 60 301C60.66 300.319 61.32 299.639 62 298.938C73.4399 287.53 73.4399 287.53 79.9375 286.563C83 287 83 287 85.7109 288.723C89.3156 293.884 88.1772 298.787 87.6875 304.875C85.9308 335.741 90.5113 365.897 108 392C109.594 393.758 109.594 393.758 111 395C110.977 393.921 110.954 392.842 110.93 391.73C110.698 376.149 110.545 358.512 117 344C119.665 341.427 120.739 341.033 124.5 340.563C128 341 128 341 130.102 342.375C133.005 346.389 133.213 350.604 133.875 355.438C138.909 387.547 138.909 387.547 156 414C156.037 412.958 156.075 411.917 156.113 410.844C157.251 384.457 157.251 384.457 162 377C165.129 375.435 168.611 375.303 172 376C176.632 379.263 177.787 384.25 179.562 389.375C189.815 417.441 205.415 443.303 226 465C226.467 465.5 226.935 466 227.416 466.515C233.527 473.017 239.874 478.991 247 484.375C247.934 485.099 247.934 485.099 248.887 485.838C251.507 487.745 253.318 488.998 256.613 489.008C265.532 485.242 273.065 477.588 280 471C280.498 470.535 280.995 470.07 281.508 469.591C306.751 445.887 324.996 413.415 335.852 380.746C337 378 337 378 340 376C341.938 375.734 341.938 375.734 344 375.75C344.681 375.745 345.361 375.74 346.062 375.734C348 376 348 376 351 378C351.914 380.574 351.914 380.574 352.625 383.688C352.865 384.702 353.105 385.717 353.352 386.762C354.63 393.144 355.224 399.452 355.562 405.938C355.606 406.717 355.649 407.496 355.693 408.299C355.798 410.199 355.9 412.1 356 414C371.96 399.006 377.165 368.376 379.312 347.602C380.17 344.355 381.367 343.046 384 341C387.554 340.556 389.914 340.398 393.086 342.156C401.273 350.042 400.753 369.832 401.077 380.554C401.154 385.372 401.112 390.183 401 395C405.199 391.402 407.425 387.017 409.938 382.188C410.378 381.342 410.819 380.496 411.274 379.624C415.017 372.272 417.832 364.979 420 357C420.294 355.946 420.588 354.891 420.891 353.805C425.145 336.495 425.507 318.498 424.019 300.822C423.48 292.727 423.48 292.727 426.309 288.773C429 287 429 287 431.75 286.313C440.644 288.194 446.042 294.827 451 302C463.542 283.187 460.485 249.634 456.548 228.616C452.552 209.537 444.987 190.89 434.125 174.688C432.006 171.317 431.103 169.037 432 165C434.062 162.125 434.062 162.125 437 160C442.872 159.286 446.367 160.906 451.062 164.188C451.941 164.769 451.941 164.769 452.838 165.361C456.775 168.005 460.4 170.915 464 174C462.621 166.418 460.025 159.828 456.875 152.813C456.382 151.706 455.889 150.6 455.382 149.46C451.704 141.318 447.775 133.554 443 126C442.367 124.995 441.734 123.989 441.082 122.953C433.125 110.692 424.115 99.5345 414 89C413.464 88.4364 412.927 87.8727 412.375 87.292C405.484 80.0851 398.441 73.4349 390.442 67.4627C387.728 65.43 385.904 63.8567 384 61C383.568 57.0389 383.347 54.8865 385.75 51.625C389.98 48.5701 394.673 48.7302 399.75 48.4375C400.447 48.3943 401.145 48.3512 401.863 48.3067C403.575 48.2011 405.288 48.1001 407 48C403.485 44.2686 399.842 41.3073 395.5 38.5625C394.889 38.1749 394.278 37.7873 393.649 37.388C363.814 18.8549 329.031 17.4383 295.57 25.2422C293.713 25.6814 291.857 26.1215 290 26.5625C265.585 32.3306 243.375 31.2336 219 26C215.105 25.1686 215.105 25.1686 211.209 24.3391C209.631 24.0012 208.054 23.6577 206.479 23.3074C188.124 19.3083 168.223 19.4397 150 24ZM132 411C133 413 133 413 133 413L132 411ZM379 411C380 413 380 413 380 413L379 411Z" fill="black"/>
<path d="M247.715 99.5469C254.731 100.515 261.072 100.012 268.063 99.0001C298.472 94.8006 330.261 98.7915 355.652 116.891C357.814 118.545 359.911 120.255 362 122C362.99 122.743 363.98 123.485 365 124.25C383.94 140.373 397.455 169.563 400 194C401.17 215.063 396.306 236.462 382.527 252.961C380.242 255.508 377.88 257.977 375.5 260.435C373.415 262.611 371.387 264.837 369.354 267.063C365.486 271.297 361.583 275.47 357.5 279.5C356.883 280.119 356.265 280.738 355.629 281.375C354.241 282.759 352.841 284.131 351.438 285.5C348.71 290.244 351.149 297.001 352.156 302.239C355.409 319.327 354.491 335.918 345 351C338.689 360.199 331.815 366.809 321 370C319.334 370.043 317.666 370.052 316 370C316.035 370.75 316.07 371.501 316.105 372.273C316.333 380.892 315.549 387.907 310.938 395.313C304.597 401.113 298.078 403.907 289.43 403.57C283.626 402.605 278.252 400.538 272.785 398.41C259.295 393.247 243.907 395.431 231 401.188C224.471 403.887 217.944 404.289 211.191 402.082C205.153 399.31 200.789 396.065 198.039 389.816C195.741 383.227 195.679 376.917 196 370C195.443 369.986 194.886 369.972 194.313 369.957C185.423 369.402 179.396 365.006 173 359C162.051 345.482 156.508 330.548 158 313C158.618 308.68 159.417 304.397 160.246 300.113C160.368 299.433 160.489 298.752 160.615 298.051C160.874 296.67 161.175 295.295 161.514 293.931C162.098 291.142 162.453 288.839 161.064 286.266C159.639 284.524 158.132 282.988 156.5 281.438C155.945 280.875 155.39 280.313 154.818 279.734C153.231 278.134 151.62 276.565 150 275C148.728 273.73 147.457 272.46 146.188 271.188C145.653 270.662 145.118 270.136 144.566 269.594C142.222 267.209 140.051 264.686 137.879 262.145C136.57 260.65 135.22 259.191 133.84 257.762C118.871 242.074 111.553 221.727 111.702 200.127C112.37 175.57 123.838 151.85 139 133C139.461 132.397 139.923 131.793 140.398 131.172C155.758 111.586 181.884 101.358 205.813 98.3126C219.768 97.0771 233.869 97.5424 247.715 99.5469ZM164 134C162.991 134.702 162.991 134.702 161.961 135.418C144.939 148.528 133.829 172.853 130.281 193.559C128.405 209.847 132.323 226.463 142.252 239.665C144.837 242.775 147.645 245.646 150.512 248.495C153.176 251.189 155.699 254.012 158.25 256.813C162.396 261.319 166.619 265.719 171 270C174.268 267.208 176.137 263.548 178.25 259.875C187.395 244.303 187.395 244.303 192 242C194.094 242.016 194.094 242.016 196.5 242.25C197.294 242.317 198.088 242.384 198.906 242.453C201 243 201 243 203 246C203.675 252.377 202.516 255.703 198.625 260.813C184.899 280.144 172.945 303.669 177 328C179.135 337.1 183.819 345.121 191.379 350.781C194.617 352.287 196.435 352.306 200 352C202.643 350.983 205.077 349.926 207.602 348.676C208.678 348.161 208.678 348.161 209.776 347.636C212.065 346.539 214.345 345.426 216.625 344.313C219.615 342.866 222.608 341.427 225.602 339.988C226.322 339.641 227.042 339.294 227.783 338.936C233.769 336.067 239.831 333.455 246 331C245.422 322.137 241.449 314.576 234.977 308.531C232.116 306.315 229.056 304.65 225.82 303.043C224 302 224 302 223 300C222.414 292.736 222.414 292.736 224.669 289.903C227.569 287.536 229.008 287.494 232.715 287.482C233.863 287.47 235.011 287.457 236.194 287.444C238.047 287.456 238.047 287.456 239.938 287.469C241.21 287.465 242.482 287.461 243.793 287.457C246.483 287.454 249.172 287.46 251.862 287.479C255.306 287.501 258.748 287.488 262.192 287.464C265.482 287.446 268.772 287.459 272.063 287.469C273.298 287.461 274.533 287.453 275.806 287.444C277.528 287.463 277.528 287.463 279.285 287.482C280.799 287.487 280.799 287.487 282.344 287.492C285.702 288.134 286.891 289.366 289 292C289.729 294.745 289.552 297.223 289 300C286.931 303.017 284.277 304.432 281.188 306.25C273.84 310.751 269.701 316.694 266.531 324.606C265.878 327.552 265.989 329.148 267 332C269.478 333.457 269.478 333.457 272.641 334.359C277.721 336.132 282.493 338.094 287.297 340.516C287.908 340.82 288.519 341.124 289.149 341.438C291.653 342.687 294.153 343.945 296.645 345.218C306.813 350.435 306.813 350.435 318 352C325.209 348.963 329.754 341.599 333.07 334.809C338.94 319.337 335.198 302.499 328.793 287.856C324.296 278.022 319.365 268.645 312.938 259.938C308.421 253.651 308.421 253.651 308.313 249.375C309 246 309 246 311 243C313.993 241.965 316.85 241.758 320 242C322.428 243.658 323.347 244.672 325 247C325.605 247.78 326.209 248.56 326.832 249.363C331.796 255.922 335.993 262.825 340 270C347.71 263.602 354.778 256.645 361.258 249C362.437 247.647 363.663 246.334 364.93 245.063C376.157 233.529 381.722 218.129 382.438 202.188C381.691 178.76 369.28 153.421 352.402 137.559C331.205 119.533 306.138 114.426 279 116C274.877 116.382 270.79 116.968 266.691 117.547C258.149 118.595 249.938 118.201 241.438 117C213.471 113.103 187.08 117.432 164 134ZM226.813 358.75C225.562 359.359 224.311 359.967 223.061 360.574C220.038 362.045 217.018 363.52 214 365C213.946 367.417 213.906 369.833 213.875 372.25C213.858 372.932 213.841 373.614 213.824 374.316C213.663 379.559 213.663 379.559 216 384C221.467 385.984 225.824 384.047 231 382.125C249.392 375.478 268.537 376.441 286.625 383.813C290.347 385.122 292.288 385.326 296 384C298.621 380.431 298.229 376.482 298.125 372.25C298.116 371.553 298.107 370.855 298.098 370.137C298.074 368.424 298.038 366.712 298 365C294.038 363.054 290.073 361.115 286.104 359.183C284.758 358.527 283.413 357.868 282.069 357.208C259.633 346.186 249.118 347.805 226.813 358.75Z" fill="black"/>
<path d="M358.312 166.688C360.413 169.566 360.855 171.45 361 175C360.25 178.585 359.478 179.674 356.437 181.75C352.283 183.261 348.389 183.717 344 184C343.794 185.299 343.587 186.599 343.375 187.938C341.729 195.158 338.028 200.82 332.125 205.313C324.175 210.188 314.068 211.576 305 213C305.206 214.217 305.412 215.434 305.625 216.688C306.081 220.374 305.887 222.698 304 226C302.348 228.044 301.485 228.901 298.879 229.434C297.732 229.436 297.732 229.436 296.562 229.438C295.42 229.467 295.42 229.467 294.254 229.496C290.948 228.769 289.985 227.767 288 225C286.942 221.781 286.34 218.52 285.75 215.188C285.577 214.31 285.404 213.433 285.227 212.529C283.434 203.021 283.265 194.325 288.324 185.758C296.098 174.943 305.335 172.308 317.855 169.922C318.761 169.746 319.666 169.571 320.599 169.39C322.496 169.024 324.395 168.661 326.294 168.301C329.192 167.749 332.087 167.18 334.982 166.609C336.836 166.254 338.689 165.9 340.543 165.547C341.402 165.376 342.262 165.206 343.147 165.03C348.653 164.008 353.524 163.193 358.312 166.688ZM307 192C306.67 192.66 306.34 193.32 306 194C307.94 193.745 309.877 193.47 311.812 193.188C313.431 192.961 313.431 192.961 315.082 192.731C318.064 191.984 319.142 191.379 321 189C315.85 188.614 311.557 189.629 307 192Z" fill="black"/>
<path d="M165.195 164.664C166.431 164.865 167.666 165.067 168.938 165.274C170.293 165.514 171.647 165.756 173 166C173.699 166.124 174.399 166.248 175.119 166.376C179.612 167.181 184.093 168.036 188.57 168.922C190.891 169.378 193.215 169.818 195.539 170.258C207.884 172.654 216.287 175.496 224 186C230.481 197.242 227.376 209.963 225.012 222.004C223.874 225.374 222.837 226.876 220 229C216.934 229.734 214.094 229.563 211 229C208.2 227.11 207.297 225.846 206.187 222.687C205.955 219.349 206.493 216.299 207 213C205.721 212.758 204.442 212.515 203.125 212.266C201.417 211.928 199.708 211.589 198 211.25C196.741 211.014 196.741 211.014 195.457 210.773C187.203 209.11 180.596 206.503 175 200C174.557 199.486 174.113 198.971 173.656 198.441C170.085 193.946 168.855 189.63 168 184C167.18 183.902 166.36 183.804 165.516 183.703C164.438 183.554 163.36 183.404 162.25 183.25C161.183 183.111 160.115 182.972 159.016 182.828C155.55 181.876 154.213 180.789 152 178C150.781 174.263 150.833 172.481 152.125 168.75C155.584 163.677 159.466 163.718 165.195 164.664ZM191 189C193.6 192.33 196.111 192.618 200.187 193.187C201.818 193.425 201.818 193.425 203.48 193.668C204.728 193.832 204.728 193.832 206 194C203.38 190.07 201.538 189.983 197 189C193.708 188.832 193.708 188.832 191 189Z" fill="black"/>
</svg>
