<svg width="512" height="512" viewBox="0 0 512 512" fill="none" xmlns="http://www.w3.org/2000/svg">
<path d="M96.2131 47.4938C97.274 47.4828 98.335 47.4717 99.4281 47.4604C100.593 47.4686 101.757 47.4768 102.957 47.4853C104.195 47.4784 105.433 47.4714 106.708 47.4643C110.147 47.4491 113.584 47.452 117.022 47.4624C120.729 47.4694 124.436 47.4534 128.143 47.4404C135.406 47.4188 142.668 47.4189 149.931 47.4271C155.832 47.4334 161.734 47.4322 167.635 47.4258C168.894 47.4244 168.894 47.4244 170.178 47.4231C171.883 47.4212 173.588 47.4193 175.292 47.4175C191.286 47.4009 207.28 47.4096 223.273 47.4265C237.914 47.4412 252.554 47.4265 267.195 47.3977C282.22 47.3683 297.245 47.3573 312.269 47.3669C313.968 47.3679 315.667 47.3689 317.365 47.3699C318.201 47.3703 319.037 47.3708 319.898 47.3713C325.794 47.3735 331.689 47.3636 337.585 47.3491C344.768 47.3316 351.951 47.3316 359.133 47.3544C362.8 47.3656 366.466 47.3687 370.132 47.3501C374.103 47.3303 378.072 47.349 382.043 47.3718C383.207 47.36 384.372 47.3481 385.572 47.3359C393.26 47.426 393.26 47.426 396.716 50.1075C398.263 53.5932 398.503 56.0905 398.508 59.9076C398.517 60.9316 398.517 60.9316 398.527 61.9764C398.543 64.2574 398.53 66.5373 398.518 68.8184C398.523 70.4563 398.53 72.0942 398.539 73.7321C398.557 78.1764 398.55 82.6202 398.537 87.0645C398.527 91.716 398.537 96.3674 398.543 101.019C398.55 108.83 398.541 116.641 398.521 124.453C398.5 133.483 398.507 142.513 398.529 151.543C398.547 159.297 398.549 167.051 398.539 174.804C398.533 179.435 398.532 184.066 398.545 188.696C398.557 193.05 398.549 197.403 398.526 201.757C398.52 203.354 398.522 204.952 398.531 206.55C398.542 208.731 398.528 210.911 398.508 213.092C398.506 214.923 398.506 214.923 398.503 216.791C397.901 220.632 396.741 222.286 394 225C390.367 226.237 388.758 226.345 385.25 224.75C383 223 383 223 381 220C380.754 217.195 380.754 217.195 380.759 213.717C380.755 211.746 380.755 211.746 380.751 209.735C380.758 208.27 380.766 206.804 380.773 205.339C380.774 203.777 380.773 202.215 380.772 200.652C380.772 196.463 380.783 192.274 380.797 188.085C380.809 184.156 380.809 180.227 380.811 176.298C380.821 164.803 380.849 153.308 380.875 141.812C380.916 116.134 380.957 90.4562 381 64C289.59 64 198.18 64 104 64C104.023 84.8841 104.046 105.768 104.07 127.285C104.081 140.533 104.09 153.781 104.098 167.029C104.102 173.993 104.106 180.956 104.11 187.92C104.11 188.792 104.111 189.665 104.111 190.564C104.12 204.607 104.136 218.651 104.154 232.694C104.173 247.133 104.184 261.571 104.188 276.009C104.191 284.901 104.199 293.793 104.216 302.685C104.226 308.802 104.23 314.92 104.227 321.037C104.226 324.554 104.228 328.071 104.238 331.587C104.344 371.787 100.045 408.559 76.3518 442.236C75.7235 443.13 75.0952 444.024 74.4479 444.945C73.9701 445.623 73.4923 446.301 73 447C74.4014 447.004 74.4014 447.004 75.8312 447.007C98.5483 447.066 121.265 447.142 143.982 447.236C154.968 447.281 165.954 447.32 176.939 447.346C186.513 447.369 196.086 447.403 205.66 447.449C210.73 447.473 215.801 447.491 220.871 447.498C225.642 447.504 230.412 447.524 235.182 447.554C236.935 447.563 238.688 447.567 240.441 447.565C242.831 447.563 245.22 447.58 247.61 447.601C248.306 447.596 249.003 447.592 249.72 447.587C252.708 447.631 254.761 447.869 257.403 449.314C259.952 452.005 259.938 454.381 260 458C258.654 460.948 257.914 462.543 255 464C252.314 464.104 249.653 464.148 246.966 464.147C246.126 464.151 245.286 464.155 244.42 464.158C241.589 464.169 238.758 464.173 235.926 464.177C233.903 464.183 231.88 464.19 229.856 464.197C224.348 464.214 218.84 464.225 213.332 464.233C209.893 464.238 206.455 464.244 203.017 464.251C192.267 464.27 181.518 464.284 170.769 464.292C158.344 464.302 145.92 464.328 133.495 464.369C123.902 464.399 114.309 464.414 104.716 464.417C98.9812 464.419 93.2467 464.428 87.5121 464.453C82.1195 464.477 76.7272 464.481 71.3345 464.471C69.3528 464.47 67.371 464.477 65.3892 464.49C62.6885 464.508 59.9889 464.501 57.2881 464.488C56.4996 464.499 55.7111 464.51 54.8987 464.521C51.3604 464.479 49.3911 464.299 46.5406 462.118C44.6895 459.573 44.0752 458.157 44 455C45.3171 451.213 47.1317 448.758 50 446.062C74.6485 422.244 85.4011 386.453 86.0585 353.025C86.1497 344.889 86.1449 336.753 86.142 328.617C86.1418 324.905 86.1474 321.194 86.1524 317.482C86.1604 311.067 86.1654 304.652 86.1687 298.237C86.1742 288.098 86.1911 277.96 86.21 267.822C86.2164 264.347 86.2227 260.871 86.229 257.396C86.2314 256.094 86.2314 256.094 86.2338 254.766C86.2517 244.912 86.2679 235.059 86.283 225.205C86.2843 224.306 86.2857 223.406 86.2871 222.479C86.3091 207.862 86.3198 193.245 86.3273 178.628C86.3354 163.603 86.3586 148.577 86.3953 133.552C86.4173 124.292 86.427 115.031 86.4208 105.77C86.4176 99.4354 86.4289 93.1006 86.4517 86.7657C86.4644 83.1094 86.4705 79.4534 86.4593 75.7971C86.4473 71.8382 86.466 67.8799 86.4877 63.9211C86.4751 62.1796 86.4751 62.1796 86.4622 60.403C86.473 59.3453 86.4838 58.2877 86.495 57.198C86.496 56.2841 86.4969 55.3703 86.4979 54.4288C87.6165 49.0173 91.0553 47.5005 96.2131 47.4938Z" fill="currentColor"/>
<path d="M424.391 275.684C426.652 277.395 428.831 279.173 431 281C431.801 281.655 432.601 282.31 433.426 282.984C451.907 298.735 463.882 321.986 467 346C468.529 368.851 466.307 388.565 456 409C455.477 410.047 454.953 411.094 454.414 412.172C441.283 436.385 418.111 453.102 392.137 461.258C373.072 466.628 350.78 466.26 332 460C330.872 459.638 329.744 459.276 328.582 458.902C316.601 454.68 305.688 448.191 296 440C295.318 439.439 294.636 438.879 293.934 438.301C289.158 434.317 289.158 434.317 288 432C287.431 424.948 287.431 424.948 289.5 421.5C292.253 419.848 294.439 419.133 297.672 419.289C301.911 420.584 304.863 423.667 308.141 426.551C327.785 443.378 350.897 447.473 376 446C397.88 443.375 417.296 430.934 431.281 414.277C437.862 405.558 442.66 396.386 446 386C446.32 385.055 446.639 384.11 446.969 383.137C453.056 361.859 449.427 338.676 439.004 319.524C427.246 298.64 409.36 284.303 386.375 277.563C364.106 271.665 340.355 274.569 320.328 286.039C301.022 297.683 288.971 314.146 281 335C281.66 334.67 282.32 334.34 283 334C287.333 333.51 289.32 333.523 292.938 336.063C295 339 295 339 295.875 342.188C294.477 348.28 290.347 351.684 286 356C285.018 357.004 284.038 358.009 283.059 359.016C273.535 368.729 273.535 368.729 268.812 369.563C263.196 368.734 260.932 365.932 257 362C255.732 360.812 254.463 359.626 253.191 358.441C251.814 357.129 250.437 355.815 249.062 354.5C248.387 353.872 247.712 353.243 247.016 352.596C243.803 349.452 242.173 347.639 240.977 343.211C241.004 339.507 241.714 337.878 244 335C247.3 333.35 250.464 333.211 254 334C256.993 336.029 259.501 338.395 262 341C262.112 339.848 262.224 338.695 262.34 337.508C262.9 333.079 264.059 329.068 265.562 324.875C265.825 324.142 266.087 323.408 266.358 322.652C275.58 297.906 295.165 277.234 318.99 266.024C353.457 250.621 393.463 253.903 424.391 275.684Z" fill="currentColor"/>
<path d="M155.344 147.86C156.493 147.855 156.493 147.855 157.665 147.851C160.245 147.842 162.825 147.84 165.406 147.839C167.25 147.834 169.094 147.829 170.939 147.824C175.959 147.811 180.98 147.804 186.001 147.8C189.136 147.797 192.27 147.793 195.405 147.788C205.208 147.775 215.01 147.765 224.813 147.761C236.139 147.757 247.465 147.739 258.791 147.71C267.538 147.689 276.285 147.678 285.033 147.677C290.26 147.676 295.488 147.67 300.716 147.652C305.633 147.636 310.55 147.634 315.468 147.642C317.273 147.643 319.079 147.639 320.884 147.629C323.348 147.616 325.811 147.622 328.275 147.633C329.348 147.62 329.348 147.62 330.443 147.608C334.791 147.651 337.54 148.335 341 151C342.565 154.129 342.697 157.611 342 161C340.455 163.097 340.455 163.097 338 165C335.298 165.395 333.002 165.545 330.302 165.515C329.132 165.525 329.132 165.525 327.938 165.536C325.323 165.554 322.708 165.544 320.092 165.534C318.218 165.541 316.344 165.549 314.469 165.56C309.376 165.582 304.284 165.579 299.191 165.57C294.941 165.565 290.691 165.572 286.442 165.58C276.417 165.597 266.393 165.593 256.369 165.576C246.023 165.56 235.677 165.575 225.33 165.608C216.451 165.634 207.572 165.642 198.693 165.633C193.388 165.628 188.084 165.63 182.779 165.651C177.791 165.669 172.803 165.663 167.815 165.639C165.984 165.634 164.152 165.637 162.321 165.65C159.822 165.666 157.325 165.651 154.825 165.628C154.1 165.64 153.374 165.652 152.626 165.664C148.756 165.593 147.112 165.09 144.046 162.648C142 160 142 160 141.438 157C142.124 153.341 143.427 151.648 146 149C148.993 147.504 152.062 147.856 155.344 147.86Z" fill="currentColor"/>
<path d="M153.743 202.372C154.528 202.365 155.312 202.358 156.121 202.35C158.753 202.333 161.384 202.351 164.016 202.369C165.901 202.364 167.787 202.357 169.673 202.347C174.797 202.329 179.92 202.342 185.044 202.361C190.402 202.378 195.76 202.369 201.118 202.364C210.117 202.359 219.115 202.375 228.113 202.403C238.522 202.435 248.931 202.435 259.339 202.418C269.345 202.402 279.351 202.409 289.357 202.426C293.619 202.433 297.88 202.432 302.142 202.424C307.159 202.417 312.175 202.429 317.192 202.456C319.035 202.463 320.878 202.463 322.721 202.456C325.233 202.447 327.745 202.463 330.257 202.485C330.99 202.477 331.722 202.469 332.477 202.46C335.92 202.517 337.697 202.764 340.451 204.907C342.132 207.178 342.544 208.211 342.5 211C342.516 211.99 342.516 211.99 342.531 213C341.734 216.001 340.447 217.096 338 219C335.284 219.395 332.972 219.545 330.257 219.515C329.472 219.522 328.688 219.529 327.879 219.536C325.247 219.554 322.616 219.544 319.984 219.534C318.099 219.541 316.213 219.549 314.327 219.56C309.203 219.582 304.08 219.579 298.956 219.57C294.681 219.565 290.407 219.573 286.132 219.58C276.05 219.597 265.969 219.593 255.887 219.577C245.478 219.56 235.069 219.575 224.661 219.608C215.73 219.634 206.799 219.642 197.868 219.633C192.531 219.628 187.195 219.631 181.858 219.651C176.841 219.669 171.825 219.663 166.808 219.639C164.965 219.634 163.122 219.637 161.279 219.65C158.766 219.666 156.256 219.651 153.743 219.628C152.644 219.646 152.644 219.646 151.523 219.664C147.788 219.595 146.285 219.274 143.547 216.648C141.641 213.386 141.38 211.721 142 208C145.067 202.752 148.022 202.28 153.743 202.372Z" fill="currentColor"/>
<path d="M367 291C369.745 292.718 369.745 292.718 372 296C372.47 300.32 372.075 304.559 371.758 308.883C371.637 311.511 371.524 314.138 371.424 316.766C371.397 317.447 371.369 318.127 371.342 318.827C369.607 345.684 369.607 345.684 380.816 368.976C385.83 374.017 391.451 378.417 397.424 382.262C400 384 400 384 401 386C401.49 390.333 401.477 392.32 398.937 395.937C396 398 396 398 392.687 398.75C383.721 396.926 376.129 386.315 369.77 379.956C368.047 378.234 366.315 376.521 364.584 374.809C363.484 373.711 362.384 372.614 361.285 371.516C360.51 370.752 360.51 370.752 359.72 369.972C355.368 365.593 354.875 362.729 354.839 356.68C354.829 355.375 354.819 354.07 354.81 352.726C354.805 351.299 354.8 349.872 354.797 348.445C354.791 346.982 354.785 345.518 354.779 344.055C354.769 340.987 354.763 337.918 354.76 334.85C354.754 330.924 354.73 326.998 354.702 323.071C354.683 320.048 354.678 317.025 354.676 314.002C354.673 312.554 354.665 311.107 354.652 309.66C354.635 307.633 354.639 305.606 354.643 303.579C354.64 302.426 354.636 301.274 354.632 300.087C355.042 296.643 355.94 294.764 358 292C361.139 290.431 363.538 290.648 367 291Z" fill="currentColor"/>
<path d="M157.693 256.369C158.77 256.362 159.847 256.355 160.957 256.347C164.515 256.33 168.071 256.35 171.629 256.371C174.101 256.37 176.573 256.368 179.045 256.364C184.224 256.361 189.403 256.376 194.582 256.403C201.226 256.437 207.869 256.431 214.513 256.412C219.616 256.402 224.719 256.411 229.823 256.426C232.273 256.431 234.723 256.43 237.173 256.424C240.594 256.419 244.014 256.439 247.436 256.467C248.959 256.457 248.959 256.457 250.514 256.447C257.353 256.54 257.353 256.54 260.602 258.85C262.439 261.676 262.931 263.627 263 267C261.346 270.83 259.821 272.457 256 274C253.851 274.254 253.851 274.254 251.49 274.261C250.592 274.268 249.693 274.275 248.767 274.282C247.789 274.28 246.811 274.277 245.803 274.275C244.767 274.28 243.73 274.285 242.663 274.29C239.235 274.304 235.807 274.303 232.379 274.301C229.997 274.305 227.616 274.309 225.235 274.314C220.242 274.321 215.25 274.321 210.257 274.316C203.857 274.31 197.457 274.327 191.056 274.35C186.138 274.365 181.22 274.366 176.302 274.363C173.942 274.363 171.582 274.368 169.222 274.378C165.923 274.391 162.625 274.384 159.326 274.372C157.862 274.384 157.862 274.384 156.368 274.395C151.458 274.357 147.926 274.301 144 271C141.654 267.482 141.42 266.142 142 262C146.282 255.883 150.834 256.29 157.693 256.369Z" fill="currentColor"/>
<path d="M154.098 310.353C154.793 310.344 155.488 310.335 156.204 310.326C158.49 310.304 160.775 310.319 163.062 310.336C164.658 310.332 166.253 310.328 167.848 310.321C171.187 310.314 174.525 310.325 177.864 310.348C182.138 310.377 186.411 310.36 190.685 310.33C193.978 310.312 197.27 310.318 200.563 310.331C202.139 310.334 203.714 310.33 205.29 310.318C207.495 310.306 209.697 310.325 211.902 310.353C213.782 310.359 213.782 310.359 215.699 310.365C219.904 311.174 221.399 312.658 224 316C224.534 319.806 224.556 321.994 222.687 325.375C219.354 328.585 215.684 328.132 211.297 328.145C210.62 328.149 209.944 328.152 209.246 328.155C207.009 328.165 204.772 328.167 202.535 328.168C200.98 328.171 199.424 328.174 197.868 328.178C194.608 328.184 191.347 328.186 188.086 328.185C183.909 328.185 179.731 328.199 175.554 328.216C172.341 328.227 169.128 328.229 165.915 328.229C164.375 328.23 162.835 328.234 161.295 328.242C159.141 328.252 156.987 328.249 154.832 328.243C153.607 328.244 152.381 328.246 151.118 328.247C148.103 328.008 146.465 327.702 144 326C141.5 322.249 141.464 320.441 142 316C145.689 311.245 148.165 310.372 154.098 310.353Z" fill="currentColor"/>
</svg>
