<svg width="512" height="512" viewBox="0 0 512 512" fill="none" xmlns="http://www.w3.org/2000/svg">
<g clip-path="url(#clip0_10_53)">
<path d="M244.59 -0.238242C245.403 -0.248081 246.216 -0.25792 247.054 -0.268058C298.959 -0.766294 346.728 13.6388 385 50C386.369 51.1734 387.744 52.3406 389.125 53.5C423.025 83.2142 442.762 131.175 445.855 175.453C448.77 226.64 430.945 274.375 402 316C401.624 316.542 401.248 317.084 400.861 317.642C384.969 340.469 366.76 361.44 347 381C347.563 381.251 348.126 381.501 348.706 381.759C370.447 391.529 389.485 402.655 400 425C401.134 428.032 401.736 430.78 402 434C402.08 434.837 402.16 435.673 402.242 436.535C402.899 449.963 397.331 461.472 388.852 471.555C367.504 494.321 334.738 503.653 305 509C303.675 509.248 303.675 509.248 302.323 509.501C272.023 514.905 237.237 514.653 207 509C206.046 508.828 205.091 508.657 204.108 508.48C173.378 502.814 137.019 491.8 118 465C111.163 454.218 108.419 444.018 110.43 431.277C114.5 413.815 127.1 401.669 141.785 392.438C149.199 388.007 157.122 384.511 165 381C164.522 380.527 164.044 380.054 163.551 379.566C161.344 377.38 159.141 375.19 156.938 373C155.809 371.884 155.809 371.884 154.658 370.746C149.889 365.998 145.374 361.113 141 356C140.039 354.905 139.077 353.811 138.113 352.719C117.359 328.964 99.4586 302.551 86.0002 274C85.5501 273.052 85.5501 273.052 85.091 272.085C76.9845 254.838 71.1566 236.799 68.0002 218C67.883 217.305 67.7659 216.61 67.6452 215.895C60.2932 170.013 72.0521 119.041 99.1877 81.25C100.758 79.1359 102.369 77.069 104 75C104.726 74.0655 105.452 73.1309 106.199 72.168C114.234 62.0849 122.907 52.0746 133 44C133.895 43.2679 134.789 42.5357 135.711 41.7813C163.098 19.9818 194.367 6.2324 229 1.00004C230.069 0.825693 231.139 0.651348 232.24 0.471719C236.382 -0.0479215 240.421 -0.196787 244.59 -0.238242ZM142.621 64.2657C141.411 65.5072 140.203 66.7515 139 68C134 73 134 73 132.305 74.5547C106.523 98.8752 93.1263 134.694 88.0002 169C87.8674 169.852 87.7346 170.704 87.5978 171.582C80.4622 227.397 108.48 279.988 141.307 322.838C145.666 328.403 150.29 333.731 155 339C155.802 339.901 156.604 340.802 157.43 341.73C158.908 343.38 160.392 345.025 161.883 346.664C163.265 348.189 164.636 349.725 165.992 351.273C170.83 356.768 175.898 362.003 181.063 367.188C181.723 367.853 182.384 368.518 183.065 369.204C186.962 373.089 190.97 376.786 195.136 380.381C197.752 382.653 200.277 385.013 202.813 387.375C208.357 392.49 214.11 397.286 220 402C221.131 402.922 222.261 403.846 223.391 404.77C230.335 410.424 237.407 415.887 244.625 421.188C245.383 421.752 246.141 422.317 246.922 422.899C251.983 426.891 251.983 426.891 258 428C260.908 426.355 263.423 424.303 266 422.188C267.526 420.975 269.052 419.763 270.578 418.551C271.329 417.946 272.08 417.341 272.854 416.717C275.263 414.79 277.712 412.923 280.174 411.065C286.256 406.471 292.082 401.617 297.867 396.66C300.78 394.17 303.759 391.77 306.75 389.375C310.988 385.931 314.864 382.282 318.637 378.336C320.616 376.38 322.629 374.569 324.735 372.754C329.204 368.876 333.392 364.756 337.563 360.563C338.279 359.85 338.995 359.138 339.733 358.404C344.362 353.766 348.725 348.964 353 344C353.998 342.878 354.998 341.758 356 340.641C395.26 296.473 428.362 239.93 425 179C421.905 137.407 404.868 99.827 375.406 70.4102C373.967 68.9686 372.549 67.5051 371.176 66C352.624 46.0865 325.924 33.1071 300 26C299.258 25.7906 298.516 25.5811 297.752 25.3653C245.385 10.9437 181.465 25.5183 142.621 64.2657ZM140.094 420.836C134.788 426.32 131.498 431.604 130.625 439.313C131.596 448.86 137.042 455.688 144 462C185.119 492.941 245.073 496.026 294.178 489.428C321.999 485.316 357.21 476.97 375.75 453.848C379.506 448.296 381.97 442.788 381 436C377.706 424.373 368.102 415.94 358 410C344.15 401.577 344.15 401.577 329.02 398.129C326.103 399.387 324.231 401.312 321.938 403.5C320.954 404.421 319.968 405.341 318.981 406.258C318.482 406.721 317.984 407.184 317.47 407.661C313.477 411.298 309.211 414.621 305 418C303.868 418.924 302.737 419.848 301.606 420.773C292.639 428.071 283.391 434.907 273.959 441.59C272.267 442.808 270.607 444.07 268.953 445.34C263.821 449.237 259.598 451.8 253 451C246.37 448.177 240.54 443.677 234.813 439.375C233.575 438.453 233.575 438.453 232.312 437.512C221.644 429.535 211.248 421.302 201.121 412.648C197.219 409.32 193.234 406.096 189.242 402.875C187 401 187 401 185.383 399.25C176.711 391.411 146.09 415.17 140.094 420.836Z" fill="currentColor"/>
<path d="M338.504 89.1133C341.053 91.3597 343.534 93.6628 346 96.0001C346.909 96.8444 347.818 97.6887 348.754 98.5587C355.631 105.148 360.894 111.976 366 120C366.605 120.909 367.209 121.818 367.832 122.754C379.135 140.691 385.287 162.87 386 184C386.04 184.838 386.08 185.676 386.121 186.539C386.954 218.968 375.283 250.699 354 275C353.031 276.168 353.031 276.168 352.043 277.359C346.961 283.362 341.233 288.224 335 293C334.255 293.584 333.51 294.168 332.742 294.77C304.71 315.622 269.557 323.234 235.148 318.273C230.359 317.439 225.683 316.297 221 315C219.742 314.673 218.484 314.345 217.187 314.008C200.626 309.118 185.037 300.251 172 289C170.558 287.782 170.558 287.782 169.086 286.539C143.575 264.261 128.521 231.516 126.16 197.945C124.395 165.479 134.021 131.794 155.371 106.879C202.91 54.8189 282.068 41.4816 338.504 89.1133ZM190 103C191.283 105.663 192.676 108.142 194.312 110.602C194.748 111.256 195.184 111.911 195.633 112.586C196.31 113.595 196.31 113.595 197 114.625C197.451 115.306 197.902 115.986 198.367 116.688C198.803 117.34 199.239 117.992 199.687 118.664C200.281 119.553 200.281 119.553 200.887 120.46C202.052 122.158 202.052 122.158 204 124C206.106 124.311 206.106 124.311 208.437 124.375C212.742 124.783 212.742 124.783 215 126.688C216.259 129.6 216.872 131.811 217 135C215.625 138.063 215.625 138.063 214 141C212.252 145.98 213.877 150.083 215.312 154.938C217.362 162.12 218.668 168.841 219.152 176.313C219.763 179.305 219.763 179.305 222.941 180.688C223.951 181.121 224.96 181.554 226 182C228.097 185.146 228.253 185.912 228.187 189.5C228.181 190.273 228.175 191.047 228.168 191.844C228 194 228 194 227 197C223.437 198.188 223.437 198.188 220 199C219.762 200.852 219.762 200.852 219.519 202.742C217.928 214.499 215.466 225.657 212 237C212.963 237.903 212.963 237.903 213.945 238.824C216.581 241.615 216.85 243.188 217 247C216.062 250.875 216.062 250.875 215 254C213.857 253.99 213.857 253.99 212.691 253.981C207.324 254.336 204.108 254.812 200.34 258.852C198.021 262.107 196.04 265.565 194 269C192.697 270.69 191.373 272.366 190 274C191.487 278.442 194.902 280.154 198.75 282.375C199.42 282.767 200.091 283.159 200.781 283.563C224.647 297.238 253.623 302.577 280.637 295.969C281.747 295.649 282.856 295.329 284 295C285.223 294.66 286.447 294.319 287.707 293.969C300.262 290.142 311.804 284.323 322 276C320.274 272.183 317.902 268.849 315.5 265.438C311.054 259.081 311.054 259.081 309 256C306.906 255.456 306.906 255.456 304.562 255.375C301.74 255.18 299.719 254.906 297 254C294.801 249.382 294.746 245.925 296 241C296.721 240.26 297.441 239.52 298.184 238.758C300.418 236.048 300.418 236.048 299.402 232.496C298.934 231.136 298.444 229.784 297.937 228.438C294.67 218.782 293.283 209.084 292 199C290.866 198.732 289.731 198.464 288.562 198.188C287.387 197.796 286.211 197.404 285 197C283.647 192.943 283.323 189.238 284 185C286.53 181.718 288.077 180.308 292 179C292.17 177.791 292.34 176.582 292.516 175.336C293.846 166.242 295.421 157.624 298.328 148.883C299.353 144.487 298.528 141.955 296.375 138.063C294.734 134.408 294.845 132.794 296 129C297 126.688 297 126.688 299 125C301.27 124.681 303.454 124.563 305.746 124.566C309.111 123.721 310.037 121.806 312 119C312.779 117.947 313.557 116.894 314.359 115.809C315.158 114.686 315.955 113.563 316.75 112.438C317.367 111.592 317.367 111.592 317.996 110.729C320.316 107.433 321 106.164 321 102C318.666 100.141 316.484 98.641 313.937 97.1251C313.214 96.686 312.49 96.2469 311.744 95.7945C273.776 73.3678 224.889 75.9121 190 103ZM173 119C159.594 133.936 150.694 154.165 148 174C147.89 174.803 147.781 175.606 147.668 176.434C144.192 206.137 153.009 234.618 171.348 257.973C171.893 258.642 172.438 259.311 173 260C179.063 257.715 182.267 251.562 185 246C185.186 243.397 184.896 241.433 184.328 238.902C184 237 184 237 185.062 234.125C187 232 187 232 189.98 230.742C193.183 229.262 193.183 229.262 194.391 226.25C194.674 225.178 194.958 224.105 195.25 223C195.559 221.844 195.869 220.687 196.187 219.496C198.881 209.334 198.881 209.334 199 199C197.725 197.534 196.448 196.068 195.133 194.637C192.881 191.383 193.391 188.839 194 185C194.846 184.258 195.691 183.515 196.562 182.75C199.209 180.303 199.209 180.303 199.25 177.555C198.648 168.145 195.97 158.911 193 150C191.866 149.546 190.731 149.093 189.562 148.625C186 147 186 147 184.5 144.875C184 142 184 142 184.469 140.168C185.307 136.846 185.698 134.389 184.107 131.222C181.415 126.882 178.373 122.831 175 119C174.34 119 173.68 119 173 119ZM337 119C335.018 121.301 335.018 121.301 333 124.188C332.299 125.15 331.597 126.113 330.875 127.106C328.226 131.195 326.801 133.61 327.5 138.5C328.043 142.298 328.119 143.821 326 147C324.886 147.33 323.772 147.66 322.625 148C319.689 149.074 319.095 149.801 317.723 152.688C313.393 166.121 313.393 166.121 313 180C313.825 180.784 314.65 181.568 315.5 182.375C318 185 318 185 318.625 188.938C318.41 192.927 316.771 194.337 314.062 197.207C310.77 202.763 313.96 211.169 315.463 217.049C316.535 221.07 317.684 225.053 319 229C319.949 229.454 320.897 229.908 321.875 230.375C325.5 232.26 326.589 233.182 328 237C327.739 238.34 327.443 239.673 327.125 241C326.31 245.965 328.451 249.112 331.187 253.063C331.587 253.647 331.986 254.232 332.397 254.834C333.716 256.693 333.716 256.693 336 259C337.32 259 338.64 259 340 259C341.819 257.048 343.256 255.246 344.75 253.063C345.185 252.436 345.619 251.81 346.067 251.165C362.664 226.484 368.171 197.136 363 168C359.303 150.414 350.856 132.567 339 119C338.34 119 337.68 119 337 119Z" fill="currentColor"/>
</g>
<defs>
<clipPath id="clip0_10_53">
<rect width="512" height="512" fill="white"/>
</clipPath>
</defs>
</svg>
