<svg width="512" height="512" viewBox="0 0 512 512" fill="none" xmlns="http://www.w3.org/2000/svg">
<path d="M294 81C294.734 81.1542 295.468 81.3084 296.225 81.4673C329.231 88.6097 357.877 105.764 382 129C382.753 129.69 383.505 130.379 384.281 131.09C396.004 142.154 405.294 155.914 413 170C413.515 170.932 413.515 170.932 414.041 171.884C436.018 212.124 441.019 261.523 428.238 305.523C419.273 334.432 404.617 358.89 384 381C383.275 381.79 382.551 382.58 381.804 383.395C370.338 395.425 356.537 405.047 342 413C341.378 413.344 340.756 413.687 340.116 414.042C299.895 436.007 250.456 441.024 206.474 428.238C177.566 419.263 153.113 404.621 131 384C130.21 383.276 129.419 382.551 128.605 381.805C116.575 370.338 106.952 356.538 98.9998 342C98.4842 341.068 98.4842 341.068 97.9583 340.116C75.9819 299.876 70.9807 250.477 83.7617 206.477C92.7267 177.568 107.382 153.11 128 131C128.724 130.21 129.449 129.42 130.195 128.605C141.661 116.575 155.462 106.953 170 99C170.621 98.6563 171.243 98.3126 171.884 97.9585C208.796 77.7997 252.99 72.1129 294 81ZM139.442 151.372C109.31 185.401 97.6083 227.306 99.9998 272C103.428 311.734 124.676 349.845 154.851 375.579C189.277 404.037 230.688 415.08 274.829 411.789C279.986 411.249 284.979 410.283 290 409C290.799 408.796 291.598 408.592 292.421 408.382C321.447 400.726 345.433 386.71 367 366C367.556 365.467 368.112 364.934 368.685 364.386C396.105 337.623 411.722 298.482 412.403 260.448C412.923 215.104 396.058 176.101 364.875 143.5C334.445 113.847 294.092 99.2429 252.028 99.5825C208.958 100.23 168.511 119.803 139.442 151.372Z" fill="black"/>
<path d="M328 240C332.906 242.278 335.517 245.217 338 250C339.454 256.011 339.224 260.611 336 266C333.011 269.211 329.87 271.801 325.426 272.273C319.436 272.469 314.983 272.541 310.336 268.473C306.178 263.89 305.445 259.463 305.652 253.465C306.381 248.299 308.769 245.2 312.5 241.563C317.674 239.253 322.423 239.249 328 240Z" fill="black"/>
<path d="M196 240C200.113 241.662 202.376 244.134 204.938 247.688C206.792 253.468 207.216 259.347 204.375 264.875C201.677 268.425 200.09 270.174 196 272C190.397 272.747 185.669 272.775 180.5 270.375C176.052 266.149 173.387 262.369 172.906 256.082C173.108 251.611 174.395 247.725 177.469 244.422C183.358 239.398 188.448 239.15 196 240Z" fill="black"/>
<path d="M262 240C266.9 242.085 269.632 245.271 272 250C272.915 255.595 273.075 261.236 269.812 266.063C266.977 269.6 263.62 271.735 259.133 272.469C253.238 272.53 249.09 272.339 244.402 268.582C239.965 263.576 239.414 259.468 239.582 252.949C240.19 248.662 241.774 245.86 245 243C250.425 239.117 255.529 239.083 262 240Z" fill="black"/>
</svg>
