<svg width="512" height="512" viewBox="0 0 512 512" fill="none" xmlns="http://www.w3.org/2000/svg">
<g clip-path="url(#clip0_100_16)">
<path d="M106.188 4.68754C107.377 4.69318 108.566 4.69882 109.79 4.70463C141.87 5.14596 167.159 19.5155 189.238 42.0352C192.409 45.3298 195.44 48.7274 198.431 52.1853C200.421 54.4868 202.458 56.7444 204.5 59C207.764 62.6168 210.988 66.2639 214.188 69.9375C216.272 72.3097 218.384 74.6556 220.5 77C225.299 82.3234 230.041 87.6887 234.68 93.1524C240.275 99.7332 245.958 106.198 251.844 112.52C255.06 115.974 258.205 119.474 261.293 123.043C263.336 125.386 265.417 127.693 267.5 130C270.767 133.62 273.995 137.27 277.195 140.949C279.23 143.261 281.302 145.535 283.375 147.813C286.429 151.189 289.344 154.632 292.188 158.188C297.09 164.253 302.423 169.882 307.77 175.555C310.71 178.678 313.564 181.863 316.363 185.113C318.379 187.437 320.439 189.718 322.5 192C325.767 195.62 328.995 199.27 332.195 202.949C334.23 205.261 336.302 207.535 338.375 209.813C341.467 213.232 344.425 216.72 347.313 220.313C350.223 223.928 353.241 227.345 356.45 230.69C372.004 246.965 381.666 266.439 381.438 289.313C381.429 290.406 381.42 291.499 381.41 292.625C380.965 313.512 372.367 331.313 357.887 346.168C342.479 360.731 322.319 367.718 301.219 367.246C274.117 365.174 255.103 351.995 237.438 332.063C236.287 330.713 235.141 329.358 234 328C232.109 325.767 230.212 323.539 228.313 321.313C227.802 320.714 227.291 320.115 226.765 319.498C222.669 314.723 218.443 310.084 214.156 305.48C210.94 302.026 207.795 298.526 204.707 294.957C202.664 292.614 200.583 290.307 198.5 288C195.236 284.383 192.012 280.736 188.813 277.063C186.728 274.69 184.616 272.344 182.5 270C177.701 264.677 172.959 259.311 168.32 253.848C162.726 247.267 157.043 240.802 151.156 234.48C147.94 231.026 144.795 227.526 141.707 223.957C139.664 221.614 137.583 219.307 135.5 217C132.236 213.383 129.012 209.736 125.813 206.063C123.728 203.69 121.616 201.344 119.5 199C116.234 195.381 113.007 191.733 109.809 188.055C107.754 185.72 105.658 183.424 103.563 181.125C87.246 162.94 87.246 162.94 87.6486 149.746C88.7435 141.194 93.1642 135.984 99.8127 130.813C106.772 126.855 113.273 126.232 121 128C130.448 131.014 136.706 139.797 143 147C143.683 147.772 144.367 148.544 145.07 149.34C146.162 150.581 147.248 151.827 148.328 153.078C150.358 155.411 152.428 157.705 154.5 160C159.299 165.323 164.041 170.689 168.68 176.152C174.275 182.733 179.958 189.198 185.844 195.52C189.06 198.974 192.205 202.474 195.293 206.043C197.337 208.386 199.417 210.693 201.5 213C204.767 216.62 207.995 220.27 211.195 223.949C213.23 226.261 215.302 228.535 217.375 230.813C220.429 234.189 223.344 237.632 226.188 241.188C231.09 247.253 236.423 252.882 241.77 258.555C244.71 261.678 247.564 264.863 250.363 268.113C252.379 270.437 254.439 272.718 256.5 275C259.764 278.617 262.988 282.264 266.188 285.938C269.028 289.17 271.918 292.357 274.805 295.547C276.78 297.754 278.706 299.995 280.625 302.25C286.646 309.102 292.312 314.197 301.637 315.316C309.689 315.665 315.857 313.511 322.313 308.75C327.377 303.568 330.114 297.189 330.313 289.938C330.082 277.41 323.286 270.51 315 262C313.78 260.636 312.569 259.262 311.375 257.875C308.783 254.886 306.151 251.937 303.5 249C298.701 243.677 293.959 238.311 289.32 232.848C283.726 226.267 278.043 219.802 272.156 213.48C268.94 210.026 265.795 206.526 262.707 202.957C260.664 200.614 258.583 198.307 256.5 196C253.236 192.383 250.012 188.736 246.813 185.063C244.728 182.69 242.616 180.344 240.5 178C235.701 172.677 230.959 167.311 226.32 161.848C220.726 155.267 215.043 148.802 209.156 142.48C205.94 139.026 202.795 135.526 199.707 131.957C197.664 129.614 195.583 127.307 193.5 125C190.233 121.38 187.005 117.73 183.805 114.051C181.771 111.739 179.698 109.465 177.625 107.188C174.59 103.832 171.696 100.412 168.875 96.875C153.297 77.6084 136.895 59.0513 111 56C94.4607 55.2823 80.4061 60.5506 67.8127 71.1875C57.9178 80.4611 51.3004 93.3609 50.797 107.039C50.3661 132.081 61.6447 147.253 78.215 165C80.9736 167.959 83.6463 170.984 86.2931 174.043C88.3365 176.386 90.417 178.693 92.5002 181C95.7672 184.62 98.9954 188.27 102.195 191.949C104.23 194.261 106.302 196.535 108.375 198.813C111.429 202.189 114.344 205.632 117.188 209.188C122.09 215.253 127.423 220.882 132.77 226.555C135.71 229.678 138.564 232.863 141.363 236.113C143.379 238.437 145.439 240.718 147.5 243C152.299 248.323 157.041 253.689 161.68 259.152C167.275 265.733 172.958 272.198 178.844 278.52C182.06 281.974 185.205 285.474 188.293 289.043C190.337 291.386 192.417 293.693 194.5 296C197.767 299.62 200.995 303.27 204.195 306.949C206.23 309.261 208.302 311.535 210.375 313.813C213.429 317.189 216.344 320.632 219.188 324.188C224.09 330.253 229.423 335.882 234.77 341.555C237.71 344.678 240.564 347.863 243.363 351.113C245.379 353.437 247.439 355.718 249.5 358C252.767 361.62 255.995 365.27 259.195 368.949C261.23 371.261 263.302 373.535 265.375 375.813C268.429 379.189 271.344 382.632 274.188 386.188C279.09 392.253 284.423 397.882 289.77 403.555C292.71 406.678 295.564 409.863 298.363 413.113C301.135 416.308 303.984 419.432 306.828 422.563C308.141 424.035 309.43 425.53 310.672 427.063C324.665 444.243 346.373 453.443 368 456C391.994 457.346 413.982 450.723 432.629 435.148C449.961 419.444 460.01 397.994 461.281 374.738C462.235 345.491 448.995 323.867 430 303C426.727 299.322 423.507 295.601 420.32 291.848C414.726 285.267 409.043 278.802 403.156 272.48C399.94 269.026 396.795 265.526 393.707 261.957C391.664 259.614 389.583 257.307 387.5 255C384.233 251.38 381.005 247.73 377.805 244.051C375.771 241.739 373.698 239.465 371.625 237.188C368.572 233.811 365.656 230.368 362.813 226.813C357.91 220.747 352.578 215.118 347.231 209.445C344.29 206.322 341.436 203.137 338.637 199.887C336.621 197.563 334.562 195.283 332.5 193C329.233 189.38 326.005 185.73 322.805 182.051C320.771 179.739 318.698 177.465 316.625 175.188C313.572 171.811 310.656 168.368 307.813 164.813C302.91 158.747 297.578 153.118 292.231 147.445C289.29 144.322 286.436 141.137 283.637 137.887C281.621 135.563 279.562 133.283 277.5 131C274.236 127.383 271.012 123.736 267.813 120.063C265.728 117.69 263.616 115.344 261.5 113C257.625 108.701 253.787 104.377 250 100C249.569 99.511 249.137 99.022 248.693 98.5181C233.819 81.6451 233.819 81.6451 234 71C234.851 63.4361 237.311 57.5724 242.875 52.25C249.999 47.1211 256.343 45.2613 265 46.5625C275.73 49.0274 283.221 58.8385 290.117 66.8321C292.216 69.2485 294.355 71.6253 296.5 74C301.299 79.3234 306.041 84.6887 310.68 90.1524C316.275 96.7332 321.958 103.198 327.844 109.52C331.06 112.974 334.205 116.474 337.293 120.043C339.336 122.386 341.417 124.693 343.5 127C346.767 130.62 349.995 134.27 353.195 137.949C355.23 140.261 357.302 142.535 359.375 144.813C362.429 148.189 365.344 151.632 368.188 155.188C373.09 161.253 378.423 166.882 383.77 172.555C386.71 175.678 389.564 178.863 392.363 182.113C394.379 184.437 396.439 186.718 398.5 189C401.767 192.62 404.995 196.27 408.195 199.949C410.23 202.261 412.302 204.535 414.375 206.813C417.429 210.189 420.344 213.632 423.188 217.188C428.083 223.245 433.408 228.865 438.746 234.531C452.733 249.386 452.733 249.386 453 255C450.723 260.639 450.723 260.639 448 262C444.192 262.359 441.824 262.494 438.5 260.5C435.854 257.854 433.385 255.117 430.953 252.273C428.84 249.813 426.676 247.405 424.5 245C421.233 241.38 418.005 237.73 414.805 234.051C412.771 231.739 410.698 229.465 408.625 227.188C405.572 223.811 402.656 220.368 399.813 216.813C394.91 210.747 389.578 205.118 384.231 199.445C381.29 196.322 378.436 193.137 375.637 189.887C373.621 187.563 371.562 185.283 369.5 183C366.233 179.38 363.005 175.73 359.805 172.051C357.771 169.739 355.698 167.465 353.625 165.188C350.572 161.811 347.656 158.368 344.813 154.813C339.91 148.747 334.578 143.118 329.231 137.445C326.29 134.322 323.436 131.137 320.637 127.887C318.621 125.563 316.562 123.283 314.5 121C309.701 115.677 304.959 110.311 300.32 104.848C294.727 98.2684 289.045 91.8058 283.161 85.4849C278.687 80.6789 274.364 75.7606 270.094 70.7735C269.465 70.0439 268.836 69.3143 268.188 68.5625C267.624 67.9038 267.061 67.2451 266.481 66.5664C264.12 64.069 263.09 64.0033 259.563 63.875C256.037 63.8306 256.037 63.8306 253 65C251.716 68.8512 251.418 70.9237 252 75C254.277 78.6754 257.105 81.8003 260 85C260.666 85.7384 260.666 85.7384 261.346 86.4917C263.681 89.0735 266.034 91.637 268.402 94.1875C271.077 97.0828 273.676 100.031 276.258 103.008C278.315 105.36 280.406 107.68 282.5 110C285.764 113.617 288.988 117.264 292.188 120.938C294.272 123.31 296.384 125.656 298.5 128C301.767 131.62 304.995 135.27 308.195 138.949C310.23 141.261 312.302 143.535 314.375 145.813C317.429 149.189 320.344 152.632 323.188 156.188C328.09 162.253 333.423 167.882 338.77 173.555C341.71 176.678 344.564 179.863 347.363 183.113C349.379 185.437 351.439 187.718 353.5 190C356.767 193.62 359.995 197.27 363.195 200.949C365.23 203.261 367.302 205.535 369.375 207.813C372.429 211.189 375.344 214.632 378.188 218.188C383.09 224.253 388.423 229.882 393.77 235.555C396.71 238.678 399.564 241.863 402.363 245.113C404.379 247.437 406.439 249.718 408.5 252C411.767 255.62 414.995 259.27 418.195 262.949C420.23 265.261 422.302 267.535 424.375 269.813C427.429 273.189 430.344 276.632 433.188 280.188C436.922 284.818 440.905 289.13 445 293.438C467.45 317.218 479.037 343.564 478.289 376.426C477.164 404.21 464.456 428.663 444.641 447.699C422.133 467.311 394.485 474.805 365 473C334.003 469.593 309.812 453.326 289.848 430.133C287.763 427.726 285.635 425.362 283.5 423C280.233 419.38 277.005 415.73 273.805 412.051C271.771 409.739 269.698 407.465 267.625 405.188C264.572 401.811 261.656 398.368 258.813 394.813C253.91 388.747 248.578 383.118 243.231 377.445C240.29 374.322 237.436 371.137 234.637 367.887C232.621 365.563 230.562 363.283 228.5 361C225.233 357.38 222.005 353.73 218.805 350.051C216.771 347.739 214.698 345.465 212.625 343.188C209.572 339.811 206.656 336.368 203.813 332.813C198.91 326.747 193.578 321.118 188.231 315.445C185.29 312.322 182.436 309.137 179.637 305.887C177.621 303.563 175.562 301.283 173.5 299C170.233 295.38 167.005 291.73 163.805 288.051C161.771 285.739 159.698 283.465 157.625 281.188C154.572 277.811 151.656 274.368 148.813 270.813C143.91 264.747 138.578 259.118 133.231 253.445C130.29 250.322 127.436 247.137 124.637 243.887C122.621 241.563 120.562 239.283 118.5 237C115.233 233.38 112.005 229.73 108.805 226.051C106.771 223.739 104.698 221.465 102.625 219.188C99.5716 215.811 96.6559 212.368 93.8127 208.813C88.9101 202.747 83.5776 197.118 78.2306 191.445C75.2866 188.319 72.4291 185.131 69.6291 181.875C67.6635 179.613 65.6434 177.403 63.6252 175.188C58.8937 169.94 54.4092 164.52 50.0002 159C49.4433 158.323 48.8864 157.647 48.3127 156.949C34.786 139.935 32.7684 120.986 34.0002 100C35.9195 83.2401 45.2245 69.4555 57.0002 58C57.606 57.3968 58.2119 56.7935 58.8361 56.1719C72.531 43.4791 91.1883 38.5953 109.442 38.7852C132.414 40.1721 150.605 50.6873 165.996 67.1329C167.111 68.405 168.213 69.6887 169.301 70.9844C171.267 73.3168 173.318 75.5603 175.375 77.8125C178.429 81.1894 181.344 84.6322 184.188 88.1875C189.09 94.2532 194.423 99.8817 199.77 105.555C202.71 108.678 205.564 111.863 208.363 115.113C210.379 117.437 212.439 119.718 214.5 122C217.764 125.617 220.988 129.264 224.188 132.938C226.272 135.31 228.384 137.656 230.5 140C235.299 145.323 240.041 150.689 244.68 156.152C250.275 162.733 255.958 169.198 261.844 175.52C265.06 178.974 268.205 182.474 271.293 186.043C273.336 188.386 275.417 190.693 277.5 193C280.767 196.62 283.995 200.27 287.195 203.949C289.23 206.261 291.302 208.535 293.375 210.813C296.429 214.189 299.344 217.632 302.188 221.188C307.09 227.253 312.423 232.882 317.77 238.555C320.711 241.678 323.568 244.86 326.36 248.117C327.617 249.56 328.904 250.978 330.203 252.383C340.864 263.926 347.704 274.775 347.471 290.991C346.866 304.472 341.765 313.797 332.063 322.813C321.697 331.44 310.202 333.06 297 332C288.682 330.402 282.334 327.572 276 322C274.546 320.917 274.546 320.917 273.063 319.813C269.427 316.739 266.654 312.944 263.695 309.238C260.593 305.437 257.239 301.881 253.875 298.313C249.717 293.9 245.594 289.482 241.637 284.887C239.621 282.563 237.562 280.283 235.5 278C232.233 274.38 229.005 270.73 225.805 267.051C223.771 264.739 221.698 262.465 219.625 260.188C216.572 256.811 213.656 253.368 210.813 249.813C205.91 243.747 200.578 238.118 195.231 232.445C192.29 229.322 189.436 226.137 186.637 222.887C184.621 220.563 182.562 218.283 180.5 216C177.236 212.383 174.012 208.736 170.813 205.063C168.728 202.69 166.616 200.344 164.5 198C159.701 192.677 154.959 187.311 150.32 181.848C144.729 175.27 139.051 168.807 133.165 162.491C130.412 159.537 127.705 156.554 125.063 153.5C124.526 152.892 123.99 152.283 123.438 151.656C122.114 150.131 120.836 148.567 119.563 147C116.937 144.951 116.121 144.598 112.938 144.375C108.976 144.669 108.976 144.669 106.438 147.063C104.477 151.07 104.63 152.745 106 157C107.43 159.035 109.017 160.778 110.727 162.586C112.963 164.96 115.07 167.406 117.174 169.896C122.254 175.909 127.48 181.759 132.844 187.52C136.06 190.974 139.205 194.474 142.293 198.043C144.337 200.386 146.417 202.693 148.5 205C151.764 208.617 154.988 212.264 158.188 215.938C160.272 218.31 162.384 220.656 164.5 223C169.299 228.323 174.041 233.689 178.68 239.152C184.275 245.733 189.958 252.198 195.844 258.52C199.06 261.974 202.205 265.474 205.293 269.043C207.337 271.386 209.417 273.693 211.5 276C214.764 279.617 217.988 283.264 221.188 286.938C223.272 289.31 225.384 291.656 227.5 294C232.277 299.299 237.003 304.634 241.61 310.082C264.586 337.603 264.586 337.603 297.59 349.777C314.176 350.86 328.591 346.902 342 337C342.982 336.292 342.982 336.292 343.985 335.57C354.891 327.028 362.071 312.532 364 299C365.466 279.891 361.821 263.534 349.266 248.559C346.267 245.172 343.213 241.836 340.132 238.525C337.182 235.342 334.396 232.081 331.688 228.688C326.835 222.654 321.537 217.076 316.231 211.445C313.29 208.322 310.436 205.137 307.637 201.887C305.621 199.563 303.562 197.283 301.5 195C298.233 191.38 295.005 187.73 291.805 184.051C289.771 181.739 287.698 179.465 285.625 177.188C282.572 173.811 279.656 170.368 276.813 166.813C271.91 160.747 266.578 155.118 261.231 149.445C258.29 146.322 255.436 143.137 252.637 139.887C250.621 137.563 248.562 135.283 246.5 133C243.233 129.38 240.005 125.73 236.805 122.051C234.771 119.739 232.698 117.465 230.625 115.188C227.572 111.811 224.656 108.368 221.813 104.813C216.91 98.7468 211.578 93.1184 206.231 87.4454C203.29 84.3223 200.436 81.1373 197.637 77.8868C195.621 75.5635 193.562 73.2826 191.5 71C188.81 68.0194 186.137 65.0276 183.5 62C182.939 61.3594 182.379 60.7187 181.801 60.0586C180.503 58.5749 179.209 57.0874 177.918 55.5977C161.074 36.4529 140.576 23.7982 114.58 21.8155C90.0233 20.5156 68.455 26.9679 49.0002 42C48.2022 42.602 47.4043 43.204 46.5822 43.8243C30.1159 57.2596 19.636 79.1599 17.0002 100C15.3137 129.335 22.3362 153.609 42.0002 176C44.5388 178.838 47.0965 181.656 49.672 184.461C53.7754 188.936 57.7464 193.52 61.6759 198.148C62.6795 199.328 63.6834 200.508 64.6877 201.688C65.1953 202.284 65.703 202.881 66.226 203.495C70.3762 208.341 74.6711 213.037 79.079 217.649C81.8374 220.574 84.2275 223.377 86.0002 227C85.8802 230.478 85.7002 232.95 83.7502 235.875C81.3795 237.399 79.8339 237.868 77.0002 238C72.252 236.061 69.4102 233.659 66.0627 229.813C65.1951 228.825 64.3276 227.838 63.4338 226.82C62.6307 225.89 61.8276 224.959 61.0002 224C59.8752 222.729 58.7502 221.458 57.6252 220.188C55.5072 217.757 53.4109 215.309 51.3244 212.852C46.2613 206.898 41.1496 201.023 35.8127 195.313C18.3373 176.496 6.4981 157.234 1.00017 132C0.82437 131.235 0.648574 130.471 0.467451 129.683C-2.32427 113.656 -1.192 94.4051 4.00017 79C4.23623 78.2967 4.47228 77.5933 4.7155 76.8687C14.3313 49.3231 33.7205 27.4513 59.9379 14.6482C74.7261 7.80172 89.9163 4.60653 106.188 4.68754Z" fill="black"/>
<path d="M106 249C111.977 253.746 116.666 259.974 121.41 265.902C125.051 270.345 129.039 274.474 132.976 278.652C136.517 282.409 139.994 286.2 143.363 290.113C145.379 292.437 147.438 294.717 149.5 297C152.767 300.62 155.995 304.27 159.195 307.949C161.23 310.261 163.302 312.535 165.375 314.812C168.429 318.189 171.344 321.632 174.188 325.187C179.09 331.253 184.423 336.882 189.77 342.555C192.71 345.678 195.564 348.863 198.363 352.113C200.379 354.437 202.438 356.717 204.5 359C207.767 362.62 210.995 366.27 214.195 369.949C216.23 372.261 218.302 374.535 220.375 376.812C223.429 380.189 226.344 383.632 229.188 387.187C234.09 393.253 239.423 398.882 244.77 404.555C247.71 407.678 250.564 410.863 253.363 414.113C255.379 416.437 257.438 418.717 259.5 421C262.764 424.617 265.988 428.264 269.188 431.937C272.031 435.173 274.924 438.363 277.812 441.559C279.736 443.705 281.622 445.876 283.5 448.062C301.599 468.688 324.299 481.856 351 488C351.978 488.228 352.957 488.456 353.965 488.691C370.474 491.86 388.756 491.272 405 487C405.647 486.834 406.294 486.667 406.96 486.496C427.943 480.976 445.464 469.969 461 455C461.646 454.417 462.292 453.835 462.957 453.234C483.371 434.302 494.159 404.032 495.316 376.785C496.151 344.738 486.911 315.617 465.652 291.316C459.49 284.176 459.49 284.176 459.188 279.625C460 276 460 276 462.062 273.437C466.101 271.461 467.724 271.551 472 273C495.147 289.808 507.186 324.573 511.549 351.37C516.038 387.469 507.706 424.37 485.33 453.308C462.533 482.325 432.051 500.733 395.52 506.555C377.241 508.718 357.707 508.004 340 503C339.261 502.802 338.522 502.603 337.761 502.399C306.446 493.808 281.343 473.332 260.637 448.922C258.636 446.573 256.57 444.288 254.5 442C251.236 438.383 248.012 434.736 244.812 431.062C242.728 428.69 240.616 426.344 238.5 424C235.233 420.38 232.005 416.73 228.805 413.051C226.77 410.739 224.698 408.465 222.625 406.187C219.571 402.811 216.656 399.368 213.812 395.812C208.91 389.747 203.577 384.118 198.23 378.445C195.29 375.322 192.436 372.137 189.637 368.887C187.621 366.563 185.562 364.282 183.5 362C180.233 358.38 177.005 354.73 173.805 351.051C171.77 348.739 169.698 346.465 167.625 344.187C164.571 340.811 161.656 337.368 158.812 333.812C153.91 327.747 148.577 322.118 143.23 316.445C140.29 313.322 137.436 310.137 134.637 306.887C132.621 304.563 130.562 302.282 128.5 300C125.233 296.38 122.005 292.73 118.805 289.051C116.77 286.739 114.698 284.465 112.625 282.187C108.623 277.756 104.82 273.193 101.086 268.535C99.2805 266.341 97.3959 264.305 95.4375 262.25C93.2169 259.671 92.9839 258.905 92.375 255.312C93.0939 251.502 93.9211 250.287 97 248C100.856 246.715 102.304 247.431 106 249Z" fill="black"/>
</g>
<defs>
<clipPath id="clip0_100_16">
<rect width="512" height="512" fill="white"/>
</clipPath>
</defs>
</svg>
