<svg width="512" height="512" viewBox="0 0 512 512" fill="none" xmlns="http://www.w3.org/2000/svg">
<g clip-path="url(#clip0_132_86)">
<path d="M66.5143 170.492C67.597 170.486 68.6798 170.48 69.7953 170.473C73.436 170.457 77.0759 170.47 80.7166 170.482C83.3215 170.477 85.9264 170.47 88.5313 170.461C94.8795 170.443 101.228 170.447 107.576 170.459C112.735 170.468 117.893 170.469 123.052 170.465C124.152 170.464 124.152 170.464 125.275 170.463C126.766 170.462 128.256 170.46 129.747 170.459C143.729 170.448 157.711 170.461 171.694 170.482C183.695 170.5 195.696 170.497 207.698 170.479C221.629 170.457 235.561 170.449 249.492 170.461C250.978 170.462 252.463 170.463 253.948 170.465C254.679 170.465 255.409 170.466 256.162 170.467C261.316 170.47 266.469 170.464 271.622 170.455C278.556 170.442 285.49 170.451 292.424 170.474C294.974 170.48 297.523 170.478 300.072 170.469C303.544 170.458 307.014 170.472 310.485 170.492C311.502 170.483 312.519 170.474 313.566 170.465C317.463 170.509 320.185 170.548 323.625 172.456C325.72 176.333 325.555 179.873 325.514 184.217C325.521 185.16 325.528 186.103 325.535 187.075C325.554 190.244 325.543 193.411 325.533 196.58C325.54 198.848 325.549 201.116 325.559 203.385C325.582 209.552 325.579 215.719 325.57 221.887C325.565 227.031 325.572 232.175 325.579 237.32C325.597 250.148 325.591 262.976 325.573 275.804C325.559 286.945 325.573 298.086 325.602 309.228C325.631 320.667 325.642 332.106 325.633 343.546C325.628 349.968 325.63 356.391 325.651 362.813C325.669 368.852 325.663 374.89 325.638 380.929C325.633 383.147 325.637 385.366 325.65 387.584C325.666 390.609 325.651 393.632 325.628 396.656C325.64 397.538 325.652 398.419 325.664 399.327C325.602 403.385 325.29 405.53 323.12 409.045C318.576 411.892 314.714 411.69 309.448 411.628C307.836 411.639 307.836 411.639 306.191 411.65C302.583 411.667 298.977 411.649 295.369 411.631C292.785 411.636 290.201 411.644 287.618 411.653C281.325 411.671 275.032 411.663 268.739 411.645C263.625 411.631 258.511 411.627 253.396 411.63C252.668 411.631 251.941 411.631 251.191 411.632C249.712 411.633 248.234 411.634 246.755 411.635C233.681 411.643 220.606 411.627 207.532 411.597C194.844 411.568 182.156 411.561 169.468 411.576C155.653 411.593 141.838 411.597 128.023 411.58C126.549 411.578 125.076 411.576 123.603 411.574C122.879 411.573 122.154 411.572 121.407 411.571C116.299 411.566 111.19 411.569 106.082 411.576C99.2071 411.584 92.3324 411.571 85.4574 411.544C82.931 411.537 80.4046 411.537 77.8782 411.544C74.4358 411.553 70.9943 411.537 67.5519 411.515C66.0439 411.527 66.0439 411.527 64.5054 411.54C60.432 411.491 57.6035 411.281 53.8795 409.547C51.0553 405.72 51.3097 402.385 51.3716 397.738C51.3645 396.79 51.3574 395.842 51.3501 394.866C51.3324 391.681 51.3506 388.497 51.3687 385.312C51.3635 383.033 51.3563 380.753 51.347 378.473C51.3284 372.275 51.3414 366.077 51.3611 359.879C51.3774 353.4 51.3687 346.92 51.3636 340.441C51.359 329.56 51.3748 318.678 51.4028 307.797C51.4317 296.599 51.4388 285.401 51.4234 274.203C51.4048 260.712 51.4065 247.221 51.4256 233.73C51.4325 228.575 51.4314 223.421 51.424 218.266C51.4164 212.199 51.4284 206.132 51.4559 200.064C51.4628 197.834 51.4628 195.604 51.4557 193.374C51.447 190.336 51.4629 187.299 51.4851 184.262C51.4769 183.373 51.4686 182.485 51.4601 181.57C51.5086 178 51.6634 175.623 53.3748 172.453C57.6045 170.112 61.7587 170.45 66.5143 170.492ZM67.9998 188C67.9998 255.98 67.9998 323.96 67.9998 394C76.9098 394 85.8198 394 94.9998 394C95.2086 386.597 95.2086 386.597 95.3877 379.194C95.9405 363.385 101.263 349.939 112.297 338.477C122.555 329.078 134.446 324.992 148 323C147.175 322.01 146.35 321.02 145.5 320C142.438 315.91 140.06 311.603 137.75 307.062C137.238 306.079 137.238 306.079 136.717 305.076C130.581 292.72 129.824 277.121 133.687 263.937C134.418 261.943 135.186 259.962 136 258C136.491 256.716 136.491 256.716 136.992 255.406C142.799 242.012 154.469 232.47 167.75 227.187C182.144 221.816 199.318 222.159 213.336 228.512C229.14 236.559 238.563 248.141 244.125 264.809C248.602 281.138 245.566 296.051 237.918 310.777C235.718 314.473 233.273 317.564 230.285 320.645C228.885 321.81 228.885 321.81 229 323C230.073 323.13 230.073 323.13 231.168 323.262C242.503 324.86 252.449 327.956 261.195 335.547C263.044 337.208 263.044 337.208 266 338C266.719 339.306 267.377 340.646 268 342C269.107 343.554 270.234 345.095 271.375 346.625C279.28 357.817 281.216 369.627 281.625 383.062C281.749 386.672 281.872 390.281 282 394C290.58 394 299.16 394 308 394C308 326.02 308 258.04 308 188C228.8 188 149.6 188 67.9998 188ZM156.894 254.355C149.129 264.769 146.683 275.092 148 288C149.681 296.425 153.149 302.765 159 309C159.597 309.638 160.193 310.276 160.808 310.934C168.926 318.782 179.95 322.44 191.125 322.273C202.608 321.181 212.494 316.102 220.312 307.688C227.627 298.446 231.092 287.706 230 276C227.94 263.902 221.892 253.936 212.094 246.566C194.17 234.582 171.169 238.385 156.894 254.355ZM127 348C125.762 348.835 125.762 348.835 124.5 349.688C117.914 355.78 114.208 363.421 112 372C112 379.26 112 386.52 112 394C162.49 394 212.98 394 265 394C265.235 370.128 265.235 370.128 253.926 350.734C245.429 342.727 236.957 339.861 225.459 339.823C224.598 339.816 223.737 339.81 222.85 339.803C220.003 339.783 217.156 339.772 214.308 339.762C213.333 339.758 212.357 339.754 211.352 339.749C206.185 339.729 201.018 339.714 195.85 339.705C190.533 339.694 185.216 339.659 179.9 339.62C175.794 339.593 171.689 339.585 167.584 339.582C165.625 339.577 163.667 339.565 161.708 339.547C148.7 339.431 137.791 339.778 127 348Z" fill="currentColor"/>
<path d="M56.107 138.492C57.8794 138.483 57.8794 138.483 59.6877 138.473C62.9411 138.46 66.1938 138.465 69.4472 138.477C72.966 138.486 76.4847 138.472 80.0035 138.461C86.8864 138.443 93.7691 138.447 100.652 138.459C106.248 138.468 111.844 138.469 117.44 138.465C118.238 138.464 119.036 138.464 119.858 138.463C121.479 138.462 123.1 138.46 124.721 138.459C139.905 138.448 155.089 138.461 170.273 138.482C183.289 138.5 196.305 138.497 209.321 138.479C224.452 138.457 239.584 138.449 254.715 138.461C256.33 138.462 257.945 138.463 259.56 138.465C260.355 138.465 261.149 138.466 261.968 138.467C267.554 138.47 273.14 138.464 278.727 138.455C285.539 138.444 292.351 138.447 299.163 138.468C302.636 138.478 306.108 138.483 309.581 138.469C313.352 138.458 317.122 138.472 320.893 138.492C321.982 138.483 323.07 138.474 324.192 138.465C333.986 138.565 342.006 141.162 349.242 147.93C354.186 153.752 357.121 160.832 357.134 168.432C357.139 169.568 357.143 170.703 357.148 171.873C357.148 173.752 357.148 173.752 357.147 175.67C357.151 177.01 357.154 178.35 357.159 179.69C357.169 183.381 357.172 187.072 357.175 190.763C357.179 194.74 357.188 198.718 357.197 202.696C357.217 212.307 357.227 221.918 357.236 231.529C357.24 236.055 357.246 240.581 357.251 245.107C357.268 260.152 357.282 275.198 357.29 290.244C357.291 294.149 357.293 298.054 357.295 301.959C357.296 302.93 357.296 303.9 357.297 304.9C357.305 320.62 357.33 336.34 357.363 352.059C357.396 368.198 357.414 384.337 357.417 400.476C357.419 409.538 357.428 418.599 357.454 427.661C357.475 435.379 357.483 443.097 357.474 450.815C357.469 454.751 357.471 458.688 357.49 462.624C357.508 466.232 357.507 469.84 357.492 473.448C357.488 475.362 357.504 477.277 357.521 479.191C357.449 488.949 355.494 497.168 348.715 504.465C343.459 509.171 338.156 512.117 331.036 512.14C330.005 512.145 328.974 512.151 327.912 512.157C326.208 512.159 326.208 512.159 324.469 512.161C323.265 512.166 322.061 512.171 320.82 512.176C317.471 512.189 314.123 512.198 310.774 512.204C307.903 512.21 305.032 512.22 302.161 512.231C292.701 512.264 283.241 512.285 273.782 512.304C271.318 512.309 268.855 512.314 266.391 512.319C251.091 512.35 235.791 512.376 220.491 512.393C216.947 512.397 213.403 512.401 209.858 512.405C208.977 512.406 208.097 512.407 207.189 512.408C192.924 512.425 178.66 512.466 164.395 512.517C149.748 512.569 135.1 512.598 120.453 512.605C112.23 512.61 104.007 512.625 95.7838 512.665C88.7792 512.699 81.775 512.713 74.7704 512.701C71.1983 512.695 67.6269 512.699 64.055 512.729C60.1763 512.761 56.2986 512.747 52.4198 512.728C51.2993 512.745 50.1787 512.762 49.0242 512.779C40.4776 512.677 34.5536 510.105 28.1996 504.377C20.5161 496.133 19.4123 487.474 19.4788 476.546C19.4727 475.194 19.4649 473.842 19.4556 472.49C19.4351 468.794 19.4394 465.098 19.448 461.401C19.4529 457.407 19.4348 453.413 19.4199 449.419C19.3944 441.602 19.3908 433.785 19.3955 425.967C19.399 419.611 19.3955 413.254 19.387 406.898C19.3858 405.992 19.3846 405.086 19.3834 404.153C19.381 402.313 19.3786 400.473 19.3761 398.633C19.3544 381.388 19.3587 364.142 19.3709 346.896C19.3812 331.133 19.3587 315.37 19.3207 299.606C19.2819 283.406 19.2654 267.206 19.273 251.006C19.2768 241.916 19.2718 232.827 19.2435 223.738C19.2197 215.999 19.2169 208.261 19.2411 200.523C19.2529 196.578 19.2552 192.633 19.2311 188.688C19.2093 185.07 19.2157 181.453 19.2436 177.835C19.2514 175.921 19.2299 174.006 19.207 172.092C19.3227 162.773 21.7301 155.074 27.8088 147.851C35.9609 140.079 45.1914 138.403 56.107 138.492ZM39.2502 161.812C35.9528 166.484 35.8757 170.959 35.8715 176.557C35.8683 177.644 35.8651 178.731 35.8618 179.851C35.8633 181.034 35.8649 182.217 35.8665 183.436C35.8642 184.702 35.8619 185.967 35.8596 187.271C35.8535 190.776 35.8536 194.282 35.8548 197.787C35.855 201.571 35.8495 205.354 35.8447 209.137C35.8364 216.547 35.8337 223.956 35.8331 231.366C35.8326 237.388 35.8306 243.411 35.8274 249.434C35.8186 266.513 35.814 283.591 35.8147 300.67C35.8148 301.591 35.8148 302.511 35.8149 303.459C35.8149 304.381 35.8149 305.303 35.815 306.252C35.8154 321.191 35.8058 336.129 35.7917 351.067C35.7774 366.409 35.7705 381.75 35.7713 397.091C35.7717 405.703 35.7689 414.315 35.7581 422.927C35.749 430.258 35.7469 437.59 35.7537 444.922C35.7569 448.661 35.757 452.401 35.7483 456.141C35.739 460.197 35.7452 464.253 35.7529 468.31C35.7478 469.488 35.7426 470.667 35.7373 471.882C35.6653 481.934 35.6653 481.934 39.4025 491.059C43.6067 494.835 46.1997 496.123 51.7723 496.134C52.7603 496.139 53.7484 496.143 54.7664 496.148C56.3989 496.147 56.3989 496.147 58.0643 496.147C59.2183 496.151 60.3723 496.155 61.5612 496.158C64.7695 496.167 67.9778 496.172 71.1861 496.175C74.6443 496.179 78.1024 496.188 81.5606 496.197C89.9139 496.217 98.2672 496.227 106.621 496.236C110.553 496.24 114.486 496.245 118.419 496.251C131.49 496.268 144.561 496.282 157.632 496.289C161.024 496.291 164.416 496.293 167.808 496.295C169.072 496.296 169.072 496.296 170.362 496.297C184.025 496.305 197.688 496.33 211.351 496.363C225.374 496.396 239.398 496.414 253.421 496.417C261.297 496.419 269.172 496.428 277.047 496.453C283.753 496.475 290.458 496.483 297.164 496.474C300.585 496.469 304.007 496.471 307.428 496.49C311.137 496.508 314.846 496.501 318.555 496.488C319.637 496.499 320.718 496.51 321.833 496.521C327.706 496.47 331.495 496.167 336 492C341.273 486.491 340.561 480.357 340.508 473.17C340.514 471.863 340.521 470.555 340.527 469.208C340.544 465.584 340.535 461.961 340.523 458.338C340.514 454.428 340.528 450.518 340.539 446.608C340.557 438.95 340.553 431.293 340.541 423.635C340.532 417.412 340.531 411.189 340.535 404.966C340.536 403.638 340.536 403.638 340.537 402.283C340.539 400.484 340.54 398.685 340.541 396.886C340.553 380.015 340.539 363.144 340.518 346.273C340.5 331.796 340.503 317.319 340.522 302.842C340.543 286.032 340.551 269.221 340.539 252.411C340.538 250.619 340.537 248.826 340.535 247.034C340.535 246.152 340.534 245.27 340.534 244.361C340.53 238.146 340.536 231.93 340.545 225.714C340.557 218.139 340.554 210.564 340.532 202.99C340.522 199.125 340.518 195.26 340.531 191.395C340.545 187.206 340.528 183.018 340.508 178.83C340.517 177.606 340.526 176.383 340.535 175.122C340.476 168.777 340.3 164.81 336 160C335.227 159.103 335.227 159.103 334.438 158.188C331.599 155.843 328.734 155.874 325.225 155.869C323.742 155.863 323.742 155.863 322.229 155.857C320.596 155.858 320.596 155.858 318.929 155.86C317.775 155.857 316.62 155.854 315.43 155.851C312.22 155.843 309.01 155.841 305.8 155.84C302.339 155.838 298.879 155.831 295.419 155.824C287.851 155.81 280.283 155.804 272.715 155.8C267.991 155.797 263.267 155.793 258.543 155.788C245.467 155.776 232.392 155.766 219.317 155.762C218.062 155.762 218.062 155.762 216.781 155.762C215.942 155.762 215.103 155.761 214.238 155.761C212.538 155.761 210.838 155.76 209.138 155.76C208.295 155.76 207.451 155.759 206.582 155.759C192.912 155.755 179.243 155.738 165.573 155.714C151.543 155.691 137.514 155.678 123.485 155.677C115.606 155.676 107.727 155.67 99.8476 155.652C93.1394 155.637 86.4313 155.632 79.7231 155.64C76.2997 155.644 72.8765 155.643 69.4531 155.629C65.7436 155.616 62.0345 155.622 58.325 155.633C57.2405 155.624 56.156 155.616 55.0386 155.608C47.856 155.656 44.3786 156.568 39.2502 161.812Z" fill="currentColor"/>
<path d="M233.628 4.31224C234.597 4.79187 235.566 5.27149 236.564 5.76565C239.405 7.17588 242.239 8.60106 245.071 10.0301C248.587 11.7978 252.115 13.5415 255.642 15.2888C265.052 19.9564 274.448 24.6535 283.842 29.3538C288.597 31.7326 293.353 34.1094 298.109 36.4865C306.084 40.4732 314.058 44.4616 322.032 48.4509C331.199 53.0369 340.367 57.6199 349.535 62.2015C357.47 66.1664 365.403 70.1329 373.336 74.1006C378.047 76.4568 382.758 78.8126 387.47 81.1669C391.9 83.3805 396.329 85.5961 400.758 87.8132C402.365 88.6176 403.973 89.4213 405.581 90.2243C415.764 95.3092 425.868 100.526 435.926 105.854C440.562 108.306 445.243 110.658 449.957 112.957C451.6 113.767 453.242 114.578 454.885 115.389C457.373 116.614 459.863 117.837 462.356 119.054C464.831 120.265 467.3 121.485 469.77 122.707C470.51 123.065 471.251 123.424 472.014 123.793C478.257 126.899 483.386 130.482 487.25 136.437C487.73 137.158 488.209 137.879 488.703 138.621C492.867 146.258 493.525 154.55 492 163C490.864 166.297 489.332 169.344 487.752 172.449C487.274 173.417 486.797 174.384 486.305 175.382C484.879 178.263 483.44 181.138 481.996 184.011C480.156 187.684 478.338 191.369 476.515 195.051C471.577 205.017 466.611 214.969 461.641 224.918C460.148 227.907 458.656 230.896 457.164 233.885C452.482 243.262 447.798 252.638 443.113 262.014C437.724 272.795 432.341 283.579 426.962 294.366C422.783 302.746 418.599 311.125 414.411 319.501C411.918 324.489 409.426 329.478 406.94 334.469C404.61 339.145 402.274 343.819 399.934 348.49C399.077 350.203 398.222 351.916 397.37 353.631C396.206 355.972 395.035 358.308 393.862 360.644C393.359 361.661 393.359 361.661 392.847 362.698C388.197 371.901 388.197 371.901 384 374C377.834 374.571 377.834 374.571 374.625 372.375C372.523 369.302 372.123 367.76 372 364C373.179 360.462 374.865 357.208 376.558 353.892C377.304 352.385 377.304 352.385 378.064 350.848C379.139 348.68 380.222 346.516 381.311 344.354C382.984 341.031 384.638 337.698 386.286 334.362C389.541 327.785 392.819 321.22 396.104 314.658C397.754 311.361 399.402 308.062 401.05 304.764C403.813 299.237 406.577 293.71 409.343 288.185C412.511 281.854 415.676 275.522 418.84 269.189C421.59 263.683 424.342 258.178 427.096 252.674C428.725 249.417 430.354 246.158 431.982 242.9C438.854 229.144 445.79 215.433 453.013 201.858C456.507 195.281 459.919 188.662 463.299 182.026C464.193 180.28 465.095 178.539 466.004 176.801C467.348 174.229 468.665 171.646 469.977 169.059C470.586 167.913 470.586 167.913 471.207 166.744C473.988 161.165 474.816 156.217 474 150C470.19 141.586 460.355 138.03 452.476 134.118C451.548 133.653 450.62 133.188 449.664 132.709C446.573 131.162 443.479 129.62 440.384 128.079C438.159 126.966 435.935 125.854 433.71 124.741C428.927 122.349 424.143 119.96 419.357 117.573C412.423 114.114 405.492 110.651 398.561 107.186C387.293 101.555 376.024 95.927 364.753 90.3013C353.844 84.8558 342.936 79.4088 332.029 73.9595C331.358 73.6242 330.687 73.289 329.995 72.9436C326.627 71.2606 323.258 69.5776 319.89 67.8946C313.32 64.6119 306.749 61.3294 300.179 58.0471C299.543 57.7293 298.907 57.4114 298.251 57.084C282.209 49.0702 266.166 41.0596 250.122 33.05C249.141 32.56 248.16 32.0701 247.149 31.5653C245.276 30.6303 243.402 29.6962 241.527 28.7633C237.578 26.7965 233.636 24.82 229.718 22.7898C229.077 22.46 228.435 22.1302 227.774 21.7904C226.133 20.945 224.497 20.0909 222.861 19.2358C218.536 17.3676 214.474 16.3634 209.938 17.9375C202.609 21.1605 199.621 30.4803 196.257 37.3059C195.813 38.1996 195.368 39.0932 194.91 40.014C193.953 41.9392 192.998 43.8653 192.044 45.7922C190.535 48.8411 189.02 51.8874 187.504 54.9329C183.197 63.587 178.9 72.2462 174.605 80.9065C171.972 86.2155 169.333 91.5217 166.69 96.8261C165.686 98.846 164.683 100.867 163.683 102.889C162.289 105.709 160.887 108.526 159.484 111.341C159.072 112.178 158.661 113.015 158.237 113.877C157.853 114.644 157.469 115.41 157.073 116.2C156.744 116.866 156.414 117.531 156.074 118.216C153.991 121.676 152.594 122.846 148.625 123.875C144.598 124.014 143.112 123.471 140 121C138.05 117.1 138.398 112.807 139.745 108.765C140.842 106.278 142.03 103.86 143.263 101.438C143.717 100.517 144.171 99.5951 144.638 98.6457C146.137 95.6123 147.66 92.5912 149.184 89.5703C150.239 87.4538 151.294 85.3368 152.347 83.2194C154.559 78.7844 156.782 74.3553 159.013 69.9302C161.86 64.2834 164.677 58.6228 167.486 52.9573C169.659 48.5812 171.848 44.2129 174.041 39.8467C175.085 37.7641 176.125 35.679 177.159 33.5916C190.554 6.61297 190.554 6.61297 203 0.999986C213.8 -2.36599 223.782 -0.733165 233.628 4.31224Z" fill="currentColor"/>
<path d="M230.428 38.7054C232.837 39.7258 235.146 40.8559 237.469 42.0597C238.798 42.7149 238.798 42.7149 240.154 43.3833C243.097 44.8412 246.023 46.3297 248.95 47.8188C251.066 48.875 253.183 49.9292 255.3 50.9817C261.033 53.8381 266.752 56.7217 272.469 59.6108C277.852 62.329 283.246 65.0239 288.64 67.7213C299.328 73.0674 310.005 78.4341 320.676 83.813C331.015 89.0247 341.361 94.2226 351.716 99.4048C352.354 99.724 352.991 100.043 353.648 100.372C354.285 100.691 354.922 101.009 355.578 101.338C356.86 101.979 358.142 102.621 359.424 103.263C360.057 103.579 360.689 103.896 361.341 104.222C371.229 109.172 381.112 114.134 390.994 119.097C395.158 121.188 399.323 123.277 403.488 125.364C409.101 128.179 414.709 131.001 420.314 133.83C422.368 134.865 424.424 135.898 426.481 136.928C429.295 138.338 432.104 139.757 434.912 141.178C435.722 141.581 436.531 141.984 437.365 142.399C451.321 149.512 451.321 149.512 454 156C455.408 162.602 453.908 167.893 450.792 173.716C450.054 175.144 449.316 176.573 448.58 178.003C448.169 178.794 447.758 179.586 447.335 180.402C444.781 185.373 442.323 190.391 439.847 195.401C438.691 197.733 437.535 200.065 436.379 202.396C436.082 202.995 435.785 203.595 435.478 204.212C431.299 212.639 427.107 221.06 422.915 229.48C419.51 236.323 416.109 243.167 412.718 250.017C409.738 256.038 406.748 262.055 403.749 268.067C402.168 271.236 400.592 274.407 399.026 277.583C397.285 281.113 395.526 284.632 393.765 288.151C393.253 289.197 392.741 290.242 392.214 291.319C387.702 300.266 387.702 300.266 383 303C379.268 303.622 377.509 303.254 374.125 301.562C371.616 298.537 371.454 296.579 371.558 292.71C372.48 287.057 375.38 282.139 377.992 277.102C378.62 275.86 379.246 274.618 379.871 273.376C381.518 270.11 383.187 266.855 384.861 263.603C386.525 260.358 388.168 257.102 389.813 253.848C395.539 242.538 401.356 231.278 407.296 220.078C413.099 209.088 418.585 197.936 424.125 186.812C425.284 184.49 426.443 182.168 427.602 179.846C430.403 174.232 433.203 168.616 436 163C420.757 154.851 405.321 147.1 389.852 139.392C386.375 137.658 382.898 135.921 379.421 134.185C370.615 129.788 361.808 125.394 353 121C343.483 116.253 333.966 111.504 324.451 106.752C321.013 105.035 317.574 103.319 314.133 101.604C300.669 94.8943 287.236 88.1429 273.948 81.0875C268.702 78.3037 263.4 75.6359 258.082 72.9922C257.088 72.4958 256.094 71.9995 255.07 71.4881C251.985 69.9484 248.899 68.4117 245.813 66.875C243.683 65.8127 241.553 64.7502 239.424 63.6875C234.284 61.1228 229.142 58.5605 224 56C215.406 71.475 207.334 87.1477 199.539 103.038C198.186 105.792 196.826 108.543 195.465 111.293C195.059 112.127 194.653 112.961 194.234 113.821C193.853 114.59 193.471 115.36 193.078 116.153C192.748 116.826 192.418 117.499 192.077 118.193C190.003 121.672 188.605 122.843 184.625 123.875C180.599 124.014 179.112 123.471 176 121C174.379 117.759 174.552 114.513 175 111C176.073 107.884 177.571 105.059 179.137 102.164C179.568 101.335 179.999 100.506 180.444 99.6512C181.843 96.9675 183.265 94.2964 184.688 91.625C186.141 88.8575 187.59 86.0876 189.039 83.3175C190.001 81.4782 190.966 79.6398 191.933 77.8026C194.732 72.4724 197.458 67.1161 200.078 61.6953C200.374 61.0864 200.67 60.4775 200.975 59.8501C202.304 57.1088 203.62 54.3619 204.915 51.604C210.279 40.5602 217.774 35.0285 230.428 38.7054Z" fill="currentColor"/>
</g>
<defs>
<clipPath id="clip0_132_86">
<rect width="512" height="512" fill="white"/>
</clipPath>
</defs>
</svg>
