<svg width="365" height="361" viewBox="0 0 365 361" fill="none" xmlns="http://www.w3.org/2000/svg">
<g clip-path="url(#clip0_342_23)">
<path d="M323.207 0.748951C327.134 3.61593 329.54 6.57211 330.781 11.2811C330.996 13.9926 330.991 16.6975 330.988 19.4163C330.993 20.2308 330.998 21.0454 331.003 21.8846C331.016 24.5746 331.019 27.2645 331.021 29.9546C331.024 31.3548 331.027 32.7549 331.031 34.155C331.043 38.5573 331.046 42.9596 331.045 47.3619C331.045 51.8885 331.06 56.4149 331.082 60.9415C331.101 64.8398 331.108 68.738 331.107 72.6364C331.107 74.9593 331.112 77.282 331.126 79.6049C331.14 82.2002 331.136 84.7949 331.128 87.3902C331.136 88.1494 331.144 88.9086 331.152 89.6907C331.109 94.8428 330.403 99.984 326.969 104.09C324.541 106.254 321.859 107.32 318.796 108.326C318.304 108.49 317.812 108.655 317.306 108.824C315.622 109.384 313.934 109.931 312.246 110.477C311.018 110.881 309.789 111.285 308.561 111.69C306.446 112.388 304.33 113.083 302.213 113.775C296.168 115.753 290.139 117.775 284.112 119.808C279.736 121.284 275.356 122.751 270.975 124.215C267.819 125.27 264.664 126.33 261.511 127.397C258.49 128.42 255.464 129.432 252.435 130.435C251.307 130.811 250.18 131.191 249.055 131.575C234.972 136.378 234.972 136.378 229.269 133.939C225.639 131.915 223.202 129.394 221.531 125.592C220.447 121.126 220.992 117.914 222.667 113.735C227.332 107.303 235.438 105.621 242.664 103.299C243.946 102.879 245.227 102.459 246.508 102.037C249.181 101.16 251.857 100.289 254.534 99.4241C257.969 98.3145 261.399 97.1929 264.828 96.0668C268.102 94.9921 271.379 93.9235 274.655 92.8553C275.28 92.6509 275.905 92.4465 276.549 92.2359C278.312 91.6606 280.077 91.0896 281.842 90.5201C282.365 90.3487 282.888 90.1773 283.428 90.0008C285.517 89.331 287.222 88.8397 289.434 88.8397C287.43 85.6275 285.19 83.0862 282.349 80.555C281.943 80.1897 281.537 79.8245 281.118 79.4481C276.946 75.7464 272.593 72.3362 268.047 69.0975C267.649 68.8124 267.251 68.5274 266.84 68.2337C254.737 59.6685 241.474 53.382 227.412 48.6502C226.63 48.3861 226.63 48.3861 225.832 48.1166C217.289 45.2943 208.502 43.6443 199.609 42.3045C199.118 42.2297 198.626 42.155 198.12 42.078C162.461 37.4113 124.67 47.1425 95.5272 67.6873C94.8178 68.1736 94.1084 68.6598 93.3774 69.1608C89.4136 71.9259 85.7741 74.9108 82.2134 78.1671C80.7713 79.4783 79.2971 80.7238 77.7941 81.9651C67.3514 91.0283 58.8823 102.35 52.0955 114.283C51.581 115.188 51.0609 116.089 50.5354 116.988C30.8489 150.747 27.4836 191.064 37.2623 228.382C40.2182 239.032 44.6261 249.054 49.9022 258.763C50.3231 259.561 50.744 260.359 51.1776 261.182C57.5151 272.731 65.8351 282.817 75.1273 292.151C76.1151 293.147 77.0859 294.159 78.0531 295.174C82.2798 299.546 87.0154 303.182 91.9628 306.709C92.5605 307.135 92.5605 307.135 93.1703 307.571C116.972 324.339 145.307 334.724 174.658 335.617C175.434 335.645 176.209 335.673 177.008 335.702C214.557 336.392 252.746 323.198 280.166 297.543C281.157 296.686 282.152 295.834 283.151 294.987C289.118 289.802 293.908 284.04 298.701 277.801C299.219 277.127 299.738 276.454 300.272 275.76C303.862 270.986 307.097 266.029 310.107 260.879C310.366 260.437 310.624 259.996 310.89 259.541C320.565 242.78 326.058 224.252 328.642 205.178C328.783 204.141 328.783 204.141 328.927 203.084C330.042 192.71 329.685 182.096 328.445 171.757C326.87 158.429 326.87 158.429 330.068 153.002C333.248 149.246 336.464 147.602 341.385 147.053C345.638 147.233 349.403 148.892 352.435 151.812C364.619 171.741 358.306 207.495 353.145 228.856C350.269 240.253 346.459 250.915 341.475 261.584C341.237 262.093 341 262.602 340.756 263.126C335.563 274.131 329.17 284.521 321.514 294.017C320.76 294.966 320.76 294.966 319.99 295.934C315.757 301.166 311.201 306.079 306.543 310.939C305.782 311.737 305.782 311.737 305.006 312.55C301.633 315.989 297.99 319.034 294.187 321.997C293.352 322.649 292.521 323.305 291.692 323.965C269.014 341.978 242.405 353.533 213.867 358.885C213.309 358.999 212.75 359.113 212.175 359.231C191.662 363.345 167.953 362.536 147.568 358.18C146.835 358.025 146.101 357.87 145.345 357.71C115.799 351.296 87.6833 337.931 65.5858 317.285C64.6534 316.488 63.7178 315.695 62.7788 314.905C56.4244 309.406 50.8285 303.406 45.6249 296.838C45.0698 296.16 44.5148 295.482 43.9429 294.783C15.6955 259.638 3.13556 213.665 7.80582 169.156C11.4817 138.568 22.3797 109.183 41.3475 84.6092C41.6437 84.2167 41.9398 83.8241 42.2449 83.4197C70.0342 46.5952 111.503 23.0865 157.226 16.0486C158.521 15.8652 159.817 15.6859 161.113 15.5115C161.908 15.4009 161.908 15.4009 162.718 15.2881C196.332 11.2664 230.634 17.9042 260.918 32.4334C261.386 32.6556 261.854 32.8778 262.336 33.1068C274.785 39.0966 286.17 47.1821 296.693 56.0261C297.86 57.0037 299.033 57.9737 300.208 58.9416C301.226 59.7806 301.226 59.7806 302.266 60.6365C302.267 59.6881 302.267 59.6881 302.269 58.7205C302.281 52.7454 302.311 46.7708 302.36 40.7959C302.384 37.7246 302.402 34.6535 302.405 31.582C302.408 28.6148 302.428 25.6481 302.46 22.681C302.47 21.5521 302.473 20.4232 302.47 19.2944C302.444 7.80522 302.444 7.80522 306.543 3.5252C311.209 -0.759721 317.225 -1.11339 323.207 0.748951Z" fill="black"/>
</g>
<defs>
<clipPath id="clip0_342_23">
<rect width="365" height="361" fill="white"/>
</clipPath>
</defs>
</svg>
