<svg width="512" height="512" viewBox="0 0 512 512" fill="none" xmlns="http://www.w3.org/2000/svg">
<g clip-path="url(#clip0_111_64)">
<path d="M508 53.0001C510.437 54.5001 510.437 54.5001 512 57.0001C512.785 64.1641 510.681 68.7905 507.375 75.0626C506.64 76.4891 506.64 76.4891 505.89 77.9444C488.415 111.3 465.717 140.262 439.25 166.875C438.553 167.577 437.856 168.279 437.137 169.002C433.162 172.965 429.085 176.749 424.835 180.415C422.347 182.564 419.924 184.78 417.5 187C414.381 189.845 411.252 192.672 408.062 195.438C404.653 198.399 401.322 201.442 398 204.5C394.591 207.637 391.173 210.76 387.687 213.813C386.752 214.632 386.752 214.632 385.797 215.469C384.619 216.472 383.421 217.453 382.203 218.406C368.702 229.159 365.156 245.8 360.793 261.711C360.419 263.059 360.045 264.406 359.671 265.754C358.701 269.248 357.738 272.743 356.776 276.239C355.787 279.827 354.793 283.413 353.799 287C351.86 293.999 349.928 300.999 348 308C360.866 310.486 373.744 312.872 386.656 315.109C389.387 315.583 392.118 316.059 394.848 316.537C402.592 317.89 410.337 319.242 418.083 320.585C422.868 321.414 427.651 322.249 432.433 323.088C434.236 323.404 436.039 323.717 437.843 324.027C467.8 329.19 467.8 329.19 476.312 339.75C481.247 346.994 483.429 353.799 483.531 362.555C482.824 365.809 481.552 366.901 479 369C476.612 369.499 476.612 369.499 473.931 369.498C472.923 369.508 471.914 369.518 470.875 369.529C469.79 369.521 468.704 369.512 467.586 369.504C465.899 369.518 465.899 369.518 464.177 369.533C460.576 369.561 456.976 369.564 453.375 369.563C449.795 369.566 446.216 369.576 442.637 369.603C440.411 369.62 438.185 369.623 435.959 369.61C423.786 369.692 415.165 372.945 406 381C404.195 382.959 402.43 384.926 400.687 386.938C390.27 398.871 376.043 406.071 360.148 407.203C359.233 407.219 358.318 407.234 357.375 407.25C356.455 407.276 355.534 407.302 354.586 407.328C351.521 406.939 350.204 406.134 348 404C346.982 400.655 346.829 398.629 347.75 395.25C349 393 349 393 352 391C354.137 390.667 356.286 390.406 358.437 390.188C371.968 388.362 382.641 382.627 391.375 372.063C400.325 361.36 412.285 354.787 426 353C432.53 352.552 439.082 352.491 445.625 352.375C447.41 352.337 449.195 352.298 450.98 352.258C455.32 352.163 459.66 352.078 464 352C458.415 345.738 452.65 343.891 444.588 342.485C443.88 342.36 443.172 342.234 442.443 342.104C440.11 341.691 437.776 341.291 435.441 340.891C433.787 340.601 432.133 340.31 430.479 340.019C426.981 339.404 423.483 338.795 419.984 338.19C414.56 337.251 409.139 336.298 403.717 335.342C388.829 332.722 373.937 330.127 359.016 327.699C357.127 327.387 355.238 327.075 353.349 326.763C350.092 326.224 346.831 325.712 343.567 325.218C342.165 324.989 340.764 324.759 339.363 324.527C337.635 324.26 337.635 324.26 335.872 323.988C332.078 322.683 330.852 321.57 329 318C328.963 309.459 331.981 301.043 334.262 292.863C334.695 291.296 335.127 289.728 335.559 288.16C336.465 284.881 337.376 281.604 338.291 278.328C339.451 274.171 340.595 270.009 341.736 265.847C342.626 262.607 343.525 259.371 344.426 256.135C344.851 254.604 345.273 253.072 345.692 251.539C352.061 228.284 361.887 212.889 380 197C381.131 196 381.131 196 382.285 194.981C383.523 193.895 384.765 192.814 386.012 191.738C388.54 189.528 391.019 187.264 393.5 185C396.619 182.155 399.747 179.328 402.937 176.563C406.889 173.13 410.737 169.587 414.584 166.038C417.284 163.553 420.011 161.119 422.812 158.75C432.258 150.529 441.174 141.481 448.914 131.641C451.097 128.877 453.386 126.228 455.687 123.563C460.269 118.087 464.405 112.346 468.5 106.5C469.112 105.627 469.724 104.754 470.354 103.854C472.808 100.313 475.153 96.9019 477 93.0001C466.663 100.721 456.38 108.508 446.141 116.359C442.596 119.076 439.048 121.788 435.5 124.5C434.083 125.583 432.667 126.667 431.25 127.75C371.75 173.25 371.75 173.25 369.623 174.876C368.213 175.955 366.803 177.034 365.395 178.114C361.755 180.903 358.104 183.676 354.434 186.426C353.681 186.993 352.928 187.56 352.152 188.145C350.733 189.214 349.31 190.278 347.883 191.336C338.866 198.148 332.392 205.836 326.187 215.25C325.074 216.914 323.96 218.577 322.846 220.24C321.68 221.982 320.518 223.727 319.356 225.472C315.874 230.695 312.339 235.882 308.809 241.072C306.822 243.993 304.839 246.917 302.855 249.84C302.261 250.716 302.261 250.716 301.654 251.61C298.741 255.905 295.833 260.204 292.926 264.504C288.962 270.367 284.985 276.22 280.997 282.067C279.279 284.591 277.572 287.123 275.867 289.656C268.91 299.877 262.215 305.991 250 309C241.53 309.592 232.953 308.751 224.504 308.125C221.895 307.942 219.286 307.76 216.678 307.578C212.648 307.294 208.619 307.004 204.59 306.709C190.138 305.657 175.706 304.791 161.215 304.625C160.046 304.599 158.877 304.573 157.672 304.546C144.648 304.518 132.689 309.367 123.187 318.375C117.75 324.196 114.542 330.507 112 338C112.641 338.124 113.281 338.248 113.941 338.375C121.044 340.069 125.03 342.842 129 349C131.907 354.979 132.285 362.081 130.207 368.418C128.496 371.913 126.363 374.913 124 378C133.46 386.135 142.536 390.119 155.066 390.131C155.766 390.134 156.466 390.136 157.187 390.138C159.525 390.144 161.863 390.143 164.201 390.142C165.88 390.145 167.559 390.148 169.238 390.152C172.85 390.16 176.463 390.166 180.075 390.169C185.785 390.175 191.495 390.191 197.205 390.21C199.161 390.216 201.116 390.223 203.071 390.229C204.05 390.232 205.029 390.235 206.038 390.239C219.33 390.281 232.622 390.314 245.914 390.326C254.883 390.334 263.853 390.357 272.822 390.395C277.569 390.415 282.315 390.428 287.061 390.423C291.523 390.418 295.983 390.432 300.444 390.46C302.083 390.466 303.721 390.467 305.359 390.459C307.594 390.451 309.826 390.466 312.061 390.488C313.312 390.49 314.562 390.493 315.851 390.495C319.568 391.091 320.744 392.048 323 395C323.531 397 323.531 397 323.5 399C323.51 399.66 323.521 400.32 323.531 401C322.757 403.913 321.302 405.095 319 407C316.507 407.481 316.507 407.481 313.681 407.454C312.62 407.454 311.559 407.454 310.466 407.453C309.327 407.433 308.189 407.412 307.016 407.391C305.845 407.385 304.674 407.379 303.468 407.374C299.728 407.351 295.989 407.301 292.25 407.25C289.715 407.23 287.18 407.212 284.644 407.195C278.429 407.151 272.215 407.084 266 407C266.114 409.084 266.242 411.167 266.375 413.25C266.445 414.41 266.514 415.57 266.586 416.766C266.965 419.729 267.405 421.515 269 424C272.574 426.721 276.795 426.279 281.09 426.274C282.695 426.294 284.299 426.315 285.904 426.336C288.423 426.359 290.942 426.375 293.462 426.381C295.901 426.39 298.338 426.424 300.777 426.461C301.526 426.456 302.275 426.451 303.047 426.446C306.6 426.512 308.867 426.924 311.975 428.69C314.441 431.503 314.632 432.799 314.629 436.5C314.631 437.552 314.633 438.604 314.635 439.688C314.611 440.781 314.587 441.874 314.562 443C314.573 444.093 314.584 445.186 314.596 446.313C314.522 454.338 314.522 454.338 312.179 457.309C310 459 310 459 306.562 459.563C303 459 303 459 300.062 457.188C296.962 452.397 297.66 448.639 298 443C293.71 443 289.42 443 285 443C285.082 444.898 285.165 446.795 285.25 448.75C285.493 454.342 285.493 454.342 283.234 457.356C280.255 459.548 278.503 459.658 274.906 459.43C273 459 273 459 270.5 457.188C268.895 453.777 268.841 452.008 268.906 448.301C268.92 447.309 268.933 446.317 268.947 445.294C268.973 444.159 268.973 444.159 269 443C268.194 443.016 267.387 443.032 266.557 443.048C262.871 443.11 259.186 443.149 255.5 443.188C253.597 443.225 253.597 443.225 251.656 443.264C242.188 443.338 234.739 442.566 227.609 435.828C221.934 429.381 220.682 423.505 220.871 415.145C220.885 413.967 220.885 413.967 220.899 412.765C220.923 410.843 220.96 408.922 221 407C220.108 407.009 219.217 407.018 218.298 407.027C209.827 407.108 201.355 407.168 192.884 407.207C188.53 407.228 184.177 407.256 179.823 407.302C175.609 407.346 171.394 407.369 167.179 407.38C165.585 407.387 163.99 407.401 162.396 407.423C143.058 407.677 125.681 403.716 111.059 390.246C109 388 109 388 107.744 385.399C106.211 382.74 106.211 382.74 103.312 382.374C102.23 382.374 101.147 382.373 100.031 382.372C98.8033 382.359 97.5751 382.346 96.3097 382.332C94.9682 382.343 93.6266 382.353 92.2851 382.363C90.9089 382.355 89.5327 382.345 88.1565 382.332C84.5329 382.303 80.9099 382.303 77.2862 382.31C71.49 382.317 65.694 382.286 59.8979 382.247C57.8748 382.239 55.8521 382.244 53.829 382.251C51.9821 382.245 51.9821 382.245 50.0978 382.24C48.4726 382.242 48.4726 382.242 46.8145 382.245C43.9894 381.999 42.3674 381.521 39.9999 380C37.4986 376.623 37.4405 373.028 37.9999 369C40.7117 356.921 44.9957 349.78 54.9492 342.543C64.0849 337.923 73.1148 337.601 83.1874 337.813C84.4256 337.826 85.6637 337.84 86.9394 337.854C89.96 337.889 92.9797 337.938 95.9999 338C96.1224 336.801 96.2449 335.602 96.371 334.367C97.7006 323.856 103.034 315.721 110 308C110.532 307.375 111.065 306.75 111.613 306.106C121.596 295.132 135.517 289.33 150 288C148.719 283.304 147.423 278.613 146.112 273.925C145.671 272.338 145.233 270.75 144.8 269.161C135.689 235.74 118.503 208.632 92.246 185.957C89.5725 183.628 86.9402 181.256 84.3124 178.875C83.4217 178.068 82.5309 177.261 81.6132 176.43C80.7508 175.628 79.8884 174.826 78.9999 174C78.0757 173.148 77.1514 172.296 76.1992 171.418C73.9999 169 73.9999 169 73.4999 165.438C74.2458 160.31 74.2458 160.31 76.9999 158C80.2391 156.857 82.5287 156.301 85.7421 157.828C91.8574 162.185 97.2246 167.761 102.684 172.902C105.093 175.166 107.539 177.363 110.062 179.5C143.211 208.399 155.874 244.683 167 286C173.905 286.572 180.81 287.141 187.715 287.709C190.065 287.903 192.414 288.097 194.763 288.291C198.139 288.571 201.515 288.848 204.891 289.125C206.467 289.256 206.467 289.256 208.076 289.39C209.057 289.47 210.037 289.55 211.048 289.633C211.909 289.704 212.771 289.775 213.659 289.848C215.769 289.985 217.886 290 220 290C221.761 287.944 223.211 285.998 224.687 283.75C225.559 282.464 226.433 281.178 227.309 279.895C227.751 279.243 228.192 278.592 228.648 277.921C229.945 276.079 231.304 274.323 232.723 272.574C233.148 272.044 233.573 271.514 234.011 270.968C235.19 269.511 236.384 268.066 237.578 266.621C239.273 264.143 239.273 264.143 238.594 261.668C236.349 257.91 233.85 254.394 231.25 250.875C230.675 250.088 230.1 249.301 229.508 248.49C227.678 245.989 225.84 243.494 224 241C222.828 239.409 221.656 237.818 220.484 236.227C218.735 233.853 216.985 231.48 215.233 229.109C211.287 223.764 207.382 218.392 203.5 213C201.892 210.772 200.283 208.544 198.674 206.317C197.521 204.721 196.368 203.124 195.217 201.527C181.917 183.122 169.562 171.03 149.812 159.625C147.36 158.202 144.908 156.777 142.457 155.352C141.844 154.996 141.232 154.64 140.6 154.273C134.95 150.985 129.346 147.622 123.744 144.251C118.185 140.905 112.603 137.598 107.023 134.288C104.984 133.079 102.946 131.869 100.908 130.659C94.5206 126.868 88.1324 123.079 81.7437 119.29C64.8 109.241 47.8788 99.1574 30.9999 89.0001C31.6238 92.2185 32.7388 94.3964 34.5898 97.0899C35.3879 98.2569 35.3879 98.2569 36.2021 99.4474C36.7747 100.269 37.3474 101.091 37.9374 101.938C38.8177 103.211 38.8177 103.211 39.7158 104.51C45.3473 112.6 51.1368 120.589 57.6171 128.027C58.4447 128.988 59.2723 129.948 60.1249 130.938C60.87 131.772 61.6151 132.606 62.3827 133.465C64.3747 136.588 64.4718 138.359 63.9999 142C61.4522 145.551 59.9074 146.798 55.6249 147.75C50.3474 146.658 48.3593 144.076 44.9999 140C44.1865 139.015 43.3731 138.03 42.5351 137.016C31.5504 123.45 21.6781 109.139 12.9999 94.0001C12.6064 93.32 12.213 92.6398 11.8075 91.9391C-1.26716 69.3066 -1.26716 69.3066 -6.96778e-05 61.0001C2.06243 58.4376 2.06243 58.4376 4.99993 57.0001C11.8601 57.0973 16.6975 60.3803 22.4374 63.8751C23.4738 64.493 24.5102 65.1108 25.5781 65.7474C27.8491 67.1023 30.1173 68.4609 32.3823 69.8258C36.1001 72.064 39.8319 74.2781 43.5663 76.4884C48.9538 79.6781 54.3381 82.8731 59.7187 86.0743C67.146 90.4929 74.5764 94.9062 82.008 99.3176C85.3388 101.295 88.6693 103.273 91.9999 105.25C93.3333 106.042 94.6666 106.833 95.9999 107.625C104 112.375 104 112.375 106 113.562C107.334 114.355 108.668 115.147 110.002 115.939C113.324 117.911 116.647 119.884 119.969 121.858C126.808 125.919 133.649 129.978 140.492 134.031C147.773 138.345 155.049 142.667 162.32 147C163.889 147.934 165.459 148.867 167.029 149.799C169.544 151.297 172.055 152.802 174.562 154.313C175.24 154.714 175.917 155.116 176.615 155.529C183.583 159.758 189.203 164.762 194.125 171.25C194.818 172.147 194.818 172.147 195.524 173.062C200.358 179.371 204.985 185.832 209.613 192.293C213.033 197.061 216.511 201.783 220 206.5C230.143 220.23 240.097 234.096 250 248C254.867 242.1 259.458 236.043 263.871 229.799C267.456 224.736 271.123 219.737 274.812 214.75C279.52 208.383 284.188 201.99 288.812 195.563C293.794 188.646 298.822 181.772 304 175C304.648 174.118 304.648 174.118 305.309 173.219C313.523 162.531 326.456 156.418 337.864 149.821C343.223 146.709 348.547 143.54 353.875 140.375C355.586 139.361 357.297 138.346 359.009 137.332C370.634 130.442 382.253 123.54 393.872 116.64C400.583 112.654 407.294 108.669 414.005 104.685C417.337 102.706 420.668 100.728 424 98.7501C425.333 97.9584 426.667 97.1668 428 96.3751C428.66 95.9832 429.32 95.5913 430 95.1876C432 94.0001 434 92.8126 436 91.6251C436.66 91.2333 437.32 90.8415 438 90.4378C439.334 89.6454 440.669 88.8529 442.004 88.0604C445.316 86.0937 448.628 84.127 451.941 82.1603C458.191 78.449 464.441 74.7379 470.692 71.0273C473.646 69.2739 476.6 67.5204 479.553 65.7669C480.962 64.9308 482.37 64.0947 483.779 63.2586C485.732 62.0997 487.684 60.9405 489.637 59.7814C490.747 59.122 491.858 58.4626 493.003 57.7833C494.911 56.648 496.804 55.4865 498.675 54.2911C501.969 52.4617 504.297 52.5289 508 53.0001ZM381 143C378.753 144.137 376.652 145.327 374.508 146.637C373.854 147.028 373.2 147.418 372.527 147.821C370.388 149.102 368.256 150.394 366.125 151.688C364.661 152.57 363.197 153.451 361.732 154.332C359.538 155.651 357.345 156.972 355.154 158.296C351.051 160.775 346.931 163.22 342.781 165.621C334.026 170.703 326.012 175.595 319 183C318.408 183.607 317.817 184.214 317.207 184.84C312.593 189.834 308.766 195.424 304.859 200.973C301.701 205.447 298.446 209.848 295.187 214.25C290.587 220.473 286.021 226.719 281.5 233C276.464 239.997 271.366 246.946 266.241 253.879C261.638 260.115 257.093 266.392 252.571 272.688C248.648 278.139 244.621 283.5 240.512 288.813C238.81 290.831 238.81 290.831 239 293C244.922 293.317 249.857 293.178 255 290C260.845 283.749 265.52 276.456 270.187 269.313C271.587 267.192 272.988 265.072 274.391 262.953C274.757 262.398 275.124 261.843 275.502 261.271C280.093 254.331 284.765 247.447 289.437 240.563C289.88 239.91 290.323 239.258 290.779 238.586C292.555 235.969 294.332 233.351 296.109 230.734C298.64 227.007 301.166 223.276 303.686 219.541C304.85 217.817 306.015 216.094 307.18 214.371C308.592 212.284 310.001 210.195 311.408 208.104C320.902 194.089 330.994 183.239 344.621 173.238C349.149 169.912 353.577 166.465 358 163C366.248 156.551 374.6 150.249 383 144C382.01 143.505 382.01 143.505 381 143ZM58.9999 361.125C58.4224 361.829 57.8449 362.533 57.2499 363.258C55.9028 364.778 55.9028 364.778 55.9999 366C63.7595 366.076 71.5189 366.129 79.2787 366.165C81.9191 366.18 84.5594 366.2 87.1996 366.226C90.9925 366.263 94.785 366.28 98.5781 366.293C99.7605 366.309 100.943 366.324 102.161 366.34C103.812 366.34 103.812 366.34 105.497 366.341C106.949 366.351 106.949 366.351 108.431 366.361C111.466 365.935 112.831 365.142 115 363C115.667 360 115.667 360 115 357C113.238 355.018 111.786 354.118 109.147 353.723C106.806 353.602 104.484 353.584 102.141 353.602C101.277 353.599 100.414 353.596 99.5248 353.593C97.6991 353.591 95.8734 353.596 94.0478 353.609C91.2735 353.625 88.5007 353.609 85.7265 353.59C83.9478 353.592 82.1692 353.596 80.3906 353.602C79.5694 353.596 78.7483 353.59 77.9023 353.583C70.4969 353.672 63.8431 355.049 58.9999 361.125ZM237 407C236.891 409.228 236.814 411.458 236.75 413.688C236.704 414.929 236.657 416.17 236.609 417.449C237.063 421.57 238.102 423.108 241 426C243.405 427.203 244.95 427.101 247.625 427.063C248.442 427.054 249.259 427.045 250.101 427.035C250.728 427.024 251.354 427.012 252 427C251.847 426.336 251.693 425.672 251.535 424.988C250.892 421.399 250.65 417.822 250.437 414.188C250.394 413.495 250.351 412.802 250.307 412.088C250.201 410.392 250.1 408.696 250 407C245.71 407 241.42 407 237 407Z" fill="black"/>
<path d="M151 328C153.563 330.063 153.563 330.063 155 333C154.939 336.524 154.723 338.916 152.75 341.875C150.431 343.366 148.755 343.803 146 344C143.094 343.257 141.528 342.648 139.625 340.313C138.553 336.344 139.088 332.663 141.063 329.063C144.279 327.299 147.494 327.261 151 328Z" fill="black"/>
</g>
<defs>
<clipPath id="clip0_111_64">
<rect width="512" height="512" fill="white"/>
</clipPath>
</defs>
</svg>
