<svg width="512" height="512" viewBox="0 0 512 512" fill="none" xmlns="http://www.w3.org/2000/svg">
<path d="M482.813 82.3125C485.845 84.652 486.886 86.517 487.767 90.2359C488.026 94.4139 487.223 97.4081 485.731 101.227C485.337 102.292 485.337 102.292 484.935 103.378C484.034 105.8 483.111 108.212 482.188 110.625C481.518 112.411 480.85 114.197 480.183 115.984C478.665 120.039 477.137 124.089 475.601 128.137C473.03 134.916 470.477 141.702 467.927 148.488C463.567 160.089 459.195 171.686 454.817 183.28C448.528 199.934 442.267 216.599 436.022 233.27C434.066 238.491 432.109 243.712 430.15 248.932C429.874 249.67 429.597 250.408 429.312 251.168C428.193 254.152 427.074 257.135 425.954 260.119C422.468 269.413 418.986 278.709 415.509 288.006C413.135 294.352 410.757 300.695 408.377 307.038C406.972 310.782 405.568 314.528 404.17 318.275C383.667 373.201 383.667 373.201 367.875 381.375C351.985 387.639 334.28 382.425 319.366 376.023C316.759 374.882 314.161 373.723 311.563 372.563C309.799 371.789 308.034 371.018 306.268 370.248C302.939 368.795 299.612 367.339 296.286 365.879C295.547 365.556 294.808 365.232 294.047 364.898C292.262 364.115 290.478 363.327 288.695 362.539C287.815 362.164 286.935 361.789 286.028 361.402C285.322 361.097 284.617 360.791 283.891 360.476C281.523 359.88 280.271 360.131 278 361C276.346 362.099 276.346 362.099 274.821 363.52C274.229 364.041 273.637 364.563 273.027 365.101C272.399 365.666 271.772 366.23 271.125 366.813C269.779 368.002 268.433 369.191 267.086 370.379C266.405 370.984 265.724 371.588 265.023 372.211C261.958 374.922 258.858 377.589 255.75 380.25C255.173 380.746 254.595 381.242 254 381.752C250.458 384.783 246.872 387.752 243.25 390.688C238.875 394.237 234.695 397.956 230.532 401.75C227.024 404.868 223.372 407.795 219.723 410.746C217.059 412.951 214.492 415.232 211.938 417.563C210.294 419.044 208.649 420.524 207 422C206.153 422.762 205.306 423.524 204.434 424.309C199.291 428.713 195.905 431.345 189 431C185.393 429.775 183.558 428.669 181.125 425.75C178.526 419.396 180.504 413.133 182.248 406.811C182.487 405.917 182.726 405.024 182.972 404.103C183.761 401.163 184.562 398.226 185.364 395.289C185.918 393.236 186.471 391.182 187.024 389.129C188.183 384.828 189.347 380.53 190.517 376.232C192.011 370.742 193.495 365.248 194.975 359.754C196.393 354.494 197.816 349.235 199.239 343.977C199.507 342.981 199.776 341.986 200.053 340.961C200.821 338.122 201.592 335.285 202.365 332.448C202.588 331.622 202.811 330.795 203.04 329.944C207.513 313.577 207.513 313.577 212.313 309.625C213.2 308.883 214.087 308.14 215 307.375C215.99 306.591 216.98 305.808 218 305C218.537 304.575 219.073 304.149 219.625 303.711C221.947 301.873 224.275 300.042 226.615 298.227C230.665 295.082 234.607 291.837 238.5 288.5C243.484 284.231 248.588 280.151 253.77 276.125C258.32 272.574 262.725 268.877 267.108 265.123C270.972 261.829 274.926 258.674 278.938 255.563C283.742 251.834 288.408 247.987 293 244C298.154 239.526 303.428 235.257 308.821 231.074C312.799 227.977 316.671 224.78 320.5 221.5C324.916 217.718 329.409 214.067 334 210.5C339.242 206.426 344.345 202.22 349.394 197.91C353.273 194.601 357.217 191.391 361.211 188.223C364.805 185.359 368.372 182.462 371.938 179.563C372.63 179 373.322 178.437 374.035 177.857C380.566 172.544 387.086 167.217 393.59 161.871C401.338 155.511 409.164 149.25 417 143C398.895 153.104 381.342 164.162 363.695 175.037C355.704 179.959 347.693 184.845 339.673 189.718C332.536 194.056 325.422 198.429 318.313 202.813C308.532 208.843 298.721 214.821 288.894 220.774C281.406 225.312 273.937 229.878 266.5 234.5C258.47 239.491 250.399 244.413 242.313 249.313C232.005 255.557 221.726 261.848 211.468 268.173C203.268 273.227 195.049 278.247 186.815 283.243C182.781 285.692 178.751 288.146 174.75 290.648C174.136 291.032 173.521 291.415 172.888 291.811C171.333 292.784 169.782 293.763 168.231 294.742C166 296 166 296 164 296C166.062 302.474 168.125 308.948 170.189 315.421C170.89 317.619 171.59 319.817 172.29 322.014C173.302 325.192 174.315 328.369 175.328 331.547C175.636 332.513 175.943 333.479 176.26 334.475C176.56 335.415 176.86 336.355 177.169 337.323C177.464 338.248 177.759 339.172 178.062 340.124C178.724 342.153 179.405 344.174 180.101 346.191C180.463 347.242 180.825 348.293 181.199 349.376C181.531 350.323 181.863 351.271 182.206 352.247C183.442 356.53 183.799 360.606 183 365C181.209 368.184 179.795 369.527 176.688 371.375C173.05 372.221 170.61 371.967 167 371C162.765 367.486 160.847 363.98 159.203 358.84C158.968 358.145 158.733 357.451 158.491 356.735C157.729 354.474 156.989 352.206 156.25 349.938C155.728 348.37 155.205 346.803 154.681 345.236C153.357 341.264 152.051 337.286 150.753 333.305C150.03 331.09 149.301 328.877 148.571 326.665C147.288 322.779 146.016 318.891 144.75 315C144.368 313.827 143.985 312.654 143.591 311.445C143.247 310.37 142.902 309.295 142.547 308.188C142.246 307.253 141.946 306.318 141.636 305.356C141 303 141 303 141 300C140.462 299.831 139.925 299.662 139.37 299.488C133.542 297.608 127.961 295.363 122.36 292.895C120.997 292.3 120.997 292.3 119.606 291.693C116.652 290.404 113.701 289.109 110.75 287.813C106.615 285.999 102.48 284.186 98.344 282.375C97.3067 281.92 96.2693 281.466 95.2005 280.997C88.5243 278.08 81.8216 275.234 75.094 272.438C72.6001 271.392 70.1068 270.345 67.6137 269.298C66.0596 268.65 64.5026 268.009 62.9425 267.376C50.8712 262.473 39.732 256.45 34.0003 244C31.6491 236.534 32.3411 228.54 35.5589 221.477C42.7908 209.051 53.9117 203.152 67.0745 198.828C68.4337 198.379 68.4336 198.379 69.8203 197.921C81.9456 193.973 94.2193 190.52 106.482 187.03C110.07 186.008 113.657 184.98 117.243 183.952C118.738 183.524 120.234 183.095 121.729 182.667C122.479 182.452 123.229 182.237 124.002 182.016C126.309 181.355 128.615 180.695 130.922 180.035C147.291 175.351 163.646 170.615 179.999 165.876C183.992 164.719 187.986 163.563 191.979 162.406C197.625 160.771 203.271 159.136 208.917 157.5C219.291 154.495 229.665 151.491 240.039 148.488C240.822 148.262 241.604 148.035 242.411 147.802C246.361 146.659 250.31 145.515 254.26 144.372C261.382 142.311 268.503 140.249 275.625 138.188C279.583 137.042 283.542 135.896 287.5 134.75C289.084 134.292 290.667 133.833 292.25 133.375C301.75 130.625 301.75 130.625 304.125 129.938C305.708 129.479 307.292 129.021 308.875 128.563C312.836 127.416 316.797 126.27 320.757 125.123C327.852 123.069 334.947 121.015 342.042 118.962C345.96 117.827 349.879 116.693 353.797 115.559C354.575 115.334 355.352 115.109 356.153 114.877C366.962 111.748 377.772 108.619 388.582 105.491C394.635 103.739 400.689 101.987 406.742 100.235C411.632 98.8201 416.523 97.4049 421.414 95.9899C423.704 95.3272 425.994 94.6643 428.284 94.0014C431.187 93.161 434.091 92.3223 436.995 91.4848C443.422 89.6295 449.841 87.7553 456.244 85.8199C457.35 85.4883 458.456 85.1567 459.595 84.8151C461.607 84.2102 463.616 83.5979 465.623 82.9761C471.497 81.2163 476.984 79.5927 482.813 82.3125ZM385.082 129.801C384.021 130.109 384.021 130.109 382.937 130.424C380.56 131.117 378.187 131.822 375.813 132.527C374.118 133.024 372.423 133.52 370.728 134.014C367.075 135.083 363.423 136.157 359.772 137.235C353.939 138.957 348.103 140.667 342.267 142.375C336.207 144.148 330.148 145.922 324.09 147.7C305.874 153.046 287.64 158.33 269.4 163.594C264.277 165.073 259.154 166.553 254.032 168.034C240.138 172.05 226.243 176.064 212.348 180.076C193.168 185.615 173.988 191.158 154.812 196.712C146.625 199.083 138.437 201.452 130.248 203.815C123.325 205.813 116.404 207.816 109.484 209.825C105.967 210.846 102.449 211.865 98.9299 212.878C95.1087 213.977 91.2907 215.088 87.4729 216.199C85.8288 216.67 85.8288 216.67 84.1515 217.149C68.1003 221.452 68.1003 221.452 56.0003 232C55.3328 234.413 55.3328 234.413 56.0003 237C59.9908 240.779 63.6875 243.013 68.801 245.137C69.4585 245.414 70.1159 245.691 70.7933 245.977C72.2174 246.576 73.6435 247.17 75.0714 247.761C78.9666 249.371 82.8473 251.017 86.7307 252.656C87.5518 253.002 88.3728 253.347 89.2188 253.703C99.2346 257.923 109.179 262.307 119.125 266.688C120.885 267.461 122.644 268.235 124.404 269.009C127.526 270.382 130.649 271.756 133.77 273.132C134.461 273.432 135.152 273.733 135.864 274.043C137.376 274.72 138.874 275.43 140.361 276.161C144.851 278.379 144.851 278.379 149.738 278.938C152.405 277.832 154.746 276.539 157.192 275C158.204 274.369 159.217 273.738 160.26 273.088C161.35 272.399 162.44 271.71 163.563 271C165.313 269.906 167.065 268.814 168.818 267.723C170.035 266.964 171.252 266.205 172.468 265.445C178.364 261.761 184.305 258.153 190.254 254.556C201.055 248.024 211.819 241.433 222.563 234.809C230.467 229.937 238.393 225.102 246.329 220.282C253.465 215.943 260.579 211.571 267.688 207.188C277.468 201.157 287.279 195.18 297.106 189.226C304.595 184.688 312.064 180.122 319.5 175.5C327.53 170.509 335.601 165.587 343.688 160.688C353.164 154.945 362.625 149.18 372.063 143.375C373.102 142.737 374.141 142.098 375.212 141.44C381.847 137.354 388.438 133.202 395 129C391.195 127.732 388.776 128.688 385.082 129.801ZM431.5 160.5C430.224 161.612 428.947 162.723 427.668 163.832C426.727 164.649 426.727 164.649 425.767 165.483C422.719 168.1 419.572 170.587 416.422 173.078C411.904 176.664 407.459 180.341 403 184C395.986 189.749 388.955 195.477 381.915 201.193C376.265 205.782 370.629 210.387 365 215C357.986 220.749 350.955 226.477 343.915 232.193C338.265 236.782 332.629 241.387 327 246C319.986 251.749 312.955 257.477 305.915 263.193C300.265 267.782 294.629 272.387 289 277C281.986 282.749 274.955 288.477 267.915 294.193C262.265 298.782 256.63 303.387 251 308C248.938 309.688 246.875 311.375 244.813 313.063C243.891 313.817 242.969 314.571 242.02 315.348C241.353 315.893 240.687 316.438 240 317C242.348 318.565 244.264 319.625 246.821 320.701C247.591 321.027 248.361 321.353 249.154 321.689C249.993 322.041 250.831 322.392 251.696 322.754C252.579 323.127 253.463 323.5 254.374 323.884C257.29 325.114 260.207 326.338 263.125 327.563C265.149 328.414 267.173 329.266 269.198 330.118C282.952 335.901 296.721 341.651 310.5 347.375C311.346 347.727 312.192 348.079 313.063 348.441C335.813 359.861 335.813 359.861 359.875 359.875C364.935 355.411 367.394 349.301 369.965 343.207C370.348 342.306 370.731 341.404 371.125 340.475C376.705 327.14 381.664 313.556 386.699 300.009C388.171 296.053 389.649 292.099 391.126 288.145C393.256 282.444 395.384 276.742 397.51 271.039C402.5 257.653 407.512 244.276 412.529 230.9C414.041 226.871 415.552 222.84 417.061 218.81C421.549 206.829 426.045 194.852 430.606 182.898C430.948 182 431.29 181.102 431.643 180.177C433.17 176.168 434.703 172.161 436.246 168.158C436.758 166.817 437.27 165.477 437.781 164.137C438.215 163.01 438.649 161.883 439.096 160.721C440.158 158.004 440.158 158.004 440 155C436.454 155 434.058 158.238 431.5 160.5ZM225 336C223.284 342.334 221.576 348.669 219.873 355.006C219.293 357.162 218.711 359.317 218.127 361.472C217.289 364.569 216.456 367.667 215.625 370.766C215.363 371.729 215.1 372.693 214.83 373.686C214.59 374.587 214.349 375.487 214.102 376.415C213.889 377.206 213.675 377.996 213.456 378.811C212.864 381.28 212.864 381.28 213 385C215.734 383.731 217.923 382.376 220.18 380.383C220.772 379.864 221.364 379.346 221.974 378.811C222.602 378.255 223.229 377.698 223.875 377.125C225.22 375.946 226.565 374.768 227.91 373.59C228.591 372.992 229.272 372.393 229.973 371.777C233.071 369.062 236.188 366.371 239.313 363.688C239.886 363.194 240.459 362.701 241.049 362.192C245.362 358.497 249.787 354.966 254.305 351.523C254.864 351.021 255.424 350.518 256 350C256 349.34 256 348.68 256 348C251.909 346.287 247.815 344.578 243.72 342.873C242.327 342.292 240.934 341.71 239.541 341.127C237.542 340.29 235.541 339.457 233.539 338.625C232.335 338.122 231.13 337.62 229.889 337.102C227.204 335.881 227.204 335.881 225 336Z" fill="currentColor"/>
</svg>
