<svg width="512" height="512" viewBox="0 0 512 512" fill="none" xmlns="http://www.w3.org/2000/svg">
<g clip-path="url(#clip0_111_52)">
<path d="M459.094 41.66C469.859 51.6463 474.69 66.4512 475.238 80.8436C475.795 109.027 468.46 134.466 456.845 159.935C456.024 161.942 455.469 163.886 455 166C455.462 166.378 455.923 166.755 456.398 167.144C491.671 196.91 507.102 245.737 511.75 290.281C512.051 294.751 512.279 299.208 512.375 303.687C512.414 304.821 512.414 304.821 512.455 305.977C512.466 309.687 512.138 311.784 510.121 314.937C506.77 318.196 504.167 318.873 499.563 319.375C494.542 318.846 491.569 316.878 488.394 313.078C486.749 310.835 485.176 308.559 483.625 306.25C482.807 305.061 482.807 305.061 481.973 303.848C480.639 301.905 479.315 299.956 478 298C477.67 298.33 477.34 298.66 477 299C477.233 300.536 477.546 302.059 477.891 303.574C478.104 304.541 478.318 305.508 478.538 306.505C478.773 307.555 479.008 308.605 479.25 309.687C481.781 321.402 483.633 333.097 485 345C485.133 346.105 485.266 347.209 485.402 348.348C486.156 356.016 486.164 363.738 486.25 371.437C486.272 372.577 486.293 373.716 486.315 374.89C486.356 385.289 486.356 385.289 483 390C477.841 393.844 474.382 394.72 468 394C464.015 392.054 461.889 389.913 459.438 386.25C458.847 385.371 458.257 384.492 457.648 383.586C455.646 380.445 453.779 377.273 452 374C450.415 375.585 450.743 377.303 450.606 379.504C450.539 380.46 450.473 381.416 450.405 382.401C450.333 383.444 450.262 384.487 450.188 385.562C448.331 409.528 443.663 432.868 435.875 455.625C435.646 456.305 435.416 456.986 435.18 457.687C433.187 463.234 430.889 466.91 425.75 469.875C421.574 471.128 418.106 471.674 414 470C408.444 465.839 407.389 460.777 405.688 454.375C402.963 444.739 399.558 435.689 395.504 426.543C394 423 394 423 394 421C393.019 421.75 392.038 422.5 391.027 423.273C384.115 428.528 377.166 433.686 369.938 438.5C369.047 439.094 369.047 439.094 368.138 439.701C360.118 444.981 354.756 448.231 344.938 447.5C339.269 447.32 335.772 448.201 331.375 451.937C329.581 453.623 327.79 455.31 326 457C301.049 476.206 273.084 485.143 241.551 481.57C220.036 478.102 196.264 466.096 181.813 449.562C180 447 180 447 180 445C179.113 445.495 178.226 445.99 177.313 446.5C170.742 449.304 162.76 449.108 156.078 446.766C151.844 445.054 148.03 442.827 144.188 440.375C143.495 439.938 142.803 439.502 142.09 439.052C136.86 435.692 132.086 432.018 127.352 427.984C124.356 425.456 121.227 423.223 118 421C117.728 421.86 117.456 422.719 117.176 423.605C116.018 426.948 114.649 430.092 113.188 433.312C109.654 441.31 107.348 449.595 105 458C102.704 466.166 102.704 466.166 100.313 469C95.2342 471.196 91.4489 471.435 86.2501 469.875C80.3856 466.492 78.2141 461.796 76.1251 455.562C75.8739 454.827 75.6227 454.092 75.3638 453.335C67.4865 429.769 62.8835 406.107 61.2337 381.33C60.9841 378.84 60.5274 376.444 60.0001 374C59.313 375.12 58.6259 376.24 57.918 377.394C57.0081 378.867 56.0979 380.34 55.1876 381.812C54.5098 382.919 54.5098 382.919 53.8184 384.049C53.1562 385.117 53.1562 385.117 52.4805 386.207C52.0773 386.862 51.6741 387.516 51.2586 388.191C49.0927 391.304 47.6492 392.783 44.0001 394C38.3762 394.369 34.8649 394.168 30.0001 391C23.0401 383.32 25.7019 369.602 26.1363 359.984C27.2602 340.298 29.5395 320.345 34.4844 301.223C35.1131 298.893 35.1131 298.893 35.0001 296C34.42 296.846 33.8399 297.691 33.2423 298.562C21.0388 316.307 21.0388 316.307 17.0001 319C12.9254 319.666 8.7565 319.945 5.04695 317.949C2.90505 316.187 1.24612 314.492 6.99461e-05 312C-3.41866 265.315 17.1678 212.282 47.0001 177C49.6359 173.971 52.3008 170.972 55.0001 168C54.6482 167.562 54.2962 167.123 53.9337 166.672C37.9575 146.149 27.3617 117.276 30.2183 90.9916C32.5977 72.8303 39.6073 54.5299 54.5704 43.0233C68.4695 33.7177 84.6309 30.5035 101.094 33.6835C115.327 37.2272 126.453 44.3301 138 52.9999C138.726 53.5439 139.453 54.0878 140.201 54.6483C142.135 56.0975 144.068 57.5481 146 58.9999C146.571 58.7086 147.142 58.4172 147.731 58.1171C174.087 44.7922 201.525 35.9372 231 32.9999C232.061 32.889 233.122 32.7782 234.215 32.6639C275.627 29.0201 312.904 36.9041 349.179 57.1171C350.963 58.1453 350.963 58.1453 353 57.9999C354.123 56.8924 355.197 55.7364 356.25 54.5624C367.741 42.8004 383.369 36.203 399 31.9999C399.824 31.7717 400.647 31.5436 401.496 31.3085C421.182 26.8043 443.049 28.9376 459.094 41.66ZM374 73.9999C374.33 74.9899 374.66 75.9799 375 76.9999C375.66 76.9999 376.32 76.9999 377 76.9999C379.353 81.5592 379.717 85.9791 379 90.9999C376.441 96.1175 373.463 98.7302 368.125 100.687C361.378 101.68 356.719 100.661 351 96.9999C349.154 95.6204 347.322 94.2228 345.5 92.8124C338.425 87.3929 330.895 83.1101 323 78.9999C322.372 78.6721 321.744 78.3444 321.097 78.0067C307.455 71.0025 293.234 66.7749 278 64.9999C278 67.9699 278 70.9399 278 73.9999C279.088 74.2796 280.176 74.5593 281.297 74.8475C294.982 78.5161 310.385 84.2997 318.246 97.0155C319.604 100.589 319.425 103.179 319 107C317.063 109.125 317.063 109.125 314 110C307.264 109.766 301.434 106.422 295.602 103.34C292.128 101.551 289.486 100.862 285.625 100.875C284.875 100.872 284.125 100.87 283.352 100.867C280.825 101.01 278.467 101.451 276 102C275.657 103.665 275.326 105.332 275 107C274.814 107.928 274.629 108.856 274.438 109.812C273.918 113.598 273.934 117.181 274 121C274.598 121.125 275.197 121.25 275.813 121.38C313.423 129.344 313.423 129.344 324 144C325.176 146.353 325.134 147.821 325.125 150.437C325.128 151.22 325.13 152.002 325.133 152.808C325 155 325 155 324 158C316.593 160.222 311.799 157.298 305.367 153.848C304.256 153.238 303.145 152.628 302 152C293.004 147.105 282.213 145 272 145C271.902 145.536 271.804 146.072 271.703 146.625C266.4 174.422 266.4 174.422 261 179C257.188 179.5 257.188 179.5 254 179C253.515 177.314 253.038 175.626 252.563 173.937C252.296 172.998 252.029 172.058 251.754 171.09C250.179 164.633 249.763 158.173 249.438 151.562C249.394 150.735 249.351 149.909 249.307 149.057C249.202 147.038 249.1 145.019 249 143C240.336 142.252 232.509 143.479 224.063 145.312C223.068 145.525 222.073 145.738 221.049 145.958C215.938 147.117 211.66 148.546 207 151C204.094 151.511 202 151.3 199 151C196.75 147.625 196.763 147.113 197.438 143.312C199.01 136.747 201.924 132.605 207.651 128.944C220.473 121.442 234.128 117.554 249 117C249.138 109.934 248.748 103.026 248 95.9999C237.709 95.0483 230.335 97.3257 221.045 101.174C217.695 102.527 214.295 103.713 210.875 104.875C209.697 105.285 208.519 105.695 207.305 106.117C204.002 106.999 201.398 107.293 198 107C195.625 105.375 195.625 105.375 194 103C193.372 99.3871 193.792 97.4552 195.313 94.1249C203.257 83.5225 220.157 75.3539 233 72.9999C237.663 72.5062 242.316 72.1956 247 71.9999C247 69.3599 247 66.7199 247 63.9999C214.836 63.3863 181.504 74.3844 153.938 90.4999C149.184 93.1282 146.399 93.8849 141 92.9999C134.392 91.0257 129.915 86.3412 124.984 81.7303C114.308 71.8441 102.273 62.5973 87.0001 62.9999C78.312 63.6961 72.596 68.0523 66.7501 74.2499C58.2735 84.6436 58.1123 98.2551 59.0001 111C60.7535 125.774 66.2297 140.813 73.0001 154C73.615 153.59 74.2298 153.18 74.8633 152.758C85.0001 146 85.0001 146 88.0001 146C87.4318 150.081 86.1521 152.701 83.8594 156.105C83.2075 157.08 82.5556 158.054 81.8839 159.058C81.1797 160.091 80.4756 161.123 79.7501 162.187C79.0279 163.259 78.3057 164.332 77.5616 165.436C73.2407 171.816 68.8067 178.099 64.2501 184.312C47.7983 206.772 25.5813 238.604 27.0001 268C31.1177 265.762 34.9463 263.365 38.7501 260.625C53.9395 249.953 53.9395 249.953 61.9883 250.531C65.2486 251.291 67.4808 252.859 70.0001 255C72.2028 259.405 71.2092 264.278 69.8985 268.805C69.3982 270.164 68.8899 271.521 68.3751 272.875C63.0109 287.979 59.6819 303.819 57.1251 319.625C57.0049 320.363 56.8848 321.102 56.7611 321.863C56.0508 326.618 55.9028 331.192 56.0001 336C56.6362 335.455 56.6362 335.455 57.2852 334.898C58.5211 333.839 59.7624 332.786 61.0079 331.738C63.0028 330.042 63.0028 330.042 64.7423 328.23C68.9702 324.071 68.9702 324.071 72.2188 323.848C74.4376 324.125 74.4376 324.125 78.0001 325C78.9987 328.394 79.2233 331.625 79.3946 335.152C79.4938 337.008 79.4938 337.008 79.595 338.9C79.6299 339.557 79.6647 340.215 79.7007 340.892C80.295 379.598 80.295 379.598 92.0001 415C92.5917 414.059 93.1834 413.118 93.793 412.148C94.591 410.89 95.3892 409.633 96.1876 408.375C96.5749 407.757 96.9623 407.14 97.3614 406.504C99.3482 403.384 101.384 400.468 103.801 397.664C106.212 395.319 106.212 395.319 106 393C110.354 391.549 114.449 391.498 119 392C122 393.562 122 393.562 125 396C138.468 405.975 153.385 413.857 168 422C168.551 421.634 169.101 421.268 169.668 420.891C184.658 411.13 200.503 402.681 216.122 393.984C221.242 391.128 226.349 388.251 231.434 385.332C232.382 384.789 233.33 384.246 234.306 383.687C239.463 380.7 239.463 380.7 242.802 376.02C244.087 366.338 244.087 366.338 241.43 357.285C239.077 355.155 236.745 353.592 234 352C233.017 351.368 232.033 350.737 231.02 350.086C229.129 348.872 227.219 347.688 225.285 346.543C223 345 223 345 221 342C221.18 338.632 221.361 336.009 223.188 333.125C225.779 331.516 227.97 331.285 231 331C239.471 333.249 246.788 338.192 254 343C254.66 343.33 255.32 343.66 256 344C256.594 343.553 257.189 343.105 257.801 342.644C264.885 337.478 273.866 331 283 331C288.612 333.223 288.612 333.223 290 336C290.583 342.295 290.583 342.295 288.383 344.957C286.118 346.898 283.778 348.57 281.278 350.194C272.967 355.164 272.967 355.164 268 363C267.122 371.325 267.122 371.325 270.373 378.728C275.843 383.919 282.512 387.219 289.169 390.623C292.522 392.34 295.854 394.096 299.188 395.851C299.854 396.202 300.52 396.552 301.207 396.912C307.274 400.114 313.225 403.499 319.125 407C320.015 407.527 320.904 408.054 321.821 408.597C327.609 412.067 333.169 415.743 338.563 419.805C341.828 421.406 343.491 420.821 347 420C349.659 418.834 349.659 418.834 352.231 417.305C353.199 416.753 354.168 416.201 355.166 415.633C356.163 415.053 357.16 414.473 358.188 413.875C359.165 413.318 360.143 412.761 361.15 412.187C369.958 407.134 378.709 402.029 386.563 395.562C391.056 392.252 394.263 390.946 399.856 391.492C406.813 393.14 410.381 400.336 414 406C415.741 408.963 417.405 411.956 419 415C419.66 414.67 420.32 414.34 421 414C422.291 409.903 423.022 405.644 423.875 401.437C424.006 400.796 424.138 400.155 424.273 399.494C426.341 389.319 427.971 379.116 429.25 368.812C429.332 368.15 429.415 367.487 429.5 366.805C430.373 359.65 431.071 352.5 431.512 345.305C431.624 343.501 431.624 343.501 431.739 341.661C431.868 339.402 431.974 337.141 432.054 334.88C432.443 327.575 432.443 327.575 435.191 324.738C438.691 323.818 440.552 323.861 444 325C446.703 327.215 446.703 327.215 449.25 329.937C450.101 330.833 450.952 331.729 451.828 332.652C452.545 333.427 453.262 334.202 454 335C454.66 335.66 455.32 336.32 456 337C454.381 314.591 449.734 292.634 442.453 271.386C440.586 265.785 439.345 261.759 441 256C443.265 253.13 444.517 252.161 448 251C455.014 250.33 459.298 252.114 465.375 255.5C466.206 255.949 467.038 256.398 467.894 256.861C473.525 259.976 478.535 263.357 483.383 267.601C484.77 269.109 484.77 269.109 486 269C487.673 239.424 468.47 211.024 451.988 188.199C449.936 185.348 447.965 182.46 446.043 179.519C445.563 178.793 445.083 178.066 444.588 177.317C443.685 175.944 442.794 174.564 441.916 173.175C438.838 168.532 435.912 166.588 431 164C429.441 162.359 429.441 162.359 428.563 160.75C428.254 160.229 427.946 159.708 427.629 159.172C425.315 151.181 428.225 145.391 431.625 138.25C440.509 118.727 450.203 93.5276 443.5 71.9374C440.85 65.6745 436.409 61.9737 430.625 58.6249C409.712 53.6455 391.768 64.3107 374 73.9999ZM256 399C255.03 399.738 255.03 399.738 254.04 400.491C247.072 405.686 239.885 410.123 232.313 414.375C230.029 415.676 227.746 416.98 225.465 418.285C224.365 418.914 223.265 419.543 222.132 420.192C217.84 422.669 213.591 425.208 209.375 427.812C208.382 428.415 208.382 428.415 207.368 429.031C205.875 429.964 204.431 430.973 203 432C203 432.66 203 433.32 203 434C225.173 447.111 247.456 456.31 273.66 449.973C285.809 446.434 296.651 440.187 307 433C305.82 429.46 305.107 429.159 302.012 427.285C301.17 426.769 300.328 426.254 299.46 425.723C298.545 425.175 297.63 424.627 296.688 424.062C295.751 423.492 294.814 422.921 293.849 422.334C290.905 420.545 287.954 418.77 285 417C284.073 416.444 283.147 415.889 282.192 415.316C281.295 414.779 280.397 414.241 279.473 413.687C278.595 413.161 277.717 412.635 276.812 412.093C275.156 411.104 273.499 410.117 271.839 409.135C266.44 405.925 261.195 402.53 256 399Z" fill="currentColor"/>
<path d="M399.469 207.492C402.853 208.171 403.572 209.297 405.5 212.125C416.6 229.414 418.257 251.964 420 272C420.168 273.878 420.168 273.878 420.34 275.793C421.53 291.529 421.361 307.428 420.688 323.188C420.665 323.899 420.643 324.61 420.62 325.343C420.377 329.875 419.387 333.142 417 337C413.653 339.358 411.592 339.979 407.5 340.125C403.39 338.804 401.991 337.253 399.457 333.887C397.798 331.738 395.947 329.888 394 328C393.792 329.2 393.585 330.4 393.371 331.637C391.661 341.054 389.537 350.166 386.5 359.25C386.216 360.106 385.931 360.961 385.638 361.843C380.257 377.448 380.257 377.448 375 381C370.854 382.122 367.517 382.649 363.5 380.93C360.318 378.474 358.463 375.591 356.438 372.188C356.015 371.492 355.592 370.797 355.157 370.081C347.467 357.28 340.373 344.101 333.813 330.688C333.251 329.569 333.251 329.569 332.678 328.428C330.145 323.116 327.743 316.854 329.654 310.995C331.691 307.071 333.89 304.588 338 303C340.807 302.492 343.245 302.207 346 303C349.748 306.324 351.951 309.366 353.973 313.93C354.48 315.055 354.987 316.18 355.51 317.34C356.022 318.506 356.535 319.673 357.063 320.875C361.606 331.156 361.606 331.156 367 341C369.46 334.972 370.943 329.156 372.063 322.75C372.235 321.801 372.407 320.851 372.584 319.873C373.882 312.427 374.716 304.981 375.141 297.435C375.506 292.442 376.255 289.639 380 286C383.47 284.265 387.206 284.539 391 285C395.74 287.633 397.447 291.413 400 296C400.38 279.874 399.066 264.184 396.427 248.272C394.898 239.037 393.613 230 393.563 220.625C393.553 219.805 393.543 218.985 393.533 218.14C393.58 214.916 393.815 212.387 395.215 209.461C397 208 397 208 399.469 207.492Z" fill="currentColor"/>
<path d="M109.563 195.688C112 196 112 196 114 198C117.747 211.853 113.775 227.311 111.483 241.088C109.113 255.379 107.761 269.499 108 284C108.398 283.374 108.797 282.747 109.207 282.102C109.737 281.284 110.267 280.467 110.813 279.625C111.335 278.813 111.857 278.001 112.395 277.164C114.364 274.51 115.998 273.161 119.305 272.629C126.27 272.449 126.27 272.449 130.063 275.312C132.512 278.71 133.117 281.326 133.395 285.402C134.306 297.482 135.994 309.071 138.575 320.902C139.187 323.921 139.606 326.945 140 330C140.66 330 141.32 330 142 330C142.279 329.283 142.559 328.566 142.846 327.827C143.964 325.087 145.182 322.43 146.461 319.762C146.933 318.776 147.405 317.791 147.891 316.775C148.381 315.756 148.87 314.737 149.375 313.688C149.857 312.68 150.339 311.673 150.836 310.635C151.781 308.663 152.73 306.693 153.683 304.724C154.508 303.017 155.328 301.307 156.138 299.592C157.753 296.231 159.16 293.442 162 291C166.012 290.171 170.198 290.108 173.918 291.949C177.15 294.479 179.182 296.999 180 301C179.884 309.683 176.278 316.451 172.375 324C172.045 324.649 171.715 325.298 171.375 325.966C166.509 335.529 161.35 344.898 155.875 354.125C155.261 355.167 154.646 356.208 154.013 357.281C153.137 358.724 153.137 358.724 152.242 360.195C151.736 361.031 151.229 361.866 150.707 362.727C148.724 365.367 146.728 367.144 144 369C139.226 369.606 137.278 369.641 132.969 367.48C129.164 364.302 128.035 361.407 126.438 356.812C126.147 356.018 125.856 355.224 125.556 354.405C120.91 341.493 117.418 328.505 115 315C112.608 317.302 110.804 319.306 109 322.125C106.256 326.07 106.256 326.07 103 327C98.5907 327.572 96.5552 327.325 92.6876 325.062C88.1205 320.743 87.9385 314.075 87.7095 308.096C87.6835 306.324 87.6689 304.553 87.6641 302.781C87.6558 301.817 87.6475 300.854 87.6389 299.861C87.6195 296.74 87.6194 293.62 87.6251 290.5C87.6253 289.433 87.6255 288.366 87.6257 287.266C87.7617 218.429 87.7617 218.429 105.551 197.145C107 196 107 196 109.563 195.688Z" fill="currentColor"/>
<path d="M165.063 210.75C192.234 227.475 192.234 227.475 196 237C196.563 240.14 196.692 242.874 196 246C191.796 250.82 187.385 252.526 180.977 253.219C171.107 253.646 162.288 250.403 153.563 246.125C152.551 245.634 152.551 245.634 151.519 245.133C144.672 241.626 140.446 237.467 138 230C137.415 224.538 138.334 220.799 141 216C147.382 209.05 156.429 206.309 165.063 210.75Z" fill="currentColor"/>
<path d="M356.312 210.687C361.354 213.534 364.406 217.419 366 223C366.507 228.477 365.599 232.16 363 237C359.278 241.266 355.445 243.693 350.437 246.125C349.733 246.47 349.028 246.816 348.302 247.172C338.037 252.049 327.353 255.06 316.187 251.75C312.631 250.394 310.033 249.359 308 246C307.112 242.026 307.223 238.618 309 234.918C314.89 226.434 324.082 220.861 332.437 215.062C333.136 214.577 333.834 214.092 334.554 213.592C335.216 213.14 335.877 212.688 336.559 212.223C337.149 211.818 337.74 211.413 338.349 210.996C343.848 207.677 350.635 208.051 356.312 210.687Z" fill="currentColor"/>
</g>
<defs>
<clipPath id="clip0_111_52">
<rect width="512" height="512" fill="white"/>
</clipPath>
</defs>
</svg>
