<svg width="512" height="512" viewBox="0 0 512 512" fill="none" xmlns="http://www.w3.org/2000/svg">
<g clip-path="url(#clip0_111_70)">
<path d="M206 80.0001C206.528 80.406 207.056 80.8118 207.6 81.23C229.68 98.4244 244.24 123.141 248 151C248.127 154.261 248.113 157.518 248.105 160.781C248.119 162.694 248.134 164.607 248.15 166.52C248.173 169.515 248.187 172.51 248.175 175.505C248.166 178.411 248.195 181.314 248.23 184.219C248.212 185.555 248.212 185.555 248.193 186.918C248.284 191.6 248.673 194.215 252.048 197.611C253.022 198.4 253.996 199.188 255 200C257.907 198.697 260.087 197.575 262 195C262.477 191.693 262.477 191.693 262.441 187.867C262.46 186.81 262.46 186.81 262.479 185.731C262.505 184.226 262.524 182.719 262.538 181.213C262.578 177.32 262.673 173.428 262.766 169.535C262.783 168.779 262.8 168.022 262.818 167.243C263.451 141.688 270.22 117.704 287 98.0001C287.719 97.1312 288.439 96.2624 289.18 95.3672C305.932 75.8729 331.132 61.9701 357 60.0001C362.292 59.8304 367.581 59.8039 372.875 59.8126C373.981 59.814 373.981 59.814 375.11 59.8154C398.787 59.8807 424.744 61.4658 442.961 78.7227C447.296 83.5648 451.118 88.9709 452.945 95.2462C453.693 98.0769 453.693 98.0769 455.777 98.9962C456.49 99.1418 457.203 99.2875 457.938 99.4376C468.719 102.419 477.231 109.89 484 118.563C485.384 121.935 485.459 124.393 485 128C482.867 131.466 481.319 131.918 477.375 132.938C474.072 132.797 473.055 132.052 470.609 129.746C468.914 127.787 467.234 125.815 465.566 123.832C460.385 118.114 454.408 115.373 447.125 113.188C442.415 111.578 442.415 111.578 440.664 109.141C440.039 107.635 439.463 106.108 438.93 104.566C435.548 95.2301 429.685 88.6473 421 84.0001C396.305 72.7816 361.531 73.4587 336.23 82.3204C314.101 91.0956 297.091 107.712 287.274 129.242C281.109 143.694 279.988 158.596 279.438 174.125C279.394 175.272 279.351 176.42 279.307 177.602C279.202 180.401 279.1 183.2 279 186C294.291 185.963 309.582 185.903 324.873 185.816C331.975 185.776 339.076 185.744 346.177 185.729C352.372 185.716 358.567 185.689 364.762 185.645C368.037 185.623 371.312 185.609 374.587 185.608C378.259 185.606 381.929 185.579 385.6 185.546C386.666 185.551 387.732 185.556 388.831 185.561C400.669 185.4 414.085 182.062 422.648 173.316C424 172 424 172 426 172C426.26 171.434 426.521 170.868 426.789 170.285C428.11 167.793 429.677 165.689 431.375 163.438C435.072 158.237 437.038 153.023 439 147C441.433 140.378 441.433 140.378 445 138C447.812 137.563 447.812 137.563 451 138C455.413 141.252 458.723 144.819 461.875 149.313C462.51 150.21 462.51 150.21 463.158 151.125C469.023 159.654 473.944 169.1 477 179C477.014 177.895 477.014 177.895 477.028 176.769C477.082 173.428 477.166 170.09 477.25 166.75C477.264 165.591 477.278 164.432 477.293 163.238C477.325 162.123 477.357 161.008 477.391 159.859C477.422 158.32 477.422 158.32 477.454 156.749C478.137 153.312 479.237 152.104 482 150C485.753 149.531 488.038 149.469 491.375 151.313C494.896 154.969 494.128 159.645 494.098 164.387C494.096 165.612 494.096 165.612 494.093 166.863C494.088 169.471 494.075 172.079 494.062 174.688C494.057 176.456 494.053 178.225 494.049 179.994C494.038 184.33 494.021 188.665 494 193C494.787 193.297 495.574 193.594 496.385 193.9C503.911 197.065 508.044 205.818 511 213C513.822 222.888 513.207 235.123 508.672 244.32C503.084 253.276 495.518 260.881 485.145 263.805C482.765 264.295 480.411 264.703 478 265C477.938 265.887 477.876 266.774 477.812 267.688C475.104 285.741 463.557 301.496 451 314C450.339 314.709 449.677 315.418 448.996 316.148C446.013 319.319 442.941 321.805 439.293 324.191C438.488 324.721 437.682 325.25 436.852 325.795C436.241 326.193 435.63 326.59 435 327C435.905 327.014 435.905 327.014 436.829 327.028C454.574 327.373 469.743 329.062 483.25 341.75C493.086 352.182 497.104 364.434 497.193 378.578C497.201 379.313 497.209 380.047 497.218 380.803C497.242 383.214 497.259 385.624 497.273 388.035C497.279 388.862 497.284 389.689 497.29 390.54C497.316 394.91 497.336 399.279 497.35 403.649C497.363 407.26 497.391 410.871 497.432 414.482C497.481 418.852 497.506 423.223 497.513 427.593C497.52 429.256 497.535 430.918 497.559 432.58C497.591 434.904 497.591 437.227 497.583 439.551C497.6 440.234 497.616 440.918 497.633 441.622C497.588 445.095 497.101 446.863 495.029 449.676C490.907 452.839 487.982 452.698 482.922 452.628C482.006 452.635 481.089 452.642 480.145 452.65C477.074 452.667 474.004 452.649 470.933 452.631C468.732 452.636 466.531 452.644 464.33 452.653C458.351 452.671 452.372 452.658 446.393 452.639C440.14 452.622 433.888 452.631 427.636 452.636C417.137 452.641 406.638 452.625 396.139 452.597C385.336 452.568 374.533 452.561 363.73 452.576C350.711 452.595 337.693 452.593 324.674 452.574C319.7 452.567 314.727 452.568 309.754 452.576C303.901 452.583 298.048 452.571 292.195 452.544C290.044 452.537 287.893 452.537 285.742 452.544C282.811 452.553 279.882 452.537 276.951 452.515C276.095 452.523 275.238 452.531 274.356 452.54C268.601 452.459 268.601 452.459 265.503 450.093C262.807 446.339 262.869 443.975 262.855 439.354C262.85 438.329 262.85 438.329 262.845 437.284C262.835 435.015 262.833 432.746 262.832 430.477C262.829 428.894 262.825 427.311 262.822 425.729C262.816 422.401 262.814 419.074 262.815 415.747C262.815 411.513 262.801 407.279 262.784 403.045C262.773 399.769 262.771 396.494 262.771 393.218C262.77 391.659 262.766 390.1 262.758 388.542C262.673 369.89 264.991 354.12 278.488 340.188C292.364 328.103 307.494 327.441 325 327C324.071 326.287 323.141 325.574 322.184 324.84C304.164 310.931 289.504 294.591 284.312 271.813C283.071 267.296 283.071 267.296 279.477 264.586C277.42 263.978 275.343 263.434 273.254 262.949C267.362 261.231 260.832 257.16 257.695 251.75C257.466 251.173 257.236 250.595 257 250C256.34 250 255.68 250 255 250C254.743 250.598 254.487 251.196 254.223 251.813C250.713 258.092 242.592 261.791 236 264C234.006 264.369 232.007 264.71 230 265C229.876 265.669 229.752 266.338 229.625 267.027C226.612 281.057 220.139 293.964 211 305C210.313 305.838 209.626 306.676 208.918 307.539C202.532 314.972 195.162 321.559 187 327C187.852 327.014 187.852 327.014 188.721 327.028C205.979 327.384 220.876 328.958 234.25 341.031C243.194 350.382 248.307 362.235 248.291 375.167C248.297 375.951 248.304 376.736 248.311 377.544C248.33 380.117 248.334 382.689 248.336 385.262C248.342 387.058 248.349 388.855 248.356 390.651C248.368 394.406 248.372 398.161 248.371 401.915C248.37 406.727 248.398 411.539 248.432 416.351C248.454 420.056 248.458 423.761 248.457 427.466C248.46 429.241 248.469 431.016 248.484 432.79C248.504 435.268 248.498 437.744 248.486 440.221C248.497 440.954 248.508 441.686 248.52 442.44C248.481 445.589 248.29 447.594 246.439 450.188C243.175 452.614 240.397 452.557 236.485 452.508C235.724 452.514 234.964 452.52 234.181 452.527C231.632 452.543 229.084 452.53 226.535 452.518C224.709 452.523 222.882 452.53 221.055 452.539C216.093 452.557 211.13 452.55 206.167 452.537C200.978 452.527 195.788 452.537 190.598 452.543C181.882 452.55 173.166 452.541 164.45 452.522C154.369 452.5 144.287 452.507 134.206 452.529C125.555 452.547 116.904 452.55 108.254 452.539C103.085 452.533 97.916 452.532 92.7471 452.545C87.8879 452.557 83.0291 452.549 78.1699 452.526C76.3849 452.52 74.5998 452.522 72.8148 452.531C70.3812 452.542 67.9489 452.528 65.5154 452.508C64.4514 452.521 64.4514 452.521 63.3659 452.535C59.9975 452.481 58.28 452.218 55.5889 450.121C53.7013 447.601 53.0769 446.153 53 443C54.6216 439.514 55.7645 438.157 59 436C62.0709 435.754 62.0709 435.754 65.9285 435.76C66.992 435.757 66.992 435.757 68.0771 435.754C70.4586 435.751 72.8399 435.762 75.2214 435.773C76.9263 435.774 78.6311 435.773 80.336 435.772C84.97 435.772 89.6039 435.783 94.2379 435.797C99.0786 435.81 103.919 435.811 108.76 435.813C117.929 435.82 127.098 435.836 136.267 435.856C146.705 435.878 157.142 435.889 167.58 435.899C189.053 435.92 210.527 435.956 232 436C231.962 427.419 231.902 418.839 231.816 410.259C231.777 406.274 231.744 402.29 231.729 398.305C231.714 394.453 231.679 390.602 231.632 386.75C231.617 385.287 231.609 383.823 231.608 382.36C231.599 374.177 231.291 367.187 227 360C226.531 359.191 226.062 358.381 225.578 357.547C220.295 350.4 214.575 347.173 206 345C203.663 344.785 201.318 344.649 198.973 344.586C197.687 344.547 196.401 344.509 195.076 344.469C193.738 344.437 192.4 344.406 191.062 344.375C189.697 344.337 188.332 344.298 186.967 344.258C183.645 344.164 180.323 344.078 177 344C176.889 345.033 176.778 346.065 176.664 347.129C174.9 357.411 168.712 366.759 160.391 372.938C155.122 376.43 150.023 379.098 144 381C143.147 381.273 143.147 381.273 142.277 381.551C129.639 384.044 116.909 381.955 106.062 375.063C102.705 372.649 99.7734 370.082 97 367C96.175 366.113 95.35 365.226 94.5 364.313C89.5414 358.224 86.8768 351.768 86 344C82.0523 344.045 78.106 344.115 74.1592 344.208C72.1688 344.249 70.1781 344.271 68.1875 344.293C56.714 344.583 48.4135 346.73 39.9805 354.715C33.8474 361.792 31.885 369.417 31.8547 378.595C31.8484 379.909 31.842 381.224 31.8354 382.578C31.8339 384.004 31.8328 385.43 31.832 386.856C31.8288 388.323 31.8255 389.791 31.8219 391.259C31.816 394.328 31.8141 397.397 31.8147 400.466C31.8148 404.403 31.8011 408.341 31.7839 412.279C31.7728 415.306 31.7708 418.334 31.7713 421.361C31.7701 422.814 31.7657 424.266 31.758 425.719C31.7482 427.744 31.7523 429.769 31.7571 431.794C31.7557 432.947 31.7542 434.1 31.7528 435.288C31.7218 438.149 31.7218 438.149 34 440C34.6584 446.803 34.6584 446.803 32.625 450.5C28.632 452.782 24.4628 453.107 20 452C16.6205 449.325 15.154 447.853 14.3785 443.556C14.3551 442.223 14.3589 440.888 14.3848 439.555C14.3792 438.822 14.3737 438.09 14.368 437.335C14.3562 434.919 14.3804 432.505 14.4062 430.09C14.408 428.399 14.4079 426.709 14.4061 425.019C14.4078 421.473 14.4265 417.929 14.458 414.384C14.4975 409.871 14.5021 405.359 14.4945 400.845C14.4914 397.351 14.5037 393.856 14.5207 390.362C14.5276 388.7 14.5308 387.038 14.53 385.376C14.543 368.756 16.7837 354.408 28.5625 341.75C39.6372 331.26 51.706 327.841 66.5 327.375C67.5132 327.336 68.5264 327.298 69.5703 327.258C72.0467 327.164 74.5231 327.079 77 327C76.3568 326.573 75.7135 326.147 75.0508 325.707C54.9689 311.813 40.0249 291.901 34 268C34 267.01 34 266.02 34 265C33.3941 264.925 32.7883 264.851 32.1641 264.773C22.1275 263.199 13.1644 258.209 7 250C0.269768 238.275 -1.96303 227.04 0.648438 213.684C3.8441 204.083 10.2504 196.129 19 191C19.66 191 20.32 191 21 191C20.7274 190.084 20.7274 190.084 20.4492 189.148C18.5336 182.174 17.3512 175.223 16.375 168.063C16.2521 167.17 16.1293 166.278 16.0027 165.359C14.1792 151.467 13.7312 137.637 13.6499 123.641C13.6332 121.532 13.6057 119.424 13.5679 117.316C13.5132 114.242 13.4913 111.169 13.4766 108.094C13.4539 107.154 13.4312 106.215 13.4079 105.247C13.4228 100.632 13.4982 98.6518 16.3945 94.8904C19 93.0001 19 93.0001 21.2109 92.6602C22.2821 92.8594 22.2821 92.8594 23.375 93.0626C24.1587 93.1966 24.9425 93.3307 25.75 93.4688C27.6467 93.9166 29.5161 94.4774 31.375 95.0626C37.6536 96.6863 44.2341 97.464 50.0625 94.1251C54.3163 91.0755 57.8085 87.2174 61.4531 83.4844C96.4421 49.3541 168.64 51.1546 206 80.0001ZM65.7695 102.207C56.6371 110.919 48.091 112.428 35.842 112.205C33.8943 112.15 31.947 112.077 30 112C29.686 127.734 29.7172 143.274 31.375 158.938C31.5011 160.131 31.6272 161.325 31.7571 162.555C32.442 168.523 33.3683 174.218 35 180C36.6813 176.716 38.1814 173.367 39.6875 170C44.5865 159.421 50.2169 147.921 59 140C62.9848 138.84 66.0081 138.943 70 140C70.203 140.948 70.203 140.948 70.4102 141.914C74.0585 157.076 81.1444 169.632 94.2383 178.395C101.581 182.663 109.429 186.129 117.999 186.12C119.509 186.122 119.509 186.122 121.05 186.124C122.148 186.121 123.246 186.117 124.378 186.114C125.539 186.114 126.7 186.114 127.897 186.114C131.739 186.113 135.58 186.106 139.422 186.098C142.084 186.096 144.746 186.094 147.409 186.093C153.702 186.09 159.995 186.082 166.289 186.072C173.454 186.061 180.62 186.055 187.785 186.05C202.524 186.04 217.262 186.022 232 186C232.05 181.352 232.086 176.705 232.11 172.057C232.12 170.481 232.133 168.904 232.151 167.328C232.281 155.238 231.623 144.332 227 133C226.721 132.309 226.442 131.617 226.155 130.905C216.763 108.496 199.247 91.6496 177 82.0001C164.158 77.0289 152 75.6422 138.312 75.7501C137.248 75.7552 137.248 75.7552 136.163 75.7605C107.692 75.9224 86.4998 81.6947 65.7695 102.207ZM60 164C51.3309 180.013 46.8824 194.896 46.7969 213.246C46.7912 214.216 46.7855 215.185 46.7796 216.184C46.7702 218.23 46.7636 220.277 46.7598 222.323C46.7501 225.397 46.7191 228.471 46.6875 231.545C46.6073 246.225 47.0648 261.104 53.125 274.75C53.4258 275.447 53.7265 276.144 54.0364 276.862C63.105 297.027 79.7769 312.377 100.047 320.941C122.333 328.93 146.118 329.118 167.893 319.132C189.294 308.451 205.144 290.605 213 268C217.237 254.701 216.336 240.91 216.188 227.125C216.172 224.684 216.159 222.242 216.146 219.801C216.114 213.867 216.064 207.934 216 202C214.724 201.994 213.447 201.988 212.133 201.982C200.069 201.925 188.005 201.852 175.942 201.764C169.741 201.72 163.54 201.68 157.339 201.654C151.348 201.627 145.357 201.587 139.365 201.537C137.087 201.52 134.808 201.509 132.529 201.502C110.022 201.434 91.2659 198.065 74.1055 182.211C69.0274 176.879 65.0034 170.714 62 164C61.34 164 60.68 164 60 164ZM450 164C448.846 165.811 447.777 167.677 446.75 169.563C437.932 184.962 424.255 194.414 407.271 199.549C397.08 202.044 386.505 201.483 376.078 201.512C373.764 201.529 371.449 201.547 369.134 201.566C363.078 201.613 357.022 201.643 350.966 201.67C344.771 201.7 338.577 201.746 332.383 201.791C320.255 201.877 308.128 201.944 296 202C295.923 209.007 295.871 216.013 295.835 223.021C295.82 225.399 295.8 227.776 295.774 230.154C295.461 248.794 295.461 248.794 299 267C299.334 268.115 299.334 268.115 299.675 269.252C306.968 291.437 322.729 307.603 343 318.313C363.765 328.137 387.316 329.724 409 322C431.167 313.036 448.499 297.446 458.528 275.728C464.681 260.456 465.49 245.441 465.391 229.164C465.375 226.005 465.391 222.847 465.41 219.688C465.432 199.48 462.687 181.599 452 164C451.34 164 450.68 164 450 164ZM21 210C16.1369 215.78 15.2526 221.489 15.5898 228.918C16.6147 236.619 20.274 240.745 26.0977 245.652C28.0615 247.182 28.0615 247.182 31 248C31 233.48 31 218.96 31 204C26.9694 204 23.8366 207.386 21 210ZM232 204C232 218.52 232 233.04 232 248C240.366 243.817 243.567 241.199 247.375 233.063C248.917 225.507 248.311 220.141 244.562 213.305C241.213 208.365 237.794 205.449 232 204ZM272 208C267.1 213.128 263.909 218.241 263.625 225.438C263.919 232.945 266.606 238.726 272 244C274.64 245.32 277.28 246.64 280 248C280 233.48 280 218.96 280 204C276.618 204 274.652 206.024 272 208ZM481 204C481 218.52 481 233.04 481 248C486.98 244.818 486.98 244.818 491.312 240.563C492.018 239.729 492.018 239.729 492.738 238.879C496.853 232.752 496.937 226.142 496 219C493.386 212.108 489.322 207.648 483 204C482.34 204 481.68 204 481 204ZM101 338C102.738 349.206 107.882 356.289 117 363C123.359 366.904 130.766 366.774 138 366C146.481 363.915 152.858 359.394 157.812 352.25C160.449 347.775 161.3 343.097 162 338C161.042 338.205 160.084 338.41 159.098 338.621C139.273 342.704 120.778 342.466 101 338ZM350 338C350.318 346.587 353.972 353.484 360.25 359.375C367.987 365.334 376.366 367.236 386 366C394.724 363.869 400.938 358.948 406.375 351.938C409.002 347.189 410.109 343.396 410 338C409.114 338.205 408.229 338.41 407.316 338.621C387.812 342.863 369.479 342.398 350 338ZM286 356C271.197 379.418 279 410.026 279 436C345.66 436 412.32 436 481 436C485.962 394.48 485.962 394.48 471.32 353.227C463.108 345.41 455.013 343.535 443.812 343.648C442.513 343.682 441.214 343.716 439.875 343.75C438.523 343.77 437.172 343.788 435.82 343.805C432.546 343.852 429.273 343.917 426 344C425.677 344.876 425.355 345.752 425.023 346.655C424.589 347.813 424.154 348.971 423.707 350.164C423.069 351.88 423.069 351.88 422.417 353.631C417.269 365.868 408.105 373.986 396 379C384.348 383.219 370.157 382.119 359 377C345.304 368.885 339.355 358.553 334 344C330.053 343.9 326.107 343.828 322.159 343.78C320.168 343.751 318.178 343.7 316.188 343.648C303.669 343.522 294.293 346.235 286 356Z" fill="black"/>
<path d="M115.203 262.371C117 263 117 263 118.875 264.5C119.962 266.915 120.398 268.911 120.875 271.5C121.542 274.796 121.899 275.884 124.188 278.5C128.7 280.907 132.304 281.32 137.312 280.375C140.111 279.246 140.111 279.246 141.25 276.875C141.672 275.256 142.082 273.633 142.449 272C143.725 266.449 143.725 266.449 145.188 264.062C148.16 262.32 150.577 262.059 154 262C156.938 263.25 156.938 263.25 159 266C160.618 274.728 157.855 281.514 153.25 288.75C147.283 294.717 140.203 297.91 131.75 298.375C124.072 298.14 117.232 295.581 111.562 290.375C106.572 284.852 103.919 278.623 103.438 271.187C103.622 267.83 104.089 266.86 106 263.875C109.53 261.669 111.219 261.54 115.203 262.371Z" fill="black"/>
<path d="M365 263C367.925 265.256 368.583 267.41 369.438 270.938C370.943 276.328 370.943 276.328 375 280C379.46 281.442 382.136 281.432 386.375 279.313C389.42 276.63 390.601 275.029 391.379 271.074C392.52 265.453 392.52 265.453 395.188 262.938C398.908 261.697 401.237 261.955 405 263C406.938 264.563 406.938 264.563 408 267C408.731 274.19 407.482 280.451 403.301 286.43C397.805 293.016 391.636 297.34 382.957 298.203C374.372 298.391 367.527 296.126 360.793 290.75C355.375 285.462 352.866 279.571 352.625 272.063C352.686 266.428 352.686 266.428 355.062 263.188C358.875 261.646 361.062 261.906 365 263Z" fill="black"/>
<path d="M177 215.375C181.222 216.255 182.427 217.521 185 221C185.745 224.846 185.698 228.594 185.625 232.5C185.654 234.049 185.654 234.049 185.684 235.629C185.652 240.508 185.611 243.16 182.684 247.184C179.158 249.57 177.175 249.683 173 249C170.351 246.942 169.153 245.74 168.467 242.422C168.431 239.301 168.406 236.184 168.438 233.062C168.414 231.978 168.39 230.893 168.365 229.775C168.38 221.849 168.38 221.849 171.348 217.785C174 216 174 216 177 215.375Z" fill="black"/>
<path d="M335 215.375C339.222 216.255 340.427 217.521 343 221C343.745 224.846 343.698 228.594 343.625 232.5C343.654 234.049 343.654 234.049 343.684 235.629C343.652 240.507 343.613 243.159 340.684 247.18C337.139 249.584 335.196 249.763 331 249C328.339 246.777 327.153 244.957 326.603 241.514C326.424 238.499 326.405 235.52 326.438 232.5C326.414 231.467 326.39 230.435 326.365 229.371C326.38 221.84 326.38 221.84 329.348 217.82C332 216 332 216 335 215.375Z" fill="black"/>
<path d="M91 217C92.6877 218.199 92.6877 218.199 94 220C94.6465 224.115 94.4632 228.277 94.4375 232.437C94.4675 234.155 94.4675 234.155 94.498 235.908C94.4974 237.01 94.4967 238.111 94.4961 239.246C94.4989 240.757 94.4989 240.757 94.5017 242.298C93.8652 245.726 92.7448 246.908 90 249C86.2465 249.469 83.9615 249.531 80.625 247.687C76.7599 243.674 77.816 237.761 77.8125 232.562C77.8002 231.608 77.788 230.653 77.7754 229.67C77.7734 228.749 77.7715 227.828 77.7695 226.879C77.7654 226.039 77.7613 225.199 77.7571 224.334C78.0234 221.775 78.6598 220.183 80 218C83.5633 215.228 86.7924 216.005 91 217Z" fill="black"/>
<path d="M430 217C432.815 218.971 433.326 220.723 434 224C434.237 226.956 434.231 229.911 434.25 232.875C434.271 233.665 434.291 234.455 434.312 235.269C434.346 240.259 433.787 243.684 431 248C427.908 249.546 425.406 249.293 422 249C419.262 246.923 418.142 245.716 417.467 242.314C417.431 239.041 417.406 235.773 417.438 232.5C417.414 231.359 417.39 230.218 417.365 229.043C417.38 220.748 417.38 220.748 420.309 217.215C423.98 215.558 426.159 215.933 430 217Z" fill="black"/>
</g>
<defs>
<clipPath id="clip0_111_70">
<rect width="512" height="512" fill="white"/>
</clipPath>
</defs>
</svg>
