<svg width="512" height="512" viewBox="0 0 512 512" fill="none" xmlns="http://www.w3.org/2000/svg">
<g clip-path="url(#clip0_111_78)">
<path d="M347.875 -0.375092C348.997 -0.371436 350.119 -0.36778 351.275 -0.364014C366.511 -0.306101 381.683 0.135935 396.875 1.31241C397.668 1.37108 398.461 1.42975 399.278 1.4902C401.497 1.66038 403.713 1.85058 405.93 2.05069C407.774 2.21565 407.774 2.21565 409.656 2.38394C414.291 3.23762 417.826 4.59119 420.875 8.24991C422.324 11.7918 422.475 14.2024 422 17.9999C419.513 22.7583 416.462 23.7414 411.642 25.2724C406.906 26.5766 402.081 27.3792 397.25 28.2499C375.587 32.4035 349.131 39.1392 335.188 57.7499C326.016 72.0187 326.439 87.3503 329.879 103.5C330.734 107.343 331.643 111.172 332.563 115C333.063 117.144 333.563 119.289 334.062 121.434C335.67 128.298 337.332 135.15 339 142C339.269 143.111 339.538 144.222 339.814 145.366C348.751 182.3 358.868 218.88 369.231 255.433C369.476 256.295 369.72 257.157 369.971 258.044C371.118 262.094 372.268 266.144 373.423 270.192C375.47 277.385 377.457 284.592 379.306 291.839C379.478 292.502 379.65 293.164 379.827 293.847C380.63 297.052 381 299.66 381 303C381.962 303.164 381.962 303.164 382.942 303.332C407.379 307.585 431.541 313.227 454 324C454.684 324.325 455.367 324.649 456.072 324.984C469.38 331.403 482.394 339.586 488.152 353.855C490.757 363.518 489.784 372.694 484.836 381.348C480.925 386.998 476.392 391.107 470.688 394.875C466.577 397.812 465.898 400.699 464.75 405.476C462.814 411.991 457.753 417.204 452.01 420.661C448.36 422.285 444.773 422.928 440.855 423.515C439.671 423.701 439.671 423.701 438.462 423.892C429.686 425.251 420.879 426.365 412.066 427.452C410.25 427.679 408.435 427.906 406.62 428.133C401.753 428.741 396.887 429.345 392.02 429.948C386.911 430.582 381.802 431.221 376.693 431.858C367.047 433.062 357.4 434.261 347.753 435.46C336.759 436.826 325.765 438.196 314.771 439.566C292.181 442.382 269.591 445.193 247 448C248.153 451.06 249.293 453.439 251.125 456.187C253.288 459.931 253.55 463.309 253.727 467.57C252.838 470.541 251.387 472.122 248.927 473.982C245.185 475.958 241.221 475.975 237.063 476.187C236.109 476.261 235.156 476.334 234.173 476.41C229.036 476.799 223.907 477.043 218.758 477.207C208.354 477.351 208.354 477.351 198.871 480.965C196.559 483.51 194.803 486.076 193 489C191.545 490.832 190.065 492.644 188.563 494.437C187.83 495.341 187.098 496.245 186.344 497.176C174.267 511.728 174.267 511.728 170.012 512.238C169.245 512.263 168.478 512.287 167.688 512.312C166.549 512.369 166.549 512.369 165.387 512.426C162.008 511.823 160.498 510.336 158 508C156.394 505.042 156.394 505.042 155.027 501.617C154.778 501.003 154.528 500.388 154.27 499.756C153.479 497.801 152.708 495.838 151.938 493.875C151.417 492.58 150.896 491.286 150.373 489.992C149.364 487.489 148.367 484.982 147.375 482.472C145.837 478.588 144.258 474.722 142.666 470.86C142 469 142 469 142 467C140.83 466.635 139.659 466.27 138.453 465.894C132.096 463.77 125.938 461.181 119.778 458.549C118.422 457.973 117.063 457.404 115.7 456.842C113.705 456.019 111.719 455.174 109.734 454.324C108.561 453.83 107.388 453.336 106.179 452.827C102.312 450.604 100.554 448.638 98 445C97.3576 441.002 97.6351 438.799 99.3125 435.125C102.369 430.994 106.719 427.993 110.734 424.855C111.482 424.243 112.23 423.631 113 423C113 422.67 113 422.34 113 422C112.297 421.83 111.595 421.66 110.871 421.484C44.0875 405.155 44.0875 405.155 26.6836 379.023C22.6953 371.603 22.61 362.365 24.6953 354.316C25.6291 352.053 26.6961 350.071 28 348C28.3893 347.339 28.7786 346.677 29.1797 345.996C42.4383 325.951 72.1396 317.818 93.8125 311.375C94.6988 311.11 95.5852 310.845 96.4983 310.572C97.4128 310.308 98.3273 310.045 99.2696 309.773C100.76 309.322 100.76 309.322 102.28 308.862C105.38 308.144 108.153 307.782 111.306 307.518C121.575 306.514 121.575 306.514 129.823 300.913C133.866 294.151 135.894 286.564 138.125 279.062C138.924 276.627 139.734 274.195 140.552 271.766C142.032 267.351 143.488 262.931 144.905 258.496C148.535 247.146 152.712 236.012 156.92 224.866C159.033 219.253 161.109 213.626 163.188 208C164.001 205.802 164.815 203.604 165.629 201.406C168.969 192.384 172.304 183.361 175.639 174.337C176.679 171.523 177.72 168.709 178.761 165.894C181.976 157.199 185.185 148.502 188.378 139.798C189.887 135.686 191.399 131.575 192.911 127.464C193.619 125.537 194.325 123.61 195.03 121.683C208.614 84.5276 208.614 84.5276 216.438 69.9999C216.896 69.1402 217.354 68.2805 217.826 67.3947C234.035 37.6044 259.489 15.4268 292.188 5.74991C292.963 5.5157 293.738 5.2815 294.537 5.04019C312.075 0.152269 329.782 -0.503799 347.875 -0.375092ZM251.5 55.6249C233.791 75.9744 224.666 101.56 215.598 126.572C214.363 129.972 213.114 133.367 211.867 136.762C209.856 142.24 207.851 147.721 205.85 153.204C203.257 160.308 200.64 167.404 198.012 174.496C197.628 175.532 197.244 176.567 196.849 177.635C196.106 179.638 195.363 181.642 194.62 183.646C192.062 190.549 189.51 197.455 186.969 204.366C186.28 206.239 185.589 208.113 184.898 209.986C183.771 213.041 182.649 216.099 181.527 219.156C180.999 220.586 180.999 220.586 180.459 222.046C180.138 222.926 179.816 223.806 179.484 224.713C179.197 225.494 178.91 226.274 178.614 227.079C177.899 228.981 177.899 228.981 178 231C192.185 238.033 208.334 240.987 224.004 242.445C227.289 243.053 229.31 244.041 232 246C233.757 248.954 234.023 250.624 233.813 254.062C232.976 257.086 232.165 258.752 230 261C220.867 264.044 208.8 260.581 199.625 258.812C198.635 258.629 197.645 258.445 196.625 258.255C187.428 256.397 178.776 253.252 170 250C169.678 250.877 169.678 250.877 169.35 251.773C167.096 257.923 164.841 264.072 162.584 270.221C161.745 272.508 160.906 274.796 160.068 277.084C158.855 280.394 157.64 283.703 156.426 287.012C156.036 288.077 155.645 289.142 155.243 290.24C152.861 296.727 150.405 303.17 147.766 309.558C146.947 312.168 146.85 314.281 147 317C179.267 336.594 223.041 337.432 259.688 337.312C261.39 337.31 261.39 337.31 263.127 337.308C280.255 337.268 297.071 336.827 314 334C314.893 333.855 315.785 333.711 316.705 333.562C331.787 331.023 348.27 327.093 359.73 316.383C363.112 310.036 360.541 302.029 358.699 295.504C358.462 294.63 358.225 293.757 357.981 292.857C357.227 290.089 356.457 287.326 355.688 284.562C355.182 282.713 354.677 280.863 354.174 279.014C352.452 272.71 352.452 272.71 350.683 266.42C350.195 264.689 349.726 262.952 349.27 261.212C349.022 260.304 348.774 259.396 348.519 258.461C348.3 257.631 348.08 256.801 347.854 255.947C347.572 255.304 347.291 254.662 347 254C343.003 252.668 340.359 253.963 336.5 255.187C328.346 257.623 320.165 259.087 311.75 260.312C310.584 260.483 309.418 260.654 308.217 260.831C293.279 262.922 293.279 262.922 288 259C286.844 256.687 286.801 255.199 286.75 252.625C286.711 251.469 286.711 251.469 286.672 250.289C287.089 247.377 288.026 246.164 290 244C292.072 243.236 292.072 243.236 294.461 242.863C295.35 242.716 296.239 242.568 297.155 242.416C298.094 242.279 299.033 242.142 300 242C300.926 241.853 301.852 241.707 302.806 241.556C304.738 241.251 306.67 240.951 308.604 240.655C319.441 238.977 329.677 236.704 340 233C339.392 227.108 338.243 221.624 336.664 215.922C336.429 215.054 336.194 214.187 335.952 213.293C335.445 211.422 334.936 209.551 334.425 207.682C333.047 202.632 331.691 197.576 330.336 192.519C330.057 191.479 329.778 190.439 329.491 189.367C299.977 78.9807 299.977 78.9807 314.98 50.3319C318.062 45.2484 321.747 41.1263 326 36.9999C326.92 36.066 326.92 36.066 327.859 35.1132C332.964 30.2597 338.882 27.0438 345.023 23.6991C348.005 22.1701 348.005 22.1701 350 19.9999C312.196 18.9689 278.118 27.4688 251.5 55.6249ZM377.039 325.625C376.572 326.409 376.106 327.192 375.625 328C364.973 343.52 342.983 348.623 325.438 352.125C268.253 362.623 190.671 364.247 138.34 335.738C135.659 333.747 134.372 331.662 132.563 328.875C130.728 326.426 130.728 326.426 128 325C121.25 324.509 114.384 327.112 108 329C106.942 329.297 105.884 329.595 104.794 329.901C91.4432 333.662 78.4567 337.866 66 344C64.4512 344.754 64.4512 344.754 62.8711 345.523C55.1595 349.489 46.8295 354.323 44 363C44.6335 368.899 47.7826 372.075 52 376C69.22 389.183 91.4542 395.328 112.188 400.375C113.214 400.626 114.241 400.877 115.298 401.135C121.519 402.591 127.626 403.545 134 404C134.105 402.85 134.211 401.7 134.32 400.515C134.716 396.231 135.128 391.949 135.544 387.667C135.722 385.817 135.896 383.966 136.065 382.115C136.309 379.448 136.569 376.783 136.832 374.117C136.904 373.295 136.976 372.473 137.05 371.626C137.541 366.831 138.433 363.194 141 359C144.201 356.572 147.077 356.577 151 357C154.278 358.492 157.27 360.393 160.313 362.312C161.196 362.845 162.079 363.377 162.988 363.926C167.299 366.552 171.424 369.257 175.387 372.387C183.255 378.584 183.255 378.584 192.871 379.934C197.185 379.223 201.332 378.059 205.502 376.759C209.496 375.545 213.552 374.649 217.625 373.75C218.369 373.579 219.114 373.409 219.881 373.233C226.347 371.799 232.607 370.869 239 373C241.571 380.012 240.682 384.964 238.727 392.082C237.839 395.146 237.839 395.146 238 399C256.228 396.61 274.319 393.441 292.43 390.312C298.031 389.345 303.632 388.385 309.233 387.426C311.165 387.095 313.096 386.764 315.027 386.433C315.993 386.268 316.959 386.102 317.954 385.932C330.958 383.704 343.962 381.472 356.963 379.225C365.786 377.701 374.611 376.185 383.438 374.68C388.089 373.886 392.739 373.088 397.387 372.279C401.754 371.519 406.123 370.77 410.493 370.031C412.084 369.759 413.674 369.484 415.263 369.203C430.66 366.493 444.589 364.348 458.063 373.75C459.032 374.492 460.001 375.235 461 376C462.158 374.782 463.301 373.55 464.438 372.312C465.076 371.628 465.714 370.943 466.371 370.238C468.2 367.725 468.743 366.081 469 363C465.166 352.508 453.654 346.985 444.125 342.375C426.038 333.983 406.464 329.045 387 325C386.214 324.827 385.428 324.654 384.618 324.475C380.52 323.672 380.52 323.672 377.039 325.625ZM156 385C155.925 385.847 155.85 386.694 155.772 387.567C155.486 390.732 155.188 393.897 154.883 397.06C154.754 398.426 154.629 399.791 154.508 401.157C154.333 403.129 154.141 405.1 153.949 407.07C153.839 408.254 153.729 409.437 153.616 410.657C152.363 417.455 149.139 421.234 143.875 425.437C143.301 425.909 142.727 426.381 142.136 426.866C137.493 430.663 132.782 434.379 128 438C130.366 440.366 132.439 441.165 135.523 442.461C136.627 442.933 137.73 443.404 138.867 443.891C141.196 444.876 143.527 445.858 145.859 446.836C146.965 447.31 148.071 447.785 149.211 448.273C150.732 448.914 150.731 448.914 152.283 449.568C157.635 452.389 159.602 455.758 161.797 461.297C162.28 462.502 162.764 463.707 163.262 464.949C163.758 466.216 164.254 467.483 164.75 468.75C165.261 470.033 165.773 471.315 166.285 472.598C167.533 475.728 168.771 478.862 170 482C174.158 478.547 178.043 475.064 181.625 471C182.388 470.144 183.151 469.288 183.938 468.406C185.588 466.481 187.112 464.531 188.625 462.5C194.35 456.474 204.164 457.372 211.938 456.875C213.194 456.789 214.45 456.702 215.744 456.613C218.829 456.402 221.914 456.198 225 456C223.915 452.551 222.837 449.392 220.941 446.309C220.362 445.356 220.362 445.356 219.772 444.385C219.373 443.742 218.974 443.099 218.563 442.437C217.97 441.468 217.97 441.468 217.365 440.478C216.978 439.845 216.591 439.211 216.191 438.559C215.818 437.94 215.444 437.321 215.059 436.683C213.94 434.848 213.94 434.848 212.215 432.66C208.524 424.577 211.9 415.008 214 406.875C214.286 405.728 214.572 404.58 214.867 403.398C215.568 400.596 216.279 397.797 217 395C209.42 396.215 201.983 397.625 194.52 399.414C185.055 400.99 180.187 399.675 172.25 394.187C170.609 393.098 168.969 392.008 167.328 390.918C166.196 390.153 166.196 390.153 165.041 389.372C160.856 386.221 160.856 386.221 156 385ZM430.091 386.94C429.408 387.054 428.724 387.167 428.02 387.284C425.734 387.665 423.451 388.059 421.167 388.453C419.525 388.73 417.884 389.006 416.242 389.281C411.776 390.031 407.312 390.793 402.848 391.557C398.145 392.36 393.441 393.153 388.737 393.947C380.807 395.287 372.878 396.634 364.949 397.985C353.887 399.87 342.823 401.743 331.759 403.614C323.997 404.927 316.236 406.243 308.475 407.56C306.621 407.874 304.767 408.188 302.913 408.503C279.246 412.514 255.606 416.64 232 421C230.667 423.892 230.667 423.892 231.938 426.187C232.288 426.786 232.639 427.384 233 428C244.111 427.354 255.096 426.105 266.135 424.731C268.021 424.499 269.906 424.267 271.792 424.036C276.87 423.411 281.948 422.782 287.025 422.151C290.201 421.757 293.377 421.363 296.553 420.969C306.501 419.737 316.449 418.501 326.396 417.261C337.861 415.832 349.327 414.413 360.794 413.003C369.679 411.91 378.562 410.807 387.445 409.698C392.743 409.037 398.042 408.379 403.342 407.731C408.316 407.123 413.289 406.503 418.262 405.875C420.086 405.646 421.911 405.421 423.736 405.201C426.227 404.9 428.715 404.584 431.204 404.265C431.927 404.181 432.65 404.097 433.395 404.011C437.58 403.455 440.612 402.549 444 400C446.356 397.114 446.356 397.114 445.813 393.5C444.945 389.475 444.945 389.475 442 387C437.766 385.777 434.406 386.209 430.091 386.94Z" fill="black"/>
<path d="M267 243C269.824 245.19 271.415 246.83 273 250C273.412 254.636 272.875 257.304 270 261C266.99 263.341 263.723 263.412 259.969 263.328C256.857 262.81 255.149 261.215 253 259C251.376 255.753 251.454 252.509 252 249C255.489 242.488 259.842 241.39 267 243Z" fill="black"/>
</g>
<defs>
<clipPath id="clip0_111_78">
<rect width="512" height="512" fill="white"/>
</clipPath>
</defs>
</svg>
