<svg width="512" height="512" viewBox="0 0 512 512" fill="none" xmlns="http://www.w3.org/2000/svg">
<g clip-path="url(#clip0_10_67)">
<path d="M36.3644 -0.521496C37.8156 -0.527544 39.2667 -0.535326 40.7178 -0.544681C44.6878 -0.565191 48.6574 -0.560891 52.6274 -0.55232C56.9159 -0.547376 61.2043 -0.565425 65.4928 -0.580395C73.8877 -0.605868 82.2826 -0.609479 90.6776 -0.604795C97.5031 -0.601225 104.329 -0.604733 111.154 -0.613243C112.613 -0.615029 112.613 -0.615029 114.1 -0.616851C116.076 -0.619274 118.051 -0.621702 120.026 -0.624135C138.543 -0.645879 157.059 -0.641565 175.575 -0.629366C192.502 -0.619029 209.429 -0.641534 226.356 -0.679562C243.75 -0.718337 261.143 -0.734828 278.537 -0.727316C288.297 -0.723494 298.057 -0.728442 307.817 -0.756745C316.126 -0.780598 324.436 -0.783354 332.745 -0.759164C336.982 -0.747404 341.218 -0.745139 345.454 -0.769169C349.339 -0.790947 353.222 -0.784613 357.107 -0.756646C358.506 -0.751368 359.905 -0.756035 361.304 -0.772118C371.479 -0.880902 380.123 0.880023 387.997 7.74031C396.046 16.1619 396.589 25.8411 396.546 36.9748C396.554 38.4736 396.565 39.9725 396.577 41.4713C396.605 45.5162 396.608 49.5607 396.607 53.6057C396.61 57.8418 396.636 62.0778 396.659 66.3138C396.7 74.3246 396.72 82.3353 396.733 90.3462C396.749 99.4709 396.787 108.595 396.828 117.72C396.91 136.48 396.964 155.24 397 174C397.396 173.291 397.792 172.581 398.2 171.851C400.022 168.591 401.845 165.333 403.668 162.074C404.291 160.959 404.914 159.843 405.556 158.694C410.578 149.719 415.665 140.793 421 132C421.585 131.031 421.585 131.031 422.182 130.043C430.447 116.468 438.633 107.194 454.375 102.73C467.595 100.066 480.893 101.714 492.312 109.187C502.489 116.952 509.051 126.506 512 139C512.315 142.089 512.37 145.147 512.375 148.25C512.399 149.032 512.424 149.815 512.449 150.621C512.501 161.389 507.528 170.442 502.375 179.625C501.844 180.584 501.313 181.542 500.766 182.53C496.867 189.54 492.842 196.469 488.742 203.363C485.38 209.025 482.098 214.732 478.812 220.437C478.174 221.544 477.536 222.651 476.879 223.792C475.571 226.063 474.263 228.334 472.955 230.605C469.806 236.072 466.653 241.536 463.5 247C459.736 253.522 455.973 260.045 452.214 266.57C446.192 277.022 440.153 287.463 434.062 297.875C428.376 307.597 422.77 317.363 417.207 327.156C416.602 328.218 415.998 329.28 415.375 330.375C414.457 332.034 414.457 332.034 413.522 333.726C411.696 336.928 409.677 339.927 407.558 342.943C396.966 358.583 395.036 371.254 395.576 389.885C395.659 393.37 395.655 396.856 395.66 400.342C395.682 406.916 395.769 413.486 395.885 420.059C396.093 431.842 396.204 443.626 396.264 455.411C396.284 458.861 396.319 462.31 396.391 465.76C396.47 469.596 396.513 473.431 396.55 477.268C396.585 478.385 396.619 479.501 396.654 480.65C396.684 489.514 394.144 497.067 388.376 503.933C381.723 510.108 373.901 512.606 364.979 512.549C363.702 512.565 363.702 512.565 362.398 512.58C359.614 512.608 356.831 512.606 354.046 512.601C352.098 512.609 350.15 512.618 348.202 512.627C344.134 512.642 340.066 512.642 335.998 512.631C330.786 512.62 325.576 512.654 320.365 512.7C316.349 512.729 312.332 512.731 308.316 512.725C306.394 512.726 304.472 512.736 302.55 512.757C299.867 512.781 297.186 512.768 294.503 512.745C293.712 512.76 292.921 512.775 292.106 512.791C289.145 512.734 286.741 512.603 284.388 510.689C282.059 507.98 280.299 505.639 280.375 502C280.362 501.381 280.349 500.762 280.336 500.125C281.39 496.751 283.32 494.238 286 492C288.88 491.402 290.928 491.197 293.8 491.259C294.955 491.248 294.955 491.248 296.133 491.236C298.67 491.218 301.205 491.242 303.742 491.266C305.511 491.259 307.281 491.25 309.051 491.238C313.707 491.214 318.363 491.223 323.02 491.241C330.465 491.264 337.91 491.237 345.356 491.208C347.95 491.203 350.543 491.213 353.138 491.225C354.739 491.225 356.339 491.224 357.94 491.224C358.656 491.231 359.371 491.238 360.107 491.246C364.733 491.229 368.767 490.93 373 489C375.266 484.056 375.279 479.036 375.227 473.678C375.227 472.477 375.227 472.477 375.228 471.251C375.226 468.627 375.211 466.003 375.195 463.379C375.191 461.55 375.188 459.722 375.186 457.893C375.179 453.098 375.159 448.303 375.137 443.507C375.116 438.607 375.107 433.707 375.097 428.807C375.076 419.204 375.042 409.602 375 400C374.653 400.63 374.306 401.259 373.949 401.908C372.34 404.805 370.701 407.683 369.062 410.562C368.517 411.553 367.973 412.544 367.412 413.564C363.533 420.313 359.483 424.708 353 429C352.064 429.652 351.128 430.304 350.164 430.976C349.326 431.52 348.488 432.064 347.625 432.625C342.356 436.09 337.138 439.622 331.937 443.187C331.131 443.74 330.324 444.292 329.493 444.861C325.341 447.705 321.192 450.555 317.046 453.41C313.102 456.125 309.145 458.82 305.182 461.507C303.11 462.924 301.06 464.367 299.011 465.816C288.125 473.382 288.125 473.382 281.839 472.621C278.471 471.484 276.975 469.902 275 467C273.977 461.978 273.989 457.263 274.405 452.188C274.46 451.441 274.515 450.693 274.572 449.923C274.755 447.472 274.949 445.021 275.144 442.57C275.276 440.853 275.407 439.136 275.538 437.419C275.813 433.826 276.093 430.233 276.378 426.641C276.74 422.057 277.09 417.472 277.437 412.886C277.705 409.341 277.981 405.796 278.258 402.251C278.389 400.562 278.519 398.872 278.646 397.183C278.827 394.812 279.015 392.441 279.206 390.071C279.256 389.385 279.307 388.699 279.359 387.992C279.525 385.986 279.744 383.997 280 382C280.086 381.314 280.173 380.628 280.262 379.922C281.485 372.807 284.992 367.089 288.625 360.937C289.236 359.881 289.847 358.825 290.476 357.736C291.973 355.151 293.481 352.573 295 350C293.922 350.005 292.844 350.009 291.734 350.014C265.528 350.125 239.323 350.207 213.117 350.259C200.444 350.285 187.771 350.32 175.098 350.377C164.055 350.427 153.011 350.459 141.967 350.47C136.118 350.477 130.269 350.492 124.419 350.529C118.916 350.562 113.413 350.573 107.909 350.565C105.888 350.567 103.866 350.577 101.844 350.596C99.0868 350.621 96.3309 350.615 93.5733 350.601C92.7707 350.616 91.9682 350.63 91.1413 350.645C87.0761 350.591 85.2284 350.182 82.0052 347.619C79.2388 344.007 79.2842 341.783 79.5074 337.379C80.2688 333.699 81.9884 332.121 84.9996 330C89.1741 328.665 93.336 328.934 97.6693 329.028C98.9959 329.05 98.9959 329.05 100.349 329.072C102.289 329.105 104.229 329.14 106.169 329.177C111.565 329.279 116.961 329.364 122.357 329.451C124.084 329.48 124.084 329.48 125.846 329.509C140.581 329.749 155.317 329.885 170.053 330.022C184.403 330.155 198.751 330.322 213.099 330.605C224.496 330.829 235.891 330.975 247.29 331.029C253.321 331.061 259.346 331.131 265.375 331.295C288.656 333.169 288.656 333.169 310.256 326.849C315.044 321.781 317.442 316.255 319.242 309.588C320.299 305.976 321.996 303.236 324.023 300.078C325.141 298.136 326.259 296.193 327.375 294.25C328.643 292.047 329.911 289.844 331.179 287.641C331.811 286.543 332.442 285.445 333.092 284.314C336.223 278.873 339.362 273.437 342.5 268C346.311 261.396 350.12 254.791 353.925 248.183C354.576 247.054 355.227 245.924 355.898 244.76C357.116 242.645 358.334 240.531 359.55 238.416C360.118 237.432 360.685 236.448 361.269 235.433C361.814 234.47 362.358 233.507 362.919 232.514C364.351 230.034 365.89 227.666 367.51 225.304C374.691 214.54 376.435 206.249 376.182 193.474C376.185 191.69 376.191 189.906 376.201 188.121C376.217 183.332 376.171 178.545 376.112 173.756C376.061 168.722 376.064 163.689 376.06 158.655C376.047 150.217 375.996 141.781 375.919 133.343C375.82 122.523 375.783 111.704 375.764 100.884C375.748 91.5528 375.706 82.2222 375.658 72.8915C375.644 69.903 375.633 66.9146 375.622 63.9261C375.604 59.2324 375.569 54.5392 375.522 49.8457C375.507 48.1265 375.497 46.4072 375.492 44.6879C375.484 42.3371 375.458 39.9873 375.428 37.6367C375.412 35.6663 375.412 35.6663 375.397 33.6561C374.923 29.2901 374.226 26.7917 372 22.9999C367.94 21.252 364.425 20.7492 360.033 20.7454C358.855 20.7396 357.677 20.7338 356.464 20.7277C354.536 20.7334 354.536 20.7334 352.569 20.7392C351.183 20.7362 349.797 20.7323 348.411 20.7276C344.607 20.7173 340.803 20.7195 336.999 20.7238C332.895 20.7263 328.791 20.7172 324.686 20.7098C316.648 20.697 308.609 20.6952 300.57 20.6976C294.037 20.6993 287.503 20.6976 280.97 20.6933C279.575 20.6924 279.575 20.6924 278.152 20.6915C276.264 20.6903 274.375 20.6891 272.487 20.6879C254.774 20.677 237.061 20.6792 219.348 20.6853C203.141 20.6904 186.935 20.6792 170.728 20.6602C154.089 20.6408 137.449 20.6325 120.809 20.6363C111.467 20.6382 102.125 20.6357 92.7821 20.6216C84.8294 20.6097 76.8767 20.6082 68.924 20.6204C64.8664 20.6263 60.809 20.6273 56.7514 20.6154C53.0362 20.6045 49.3212 20.6076 45.6059 20.6216C43.6271 20.6255 41.6482 20.6147 39.6693 20.6033C30.8674 20.5708 30.8674 20.5708 22.9996 23.9999C21.1918 28.2355 20.7472 31.8934 20.7379 36.4698C20.7267 38.4053 20.7267 38.4053 20.7153 40.3799C20.717 41.8047 20.719 43.2294 20.7211 44.6542C20.7161 46.1731 20.7102 47.6921 20.7036 49.2111C20.6878 53.3819 20.6843 57.5527 20.6829 61.7236C20.6792 66.2225 20.6641 70.7214 20.6503 75.2203C20.628 83.0139 20.613 90.8075 20.6029 98.6012C20.5883 109.869 20.5628 121.138 20.5346 132.406C20.4891 150.688 20.4525 168.97 20.4215 187.252C20.3913 205.011 20.3569 222.771 20.317 240.53C20.3133 242.172 20.3133 242.172 20.3095 243.847C20.2971 249.339 20.2847 254.83 20.2722 260.322C20.1686 305.881 20.0794 351.441 19.9996 397C20.8669 396.991 21.7342 396.982 22.6277 396.973C30.8362 396.893 39.0445 396.832 47.2532 396.793C51.4726 396.772 55.6916 396.744 59.9107 396.698C63.9891 396.654 68.0672 396.631 72.1459 396.62C73.6951 396.613 75.2443 396.599 76.7934 396.577C88.5801 396.418 98.2736 397.528 107.242 405.934C113.043 412.754 115.129 420.119 115.113 428.88C115.113 429.563 115.113 430.246 115.114 430.951C115.113 433.201 115.105 435.452 115.097 437.703C115.095 439.267 115.094 440.83 115.093 442.394C115.089 446.504 115.079 450.614 115.068 454.724C115.058 458.92 115.053 463.116 115.048 467.312C115.038 475.542 115.021 483.771 115 492C116.129 491.989 117.257 491.978 118.421 491.966C129.059 491.865 139.697 491.79 150.335 491.741C155.805 491.715 161.274 491.679 166.743 491.623C172.021 491.568 177.298 491.538 182.577 491.526C184.591 491.516 186.604 491.498 188.618 491.471C191.439 491.435 194.258 491.43 197.078 491.432C197.911 491.414 198.744 491.396 199.603 491.378C203.865 491.416 205.512 491.622 208.995 494.321C211.524 497.701 212 499.788 212 504C210.484 508.015 209.594 509.604 206 512C203.997 512.266 203.997 512.266 201.668 512.288C200.342 512.307 200.342 512.307 198.988 512.326C198.02 512.33 197.053 512.334 196.055 512.338C195.034 512.35 194.013 512.361 192.96 512.373C189.574 512.407 186.187 512.426 182.8 512.441C181.644 512.448 180.487 512.455 179.295 512.462C173.172 512.498 167.048 512.522 160.925 512.535C154.604 512.552 148.284 512.61 141.963 512.678C137.1 512.723 132.237 512.737 127.373 512.742C125.043 512.75 122.714 512.769 120.384 512.801C117.119 512.843 113.856 512.84 110.591 512.826C109.633 512.848 108.675 512.87 107.689 512.893C101.503 512.807 98.3597 511.45 93.9779 507.09C93.3251 506.4 92.6722 505.711 91.9996 505C90.5313 503.571 89.0612 502.143 87.5896 500.717C85.9751 499.108 84.3633 497.497 82.7537 495.883C81.8666 494.998 80.9795 494.113 80.0654 493.2C77.657 490.796 75.2508 488.389 72.8458 485.98C70.3214 483.453 67.7945 480.929 65.268 478.404C61.0341 474.172 56.8022 469.938 52.5716 465.702C47.6791 460.804 42.7831 455.91 37.8851 451.018C33.6717 446.809 29.4602 442.598 25.2503 438.385C22.7391 435.873 20.2273 433.361 17.7136 430.85C14.9194 428.059 12.1294 425.265 9.33967 422.469C8.50492 421.637 7.67017 420.804 6.81012 419.946C6.05462 419.188 5.29912 418.429 4.52072 417.648C3.86097 416.988 3.20121 416.328 2.52147 415.648C-0.433636 412.448 -0.129839 409.952 -0.140221 405.697C-0.143173 405.039 -0.146122 404.382 -0.149163 403.705C-0.157892 401.481 -0.159439 399.258 -0.161042 397.034C-0.16577 395.432 -0.170922 393.831 -0.176461 392.229C-0.1904 387.81 -0.19796 383.391 -0.204434 378.972C-0.210796 375.186 -0.220864 371.399 -0.230992 367.613C-0.264356 355.134 -0.285848 342.656 -0.304192 330.177C-0.308986 326.927 -0.313969 323.678 -0.318997 320.429C-0.349972 300.255 -0.376664 280.082 -0.393418 259.908C-0.397367 255.233 -0.40137 250.558 -0.405442 245.882C-0.40645 244.72 -0.407458 243.558 -0.408497 242.361C-0.425497 223.545 -0.466594 204.729 -0.517464 185.913C-0.569252 166.599 -0.598361 147.285 -0.605614 127.97C-0.610276 117.125 -0.625015 106.279 -0.665356 95.4339C-0.69968 86.1948 -0.713586 76.9559 -0.700932 67.7167C-0.69511 63.0042 -0.698936 58.2923 -0.729104 53.5799C-0.756531 49.2601 -0.75592 44.9413 -0.733594 40.6216C-0.73038 39.0642 -0.737187 37.5068 -0.755391 35.9495C-0.871564 25.3643 0.562872 16.4267 7.62296 8.0809C16.0264 0.215414 25.293 -0.587103 36.3644 -0.521496ZM445 133C442.51 136.418 440.428 139.995 438.375 143.687C437.822 144.624 437.269 145.56 436.699 146.525C436.187 147.428 435.675 148.331 435.148 149.262C434.455 150.483 434.455 150.483 433.747 151.729C432.766 153.976 432.766 153.976 433.655 156.163C435.933 159.275 439.396 160.696 442.75 162.437C444.371 163.305 445.991 164.177 447.609 165.051C448.907 165.752 448.907 165.752 450.232 166.467C456.216 169.781 462.058 173.348 467.913 176.884C468.808 177.42 469.703 177.956 470.625 178.508C471.421 178.989 472.218 179.47 473.039 179.965C474.925 181.155 474.925 181.155 477 181C479.15 177.231 481.294 173.46 483.437 169.687C484.049 168.616 484.66 167.544 485.291 166.439C485.874 165.411 486.457 164.383 487.058 163.324C487.598 162.376 488.137 161.428 488.693 160.452C492.137 153.99 492.241 146.086 490.128 139.133C486.842 132.041 482.427 127.977 475.75 124.125C463.402 120.421 453.654 123.953 445 133ZM421 175C419.499 176.847 419.499 176.847 418.171 179.336C417.627 180.284 417.082 181.233 416.521 182.21C415.937 183.255 415.352 184.299 414.75 185.375C414.133 186.454 413.517 187.533 412.882 188.645C411.574 190.937 410.269 193.23 408.97 195.527C406.477 199.921 403.949 204.294 401.419 208.666C399.537 211.919 397.66 215.174 395.785 218.43C392.026 224.955 388.263 231.478 384.5 238C383.25 240.167 382 242.333 380.75 244.5C368.25 266.167 355.75 287.833 343.25 309.5C342.631 310.573 342.011 311.646 341.374 312.752C340.127 314.913 338.88 317.074 337.633 319.235C334.458 324.738 331.283 330.242 328.109 335.746C320.751 348.504 313.384 361.257 306 374C309.06 377.355 312.212 379.461 316.164 381.68C316.756 382.015 317.348 382.35 317.958 382.695C319.843 383.761 321.734 384.819 323.625 385.875C325.487 386.923 327.349 387.973 329.21 389.023C330.423 389.707 331.636 390.389 332.851 391.069C337.339 393.589 341.706 396.27 346.025 399.071C348.131 400.339 348.131 400.339 351 399C352.578 396.849 352.578 396.849 354.046 394.129C354.931 392.575 354.931 392.575 355.834 390.99C356.466 389.859 357.098 388.728 357.75 387.562C358.419 386.382 359.088 385.201 359.759 384.021C361.154 381.567 362.544 379.111 363.931 376.653C367.081 371.079 370.293 365.541 373.5 360C374.75 357.833 376 355.667 377.25 353.5C394.75 323.167 412.25 292.833 429.75 262.5C430.369 261.427 430.988 260.353 431.626 259.248C432.872 257.088 434.118 254.929 435.364 252.77C438.553 247.242 441.741 241.714 444.925 236.183C451.893 224.088 458.889 212.012 466 200C462.926 197.588 459.733 195.613 456.343 193.672C455.237 193.036 454.131 192.401 452.992 191.746C451.828 191.081 450.664 190.415 449.5 189.75C447.239 188.453 444.979 187.156 442.718 185.859C441.052 184.907 441.052 184.907 439.351 183.935C437.085 182.627 434.83 181.299 432.586 179.955C431.516 179.315 430.446 178.675 429.343 178.016C428.386 177.436 427.429 176.856 426.443 176.259C424.013 174.771 424.013 174.771 421 175ZM300 397C299.01 411.19 298.02 425.38 297 440C301.067 438.373 303.745 436.955 307.238 434.48C308.223 433.788 309.209 433.095 310.224 432.381C311.243 431.657 312.262 430.933 313.312 430.187C319.779 425.615 326.231 421.116 333 417C331.85 413.55 331.439 413.394 328.386 411.766C327.638 411.359 326.89 410.953 326.119 410.535C325.316 410.111 324.514 409.687 323.687 409.25C322.045 408.363 320.403 407.475 318.761 406.586C317.952 406.15 317.143 405.714 316.31 405.265C312.202 403.016 308.198 400.597 304.187 398.18C302.12 396.842 302.12 396.842 300 397ZM35.9996 418C41.4939 424.685 47.5888 430.735 53.7066 436.84C54.8392 437.973 55.9717 439.106 57.104 440.24C59.4633 442.601 61.8244 444.96 64.1868 447.318C67.2212 450.346 70.2511 453.379 73.2796 456.414C75.6103 458.748 77.9433 461.08 80.2771 463.411C81.3962 464.53 82.5146 465.649 83.6323 466.769C85.1856 468.325 86.7422 469.877 88.2996 471.429C89.1853 472.314 90.071 473.199 90.9836 474.111C92.6607 476.114 92.6607 476.114 93.9996 476C94.0757 468.828 94.1282 461.657 94.1644 454.485C94.1795 452.046 94.1999 449.606 94.2259 447.167C94.2623 443.659 94.2793 440.152 94.2926 436.644C94.308 435.555 94.3235 434.465 94.3395 433.342C94.4913 426.105 94.4913 426.105 90.9996 420C87.8732 418.068 85.5106 417.755 81.8638 417.773C80.3327 417.773 80.3327 417.773 78.7706 417.773C77.6757 417.784 76.5808 417.794 75.4527 417.805C74.3264 417.807 73.2 417.81 72.0396 417.813C68.4428 417.824 64.8463 417.849 61.2496 417.875C58.8108 417.885 56.372 417.894 53.9332 417.902C47.9552 417.924 41.9774 417.958 35.9996 418Z" fill="currentColor"/>
<path d="M97.7099 216.86C98.5986 216.857 99.4873 216.854 100.403 216.851C103.387 216.842 106.371 216.84 109.355 216.839C111.492 216.834 113.629 216.829 115.766 216.824C121.576 216.811 127.385 216.804 133.195 216.8C136.824 216.797 140.453 216.793 144.082 216.788C155.434 216.775 166.786 216.765 178.139 216.761C191.247 216.757 204.356 216.739 217.465 216.71C227.595 216.689 237.725 216.678 247.855 216.677C253.906 216.676 259.958 216.67 266.009 216.652C271.701 216.636 277.394 216.634 283.086 216.642C285.174 216.643 287.263 216.639 289.351 216.629C292.204 216.616 295.056 216.622 297.909 216.633C298.734 216.625 299.559 216.616 300.409 216.608C305.663 216.653 309.358 217.473 314 220C316.1 223.151 316.343 224.222 316.437 227.875C316.477 228.718 316.517 229.561 316.558 230.43C315.724 234.27 314.077 235.59 311 238C307.95 238.727 304.977 238.675 301.852 238.635C300.929 238.643 300.005 238.651 299.054 238.659C295.957 238.679 292.862 238.663 289.765 238.647C287.546 238.654 285.327 238.663 283.108 238.674C277.079 238.696 271.05 238.688 265.022 238.672C258.716 238.659 252.411 238.671 246.106 238.679C234.839 238.688 223.572 238.673 212.304 238.647C202.089 238.625 191.875 238.629 181.66 238.652C169.796 238.679 157.932 238.689 146.068 238.674C139.789 238.666 133.509 238.665 127.23 238.682C121.327 238.696 115.424 238.686 109.521 238.657C107.352 238.65 105.184 238.652 103.015 238.663C100.059 238.677 97.1039 238.66 94.1473 238.635C92.8552 238.652 92.8552 238.652 91.5371 238.669C87.1833 238.597 85.5071 238.399 81.9696 235.617C79.2482 232.002 79.2855 229.763 79.5077 225.379C80.269 221.699 81.9886 220.122 84.9999 218C89.1719 216.675 93.3749 216.855 97.7099 216.86Z" fill="currentColor"/>
<path d="M97.7099 104.86C98.5986 104.857 99.4873 104.854 100.403 104.851C103.387 104.842 106.371 104.84 109.355 104.839C111.492 104.834 113.629 104.829 115.766 104.824C121.576 104.811 127.385 104.804 133.195 104.8C136.824 104.797 140.453 104.793 144.082 104.788C155.434 104.775 166.786 104.765 178.139 104.761C191.247 104.757 204.356 104.739 217.465 104.71C227.595 104.689 237.725 104.678 247.855 104.677C253.906 104.676 259.958 104.67 266.009 104.652C271.701 104.636 277.394 104.634 283.086 104.642C285.174 104.643 287.263 104.639 289.351 104.629C292.204 104.616 295.056 104.622 297.909 104.633C298.734 104.625 299.559 104.616 300.409 104.608C305.663 104.653 309.358 105.473 314 108C316.1 111.151 316.343 112.222 316.437 115.875C316.477 116.718 316.517 117.561 316.558 118.43C315.724 122.27 314.077 123.59 311 126C307.95 126.727 304.977 126.675 301.852 126.635C300.929 126.643 300.005 126.651 299.054 126.659C295.957 126.679 292.862 126.663 289.765 126.647C287.546 126.654 285.327 126.663 283.108 126.674C277.079 126.696 271.05 126.688 265.022 126.672C258.716 126.659 252.411 126.671 246.106 126.679C234.839 126.688 223.572 126.673 212.304 126.647C202.089 126.625 191.875 126.629 181.66 126.652C169.796 126.679 157.932 126.689 146.068 126.674C139.789 126.666 133.509 126.665 127.23 126.682C121.327 126.696 115.424 126.686 109.521 126.657C107.352 126.65 105.184 126.652 103.015 126.663C100.059 126.677 97.1039 126.66 94.1473 126.635C92.8552 126.652 92.8552 126.652 91.5371 126.669C87.1833 126.597 85.5071 126.399 81.9696 123.617C79.2482 120.002 79.2855 117.763 79.5077 113.379C80.269 109.699 81.9886 108.122 84.9999 106C89.1719 104.675 93.3749 104.855 97.7099 104.86Z" fill="currentColor"/>
<path d="M166.912 272.612C168.429 272.608 169.945 272.602 171.462 272.596C175.567 272.582 179.673 272.588 183.778 272.597C188.082 272.605 192.385 272.598 196.689 272.593C203.915 272.587 211.14 272.595 218.366 272.609C226.712 272.625 235.056 272.62 243.402 272.603C250.576 272.59 257.751 272.588 264.926 272.596C269.207 272.6 273.487 272.601 277.768 272.591C281.794 272.582 285.819 272.589 289.844 272.606C291.318 272.61 292.792 272.609 294.266 272.602C308.404 272.544 308.404 272.544 314 276C316.1 279.151 316.343 280.222 316.437 283.875C316.477 284.718 316.517 285.561 316.558 286.43C315.742 290.186 313.934 291.582 311 294C307.853 294.629 307.853 294.629 304.244 294.635C303.244 294.647 303.244 294.647 302.225 294.659C299.999 294.678 297.775 294.663 295.549 294.647C293.95 294.654 292.352 294.663 290.753 294.674C286.416 294.696 282.08 294.687 277.743 294.672C273.204 294.659 268.664 294.671 264.125 294.679C256.502 294.688 248.879 294.676 241.256 294.652C232.444 294.625 223.632 294.633 214.82 294.661C207.253 294.684 199.686 294.687 192.119 294.674C187.6 294.666 183.081 294.665 178.563 294.681C174.314 294.696 170.066 294.686 165.817 294.657C164.258 294.65 162.7 294.652 161.141 294.663C159.011 294.677 156.885 294.66 154.755 294.635C153.565 294.633 152.374 294.631 151.147 294.629C147.067 293.814 145.585 292.189 143 289C141.666 285.166 141.932 283.248 143 279.313C144.991 276.015 146.077 274.945 149.597 273.577C155.242 272.221 161.139 272.586 166.912 272.612Z" fill="currentColor"/>
<path d="M97.7281 160.855C98.6083 160.851 99.4884 160.848 100.395 160.844C103.304 160.835 106.212 160.833 109.121 160.832C111.143 160.829 113.166 160.825 115.189 160.822C119.428 160.816 123.667 160.814 127.906 160.815C133.338 160.815 138.77 160.801 144.202 160.784C148.379 160.773 152.556 160.771 156.733 160.771C158.735 160.77 160.738 160.766 162.741 160.758C165.541 160.748 168.342 160.751 171.142 160.757C171.969 160.751 172.796 160.746 173.647 160.74C179.173 160.77 183.091 161.246 187.312 165.125C189.508 168.865 189.874 171.758 189 176C187.206 178.81 185.981 180.509 183 182C179.945 182.12 176.912 182.178 173.856 182.193C172.908 182.201 171.96 182.209 170.983 182.218C167.836 182.242 164.69 182.259 161.543 182.273C159.933 182.281 159.933 182.281 158.291 182.29C152.612 182.316 146.933 182.336 141.254 182.35C135.382 182.367 129.511 182.411 123.64 182.462C119.13 182.496 114.62 182.508 110.11 182.513C107.946 182.52 105.781 182.535 103.617 182.559C100.588 182.591 97.5607 182.591 94.5318 182.583C93.6366 182.6 92.7413 182.616 91.8189 182.633C87.3653 182.588 85.5684 182.443 81.9456 179.62C79.2565 175.999 79.2861 173.751 79.5077 169.379C80.269 165.699 81.9886 164.121 84.9999 162C89.1764 160.673 93.3881 160.852 97.7281 160.855Z" fill="currentColor"/>
<path d="M151.648 384.725C152.496 384.72 153.344 384.715 154.218 384.71C157.009 384.696 159.799 384.697 162.59 384.699C164.538 384.695 166.485 384.691 168.433 384.686C172.511 384.679 176.588 384.679 180.666 384.684C185.882 384.69 191.098 384.673 196.315 384.65C200.336 384.635 204.357 384.634 208.378 384.637C210.3 384.637 212.223 384.632 214.146 384.622C216.838 384.609 219.53 384.616 222.222 384.628C223.011 384.62 223.799 384.612 224.611 384.604C229.792 384.654 233.392 385.589 238 388C240.235 390.375 240.939 391.933 241.125 395.184C240.919 399.1 240.797 401.149 238.031 404.103C233.853 406.718 230.535 406.57 225.699 406.533C224.306 406.546 224.306 406.546 222.884 406.56C219.818 406.582 216.753 406.575 213.688 406.566C211.554 406.572 209.421 406.578 207.288 406.585C202.819 406.596 198.351 406.591 193.882 406.576C188.155 406.559 182.429 406.583 176.702 406.618C172.298 406.64 167.894 406.638 163.489 406.63C161.378 406.629 159.266 406.636 157.155 406.651C154.203 406.668 151.253 406.654 148.301 406.631C147.429 406.643 146.557 406.654 145.659 406.667C141.249 406.597 139.54 406.432 135.981 403.586C133.078 399.796 132.539 397.79 133 393C134.778 389.443 135.931 387.473 139.608 385.845C143.709 384.823 147.441 384.712 151.648 384.725Z" fill="currentColor"/>
<path d="M237.638 160.725C238.749 160.718 238.749 160.718 239.883 160.71C242.317 160.696 244.75 160.697 247.184 160.699C248.885 160.695 250.586 160.691 252.287 160.686C255.846 160.679 259.406 160.679 262.966 160.684C267.517 160.69 272.067 160.673 276.617 160.65C280.129 160.635 283.64 160.634 287.151 160.637C288.829 160.637 290.506 160.632 292.183 160.622C294.533 160.609 296.882 160.616 299.232 160.628C299.918 160.62 300.603 160.612 301.309 160.604C306.298 160.658 309.657 161.698 314 164C316.101 167.151 316.343 168.222 316.438 171.875C316.497 173.14 316.497 173.14 316.559 174.43C315.731 178.239 314.024 179.588 311 182C308.041 182.49 305.661 182.676 302.709 182.631C301.887 182.638 301.065 182.645 300.219 182.653C297.51 182.67 294.803 182.65 292.094 182.629C290.207 182.63 288.321 182.632 286.434 182.636C282.483 182.639 278.532 182.624 274.582 182.597C269.521 182.563 264.461 182.569 259.399 182.588C255.505 182.598 251.61 182.589 247.715 182.574C245.849 182.569 243.983 182.569 242.117 182.576C239.508 182.581 236.9 182.561 234.291 182.533C233.522 182.54 232.753 182.546 231.961 182.553C228.307 182.488 226.17 182.106 223.044 180.154C220.369 177.335 220.044 175.472 219.688 171.625C220.058 167.322 220.848 165.903 224 163C228.565 161.087 232.752 160.708 237.638 160.725Z" fill="currentColor"/>
<path d="M97.8123 272.75C98.5941 272.729 99.3759 272.709 100.181 272.687C105.552 272.652 109.246 273.458 114 276C116.27 278.71 116.918 280.452 117.437 283.937C116.884 287.812 115.408 289.954 113 293C108.668 295.166 102.945 294.319 98.1873 294.375C96.9981 294.412 95.809 294.45 94.5838 294.488C85.8564 294.576 85.8564 294.576 81.7146 291.789C79.0541 287.462 78.982 283.919 79.9998 279C84.8398 272.412 90.2951 272.799 97.8123 272.75Z" fill="currentColor"/>
<path d="M251 492C254.733 494.514 255.748 496.134 257 500.438C257 504.531 256.22 506.591 254 510C249.982 512.679 246.724 512.696 242 512C239.13 510.206 237.509 509.017 236 506C235.508 501.083 235.517 498.902 237.875 494.5C241.502 490.718 246.143 490.947 251 492Z" fill="currentColor"/>
</g>
<defs>
<clipPath id="clip0_10_67">
<rect width="512" height="512" fill="white"/>
</clipPath>
</defs>
</svg>
